<?xml version="1.0" encoding="utf-8"?>
<svg xmlns="http://www.w3.org/2000/svg" xmlns:xlink="http://www.w3.org/1999/xlink" width="600" height="400" viewBox="0 0 2400 1600">
<defs>
  <clipPath id="clip470">
    <rect x="0" y="0" width="2400" height="1600"/>
  </clipPath>
</defs>
<path clip-path="url(#clip470)" d="M0 1600 L2400 1600 L2400 0 L0 0  Z" fill="#ffffff" fill-rule="evenodd" fill-opacity="1"/>
<defs>
  <clipPath id="clip471">
    <rect x="141" y="197" width="1972" height="1216"/>
  </clipPath>
</defs>
<path clip-path="url(#clip470)" d="M249.542 1423.18 L2352.76 1423.18 L2352.76 123.472 L249.542 123.472  Z" fill="#ffffff" fill-rule="evenodd" fill-opacity="1"/>
<defs>
  <clipPath id="clip472">
    <rect x="249" y="123" width="2104" height="1301"/>
  </clipPath>
</defs>
<polyline clip-path="url(#clip472)" style="stroke:#000000; stroke-linecap:round; stroke-linejoin:round; stroke-width:2; stroke-opacity:0.1; fill:none" points="309.067,1423.18 309.067,123.472 "/>
<polyline clip-path="url(#clip472)" style="stroke:#000000; stroke-linecap:round; stroke-linejoin:round; stroke-width:2; stroke-opacity:0.1; fill:none" points="722.434,1423.18 722.434,123.472 "/>
<polyline clip-path="url(#clip472)" style="stroke:#000000; stroke-linecap:round; stroke-linejoin:round; stroke-width:2; stroke-opacity:0.1; fill:none" points="1135.8,1423.18 1135.8,123.472 "/>
<polyline clip-path="url(#clip472)" style="stroke:#000000; stroke-linecap:round; stroke-linejoin:round; stroke-width:2; stroke-opacity:0.1; fill:none" points="1549.17,1423.18 1549.17,123.472 "/>
<polyline clip-path="url(#clip472)" style="stroke:#000000; stroke-linecap:round; stroke-linejoin:round; stroke-width:2; stroke-opacity:0.1; fill:none" points="1962.54,1423.18 1962.54,123.472 "/>
<polyline clip-path="url(#clip472)" style="stroke:#000000; stroke-linecap:round; stroke-linejoin:round; stroke-width:2; stroke-opacity:0.1; fill:none" points="249.542,1386.4 2352.76,1386.4 "/>
<polyline clip-path="url(#clip472)" style="stroke:#000000; stroke-linecap:round; stroke-linejoin:round; stroke-width:2; stroke-opacity:0.1; fill:none" points="249.542,1049.14 2352.76,1049.14 "/>
<polyline clip-path="url(#clip472)" style="stroke:#000000; stroke-linecap:round; stroke-linejoin:round; stroke-width:2; stroke-opacity:0.1; fill:none" points="249.542,711.88 2352.76,711.88 "/>
<polyline clip-path="url(#clip472)" style="stroke:#000000; stroke-linecap:round; stroke-linejoin:round; stroke-width:2; stroke-opacity:0.1; fill:none" points="249.542,374.622 2352.76,374.622 "/>
<polyline clip-path="url(#clip470)" style="stroke:#000000; stroke-linecap:round; stroke-linejoin:round; stroke-width:4; stroke-opacity:1; fill:none" points="249.542,1423.18 2352.76,1423.18 "/>
<polyline clip-path="url(#clip470)" style="stroke:#000000; stroke-linecap:round; stroke-linejoin:round; stroke-width:4; stroke-opacity:1; fill:none" points="309.067,1423.18 309.067,1404.28 "/>
<polyline clip-path="url(#clip470)" style="stroke:#000000; stroke-linecap:round; stroke-linejoin:round; stroke-width:4; stroke-opacity:1; fill:none" points="722.434,1423.18 722.434,1404.28 "/>
<polyline clip-path="url(#clip470)" style="stroke:#000000; stroke-linecap:round; stroke-linejoin:round; stroke-width:4; stroke-opacity:1; fill:none" points="1135.8,1423.18 1135.8,1404.28 "/>
<polyline clip-path="url(#clip470)" style="stroke:#000000; stroke-linecap:round; stroke-linejoin:round; stroke-width:4; stroke-opacity:1; fill:none" points="1549.17,1423.18 1549.17,1404.28 "/>
<polyline clip-path="url(#clip470)" style="stroke:#000000; stroke-linecap:round; stroke-linejoin:round; stroke-width:4; stroke-opacity:1; fill:none" points="1962.54,1423.18 1962.54,1404.28 "/>
<path clip-path="url(#clip470)" d="M271.37 1454.1 Q267.759 1454.1 265.931 1457.66 Q264.125 1461.2 264.125 1468.33 Q264.125 1475.44 265.931 1479.01 Q267.759 1482.55 271.37 1482.55 Q275.005 1482.55 276.81 1479.01 Q278.639 1475.44 278.639 1468.33 Q278.639 1461.2 276.81 1457.66 Q275.005 1454.1 271.37 1454.1 M271.37 1450.39 Q277.181 1450.39 280.236 1455 Q283.315 1459.58 283.315 1468.33 Q283.315 1477.06 280.236 1481.67 Q277.181 1486.25 271.37 1486.25 Q265.56 1486.25 262.482 1481.67 Q259.426 1477.06 259.426 1468.33 Q259.426 1459.58 262.482 1455 Q265.56 1450.39 271.37 1450.39 Z" fill="#000000" fill-rule="nonzero" fill-opacity="1" /><path clip-path="url(#clip470)" d="M291.532 1479.7 L296.417 1479.7 L296.417 1485.58 L291.532 1485.58 L291.532 1479.7 Z" fill="#000000" fill-rule="nonzero" fill-opacity="1" /><path clip-path="url(#clip470)" d="M316.602 1454.1 Q312.991 1454.1 311.162 1457.66 Q309.356 1461.2 309.356 1468.33 Q309.356 1475.44 311.162 1479.01 Q312.991 1482.55 316.602 1482.55 Q320.236 1482.55 322.041 1479.01 Q323.87 1475.44 323.87 1468.33 Q323.87 1461.2 322.041 1457.66 Q320.236 1454.1 316.602 1454.1 M316.602 1450.39 Q322.412 1450.39 325.467 1455 Q328.546 1459.58 328.546 1468.33 Q328.546 1477.06 325.467 1481.67 Q322.412 1486.25 316.602 1486.25 Q310.791 1486.25 307.713 1481.67 Q304.657 1477.06 304.657 1468.33 Q304.657 1459.58 307.713 1455 Q310.791 1450.39 316.602 1450.39 Z" fill="#000000" fill-rule="nonzero" fill-opacity="1" /><path clip-path="url(#clip470)" d="M346.764 1454.1 Q343.152 1454.1 341.324 1457.66 Q339.518 1461.2 339.518 1468.33 Q339.518 1475.44 341.324 1479.01 Q343.152 1482.55 346.764 1482.55 Q350.398 1482.55 352.203 1479.01 Q354.032 1475.44 354.032 1468.33 Q354.032 1461.2 352.203 1457.66 Q350.398 1454.1 346.764 1454.1 M346.764 1450.39 Q352.574 1450.39 355.629 1455 Q358.708 1459.58 358.708 1468.33 Q358.708 1477.06 355.629 1481.67 Q352.574 1486.25 346.764 1486.25 Q340.953 1486.25 337.875 1481.67 Q334.819 1477.06 334.819 1468.33 Q334.819 1459.58 337.875 1455 Q340.953 1450.39 346.764 1450.39 Z" fill="#000000" fill-rule="nonzero" fill-opacity="1" /><path clip-path="url(#clip470)" d="M685.236 1454.1 Q681.624 1454.1 679.796 1457.66 Q677.99 1461.2 677.99 1468.33 Q677.99 1475.44 679.796 1479.01 Q681.624 1482.55 685.236 1482.55 Q688.87 1482.55 690.675 1479.01 Q692.504 1475.44 692.504 1468.33 Q692.504 1461.2 690.675 1457.66 Q688.87 1454.1 685.236 1454.1 M685.236 1450.39 Q691.046 1450.39 694.101 1455 Q697.18 1459.58 697.18 1468.33 Q697.18 1477.06 694.101 1481.67 Q691.046 1486.25 685.236 1486.25 Q679.425 1486.25 676.347 1481.67 Q673.291 1477.06 673.291 1468.33 Q673.291 1459.58 676.347 1455 Q679.425 1450.39 685.236 1450.39 Z" fill="#000000" fill-rule="nonzero" fill-opacity="1" /><path clip-path="url(#clip470)" d="M705.398 1479.7 L710.282 1479.7 L710.282 1485.58 L705.398 1485.58 L705.398 1479.7 Z" fill="#000000" fill-rule="nonzero" fill-opacity="1" /><path clip-path="url(#clip470)" d="M724.495 1481.64 L740.814 1481.64 L740.814 1485.58 L718.87 1485.58 L718.87 1481.64 Q721.532 1478.89 726.115 1474.26 Q730.721 1469.61 731.902 1468.27 Q734.147 1465.74 735.027 1464.01 Q735.93 1462.25 735.93 1460.56 Q735.93 1457.8 733.985 1456.07 Q732.064 1454.33 728.962 1454.33 Q726.763 1454.33 724.309 1455.09 Q721.879 1455.86 719.101 1457.41 L719.101 1452.69 Q721.925 1451.55 724.379 1450.97 Q726.833 1450.39 728.87 1450.39 Q734.24 1450.39 737.434 1453.08 Q740.629 1455.77 740.629 1460.26 Q740.629 1462.39 739.819 1464.31 Q739.032 1466.2 736.925 1468.8 Q736.346 1469.47 733.245 1472.69 Q730.143 1475.88 724.495 1481.64 Z" fill="#000000" fill-rule="nonzero" fill-opacity="1" /><path clip-path="url(#clip470)" d="M750.675 1451.02 L769.031 1451.02 L769.031 1454.96 L754.957 1454.96 L754.957 1463.43 Q755.976 1463.08 756.994 1462.92 Q758.013 1462.73 759.031 1462.73 Q764.818 1462.73 768.198 1465.9 Q771.578 1469.08 771.578 1474.49 Q771.578 1480.07 768.106 1483.17 Q764.633 1486.25 758.314 1486.25 Q756.138 1486.25 753.869 1485.88 Q751.624 1485.51 749.217 1484.77 L749.217 1480.07 Q751.3 1481.2 753.522 1481.76 Q755.744 1482.32 758.221 1482.32 Q762.226 1482.32 764.564 1480.21 Q766.902 1478.1 766.902 1474.49 Q766.902 1470.88 764.564 1468.77 Q762.226 1466.67 758.221 1466.67 Q756.346 1466.67 754.471 1467.08 Q752.619 1467.5 750.675 1468.38 L750.675 1451.02 Z" fill="#000000" fill-rule="nonzero" fill-opacity="1" /><path clip-path="url(#clip470)" d="M1098.11 1454.1 Q1094.49 1454.1 1092.67 1457.66 Q1090.86 1461.2 1090.86 1468.33 Q1090.86 1475.44 1092.67 1479.01 Q1094.49 1482.55 1098.11 1482.55 Q1101.74 1482.55 1103.55 1479.01 Q1105.37 1475.44 1105.37 1468.33 Q1105.37 1461.2 1103.55 1457.66 Q1101.74 1454.1 1098.11 1454.1 M1098.11 1450.39 Q1103.92 1450.39 1106.97 1455 Q1110.05 1459.58 1110.05 1468.33 Q1110.05 1477.06 1106.97 1481.67 Q1103.92 1486.25 1098.11 1486.25 Q1092.3 1486.25 1089.22 1481.67 Q1086.16 1477.06 1086.16 1468.33 Q1086.16 1459.58 1089.22 1455 Q1092.3 1450.39 1098.11 1450.39 Z" fill="#000000" fill-rule="nonzero" fill-opacity="1" /><path clip-path="url(#clip470)" d="M1118.27 1479.7 L1123.15 1479.7 L1123.15 1485.58 L1118.27 1485.58 L1118.27 1479.7 Z" fill="#000000" fill-rule="nonzero" fill-opacity="1" /><path clip-path="url(#clip470)" d="M1133.38 1451.02 L1151.74 1451.02 L1151.74 1454.96 L1137.67 1454.96 L1137.67 1463.43 Q1138.68 1463.08 1139.7 1462.92 Q1140.72 1462.73 1141.74 1462.73 Q1147.53 1462.73 1150.91 1465.9 Q1154.29 1469.08 1154.29 1474.49 Q1154.29 1480.07 1150.81 1483.17 Q1147.34 1486.25 1141.02 1486.25 Q1138.85 1486.25 1136.58 1485.88 Q1134.33 1485.51 1131.92 1484.77 L1131.92 1480.07 Q1134.01 1481.2 1136.23 1481.76 Q1138.45 1482.32 1140.93 1482.32 Q1144.93 1482.32 1147.27 1480.21 Q1149.61 1478.1 1149.61 1474.49 Q1149.61 1470.88 1147.27 1468.77 Q1144.93 1466.67 1140.93 1466.67 Q1139.05 1466.67 1137.18 1467.08 Q1135.33 1467.5 1133.38 1468.38 L1133.38 1451.02 Z" fill="#000000" fill-rule="nonzero" fill-opacity="1" /><path clip-path="url(#clip470)" d="M1173.5 1454.1 Q1169.89 1454.1 1168.06 1457.66 Q1166.25 1461.2 1166.25 1468.33 Q1166.25 1475.44 1168.06 1479.01 Q1169.89 1482.55 1173.5 1482.55 Q1177.13 1482.55 1178.94 1479.01 Q1180.77 1475.44 1180.77 1468.33 Q1180.77 1461.2 1178.94 1457.66 Q1177.13 1454.1 1173.5 1454.1 M1173.5 1450.39 Q1179.31 1450.39 1182.36 1455 Q1185.44 1459.58 1185.44 1468.33 Q1185.44 1477.06 1182.36 1481.67 Q1179.31 1486.25 1173.5 1486.25 Q1167.69 1486.25 1164.61 1481.67 Q1161.55 1477.06 1161.55 1468.33 Q1161.55 1459.58 1164.61 1455 Q1167.69 1450.39 1173.5 1450.39 Z" fill="#000000" fill-rule="nonzero" fill-opacity="1" /><path clip-path="url(#clip470)" d="M1511.97 1454.1 Q1508.36 1454.1 1506.53 1457.66 Q1504.73 1461.2 1504.73 1468.33 Q1504.73 1475.44 1506.53 1479.01 Q1508.36 1482.55 1511.97 1482.55 Q1515.6 1482.55 1517.41 1479.01 Q1519.24 1475.44 1519.24 1468.33 Q1519.24 1461.2 1517.41 1457.66 Q1515.6 1454.1 1511.97 1454.1 M1511.97 1450.39 Q1517.78 1450.39 1520.84 1455 Q1523.91 1459.58 1523.91 1468.33 Q1523.91 1477.06 1520.84 1481.67 Q1517.78 1486.25 1511.97 1486.25 Q1506.16 1486.25 1503.08 1481.67 Q1500.03 1477.06 1500.03 1468.33 Q1500.03 1459.58 1503.08 1455 Q1506.16 1450.39 1511.97 1450.39 Z" fill="#000000" fill-rule="nonzero" fill-opacity="1" /><path clip-path="url(#clip470)" d="M1532.13 1479.7 L1537.02 1479.7 L1537.02 1485.58 L1532.13 1485.58 L1532.13 1479.7 Z" fill="#000000" fill-rule="nonzero" fill-opacity="1" /><path clip-path="url(#clip470)" d="M1546.02 1451.02 L1568.24 1451.02 L1568.24 1453.01 L1555.7 1485.58 L1550.81 1485.58 L1562.62 1454.96 L1546.02 1454.96 L1546.02 1451.02 Z" fill="#000000" fill-rule="nonzero" fill-opacity="1" /><path clip-path="url(#clip470)" d="M1577.41 1451.02 L1595.77 1451.02 L1595.77 1454.96 L1581.69 1454.96 L1581.69 1463.43 Q1582.71 1463.08 1583.73 1462.92 Q1584.75 1462.73 1585.77 1462.73 Q1591.55 1462.73 1594.93 1465.9 Q1598.31 1469.08 1598.31 1474.49 Q1598.31 1480.07 1594.84 1483.17 Q1591.37 1486.25 1585.05 1486.25 Q1582.87 1486.25 1580.6 1485.88 Q1578.36 1485.51 1575.95 1484.77 L1575.95 1480.07 Q1578.04 1481.2 1580.26 1481.76 Q1582.48 1482.32 1584.96 1482.32 Q1588.96 1482.32 1591.3 1480.21 Q1593.64 1478.1 1593.64 1474.49 Q1593.64 1470.88 1591.3 1468.77 Q1588.96 1466.67 1584.96 1466.67 Q1583.08 1466.67 1581.21 1467.08 Q1579.35 1467.5 1577.41 1468.38 L1577.41 1451.02 Z" fill="#000000" fill-rule="nonzero" fill-opacity="1" /><path clip-path="url(#clip470)" d="M1914.61 1481.64 L1922.25 1481.64 L1922.25 1455.28 L1913.94 1456.95 L1913.94 1452.69 L1922.2 1451.02 L1926.88 1451.02 L1926.88 1481.64 L1934.52 1481.64 L1934.52 1485.58 L1914.61 1485.58 L1914.61 1481.64 Z" fill="#000000" fill-rule="nonzero" fill-opacity="1" /><path clip-path="url(#clip470)" d="M1943.96 1479.7 L1948.84 1479.7 L1948.84 1485.58 L1943.96 1485.58 L1943.96 1479.7 Z" fill="#000000" fill-rule="nonzero" fill-opacity="1" /><path clip-path="url(#clip470)" d="M1969.03 1454.1 Q1965.42 1454.1 1963.59 1457.66 Q1961.78 1461.2 1961.78 1468.33 Q1961.78 1475.44 1963.59 1479.01 Q1965.42 1482.55 1969.03 1482.55 Q1972.66 1482.55 1974.47 1479.01 Q1976.3 1475.44 1976.3 1468.33 Q1976.3 1461.2 1974.47 1457.66 Q1972.66 1454.1 1969.03 1454.1 M1969.03 1450.39 Q1974.84 1450.39 1977.9 1455 Q1980.97 1459.58 1980.97 1468.33 Q1980.97 1477.06 1977.9 1481.67 Q1974.84 1486.25 1969.03 1486.25 Q1963.22 1486.25 1960.14 1481.67 Q1957.09 1477.06 1957.09 1468.33 Q1957.09 1459.58 1960.14 1455 Q1963.22 1450.39 1969.03 1450.39 Z" fill="#000000" fill-rule="nonzero" fill-opacity="1" /><path clip-path="url(#clip470)" d="M1999.19 1454.1 Q1995.58 1454.1 1993.75 1457.66 Q1991.95 1461.2 1991.95 1468.33 Q1991.95 1475.44 1993.75 1479.01 Q1995.58 1482.55 1999.19 1482.55 Q2002.83 1482.55 2004.63 1479.01 Q2006.46 1475.44 2006.46 1468.33 Q2006.46 1461.2 2004.63 1457.66 Q2002.83 1454.1 1999.19 1454.1 M1999.19 1450.39 Q2005 1450.39 2008.06 1455 Q2011.14 1459.58 2011.14 1468.33 Q2011.14 1477.06 2008.06 1481.67 Q2005 1486.25 1999.19 1486.25 Q1993.38 1486.25 1990.3 1481.67 Q1987.25 1477.06 1987.25 1468.33 Q1987.25 1459.58 1990.3 1455 Q1993.38 1450.39 1999.19 1450.39 Z" fill="#000000" fill-rule="nonzero" fill-opacity="1" /><path clip-path="url(#clip470)" d="M1240.31 1522.27 L1240.31 1532.4 L1252.37 1532.4 L1252.37 1536.95 L1240.31 1536.95 L1240.31 1556.3 Q1240.31 1560.66 1241.49 1561.9 Q1242.7 1563.14 1246.36 1563.14 L1252.37 1563.14 L1252.37 1568.04 L1246.36 1568.04 Q1239.58 1568.04 1237 1565.53 Q1234.42 1562.98 1234.42 1556.3 L1234.42 1536.95 L1230.12 1536.95 L1230.12 1532.4 L1234.42 1532.4 L1234.42 1522.27 L1240.31 1522.27 Z" fill="#000000" fill-rule="nonzero" fill-opacity="1" /><path clip-path="url(#clip470)" d="M1260.07 1532.4 L1265.93 1532.4 L1265.93 1568.04 L1260.07 1568.04 L1260.07 1532.4 M1260.07 1518.52 L1265.93 1518.52 L1265.93 1525.93 L1260.07 1525.93 L1260.07 1518.52 Z" fill="#000000" fill-rule="nonzero" fill-opacity="1" /><path clip-path="url(#clip470)" d="M1305.94 1539.24 Q1308.14 1535.29 1311.19 1533.41 Q1314.25 1531.54 1318.38 1531.54 Q1323.95 1531.54 1326.98 1535.45 Q1330 1539.33 1330 1546.53 L1330 1568.04 L1324.11 1568.04 L1324.11 1546.72 Q1324.11 1541.59 1322.3 1539.11 Q1320.48 1536.63 1316.76 1536.63 Q1312.21 1536.63 1309.57 1539.65 Q1306.93 1542.68 1306.93 1547.9 L1306.93 1568.04 L1301.04 1568.04 L1301.04 1546.72 Q1301.04 1541.56 1299.22 1539.11 Q1297.41 1536.63 1293.62 1536.63 Q1289.13 1536.63 1286.49 1539.68 Q1283.85 1542.71 1283.85 1547.9 L1283.85 1568.04 L1277.96 1568.04 L1277.96 1532.4 L1283.85 1532.4 L1283.85 1537.93 Q1285.86 1534.66 1288.66 1533.1 Q1291.46 1531.54 1295.31 1531.54 Q1299.19 1531.54 1301.9 1533.51 Q1304.63 1535.48 1305.94 1539.24 Z" fill="#000000" fill-rule="nonzero" fill-opacity="1" /><path clip-path="url(#clip470)" d="M1372.17 1548.76 L1372.17 1551.62 L1345.25 1551.62 Q1345.63 1557.67 1348.88 1560.85 Q1352.15 1564 1357.98 1564 Q1361.35 1564 1364.5 1563.17 Q1367.69 1562.35 1370.81 1560.69 L1370.81 1566.23 Q1367.65 1567.57 1364.34 1568.27 Q1361.03 1568.97 1357.63 1568.97 Q1349.1 1568.97 1344.1 1564 Q1339.14 1559.04 1339.14 1550.57 Q1339.14 1541.82 1343.85 1536.69 Q1348.59 1531.54 1356.61 1531.54 Q1363.8 1531.54 1367.97 1536.18 Q1372.17 1540.8 1372.17 1548.76 M1366.32 1547.04 Q1366.25 1542.23 1363.61 1539.37 Q1361 1536.5 1356.67 1536.5 Q1351.77 1536.5 1348.81 1539.27 Q1345.88 1542.04 1345.44 1547.07 L1366.32 1547.04 Z" fill="#000000" fill-rule="nonzero" fill-opacity="1" /><polyline clip-path="url(#clip470)" style="stroke:#000000; stroke-linecap:round; stroke-linejoin:round; stroke-width:4; stroke-opacity:1; fill:none" points="249.542,1423.18 249.542,123.472 "/>
<polyline clip-path="url(#clip470)" style="stroke:#000000; stroke-linecap:round; stroke-linejoin:round; stroke-width:4; stroke-opacity:1; fill:none" points="249.542,1386.4 268.44,1386.4 "/>
<polyline clip-path="url(#clip470)" style="stroke:#000000; stroke-linecap:round; stroke-linejoin:round; stroke-width:4; stroke-opacity:1; fill:none" points="249.542,1049.14 268.44,1049.14 "/>
<polyline clip-path="url(#clip470)" style="stroke:#000000; stroke-linecap:round; stroke-linejoin:round; stroke-width:4; stroke-opacity:1; fill:none" points="249.542,711.88 268.44,711.88 "/>
<polyline clip-path="url(#clip470)" style="stroke:#000000; stroke-linecap:round; stroke-linejoin:round; stroke-width:4; stroke-opacity:1; fill:none" points="249.542,374.622 268.44,374.622 "/>
<path clip-path="url(#clip470)" d="M126.205 1372.19 Q122.593 1372.19 120.765 1375.76 Q118.959 1379.3 118.959 1386.43 Q118.959 1393.54 120.765 1397.1 Q122.593 1400.64 126.205 1400.64 Q129.839 1400.64 131.644 1397.1 Q133.473 1393.54 133.473 1386.43 Q133.473 1379.3 131.644 1375.76 Q129.839 1372.19 126.205 1372.19 M126.205 1368.49 Q132.015 1368.49 135.07 1373.1 Q138.149 1377.68 138.149 1386.43 Q138.149 1395.16 135.07 1399.76 Q132.015 1404.35 126.205 1404.35 Q120.394 1404.35 117.316 1399.76 Q114.26 1395.16 114.26 1386.43 Q114.26 1377.68 117.316 1373.1 Q120.394 1368.49 126.205 1368.49 Z" fill="#000000" fill-rule="nonzero" fill-opacity="1" /><path clip-path="url(#clip470)" d="M146.366 1397.8 L151.251 1397.8 L151.251 1403.68 L146.366 1403.68 L146.366 1397.8 Z" fill="#000000" fill-rule="nonzero" fill-opacity="1" /><path clip-path="url(#clip470)" d="M171.436 1372.19 Q167.825 1372.19 165.996 1375.76 Q164.19 1379.3 164.19 1386.43 Q164.19 1393.54 165.996 1397.1 Q167.825 1400.64 171.436 1400.64 Q175.07 1400.64 176.876 1397.1 Q178.704 1393.54 178.704 1386.43 Q178.704 1379.3 176.876 1375.76 Q175.07 1372.19 171.436 1372.19 M171.436 1368.49 Q177.246 1368.49 180.301 1373.1 Q183.38 1377.68 183.38 1386.43 Q183.38 1395.16 180.301 1399.76 Q177.246 1404.35 171.436 1404.35 Q165.626 1404.35 162.547 1399.76 Q159.491 1395.16 159.491 1386.43 Q159.491 1377.68 162.547 1373.1 Q165.626 1368.49 171.436 1368.49 Z" fill="#000000" fill-rule="nonzero" fill-opacity="1" /><path clip-path="url(#clip470)" d="M201.598 1372.19 Q197.987 1372.19 196.158 1375.76 Q194.352 1379.3 194.352 1386.43 Q194.352 1393.54 196.158 1397.1 Q197.987 1400.64 201.598 1400.64 Q205.232 1400.64 207.037 1397.1 Q208.866 1393.54 208.866 1386.43 Q208.866 1379.3 207.037 1375.76 Q205.232 1372.19 201.598 1372.19 M201.598 1368.49 Q207.408 1368.49 210.463 1373.1 Q213.542 1377.68 213.542 1386.43 Q213.542 1395.16 210.463 1399.76 Q207.408 1404.35 201.598 1404.35 Q195.787 1404.35 192.709 1399.76 Q189.653 1395.16 189.653 1386.43 Q189.653 1377.68 192.709 1373.1 Q195.787 1368.49 201.598 1368.49 Z" fill="#000000" fill-rule="nonzero" fill-opacity="1" /><path clip-path="url(#clip470)" d="M127.2 1034.94 Q123.589 1034.94 121.76 1038.5 Q119.955 1042.04 119.955 1049.17 Q119.955 1056.28 121.76 1059.84 Q123.589 1063.39 127.2 1063.39 Q130.834 1063.39 132.64 1059.84 Q134.468 1056.28 134.468 1049.17 Q134.468 1042.04 132.64 1038.5 Q130.834 1034.94 127.2 1034.94 M127.2 1031.23 Q133.01 1031.23 136.066 1035.84 Q139.144 1040.42 139.144 1049.17 Q139.144 1057.9 136.066 1062.51 Q133.01 1067.09 127.2 1067.09 Q121.39 1067.09 118.311 1062.51 Q115.256 1057.9 115.256 1049.17 Q115.256 1040.42 118.311 1035.84 Q121.39 1031.23 127.2 1031.23 Z" fill="#000000" fill-rule="nonzero" fill-opacity="1" /><path clip-path="url(#clip470)" d="M147.362 1060.54 L152.246 1060.54 L152.246 1066.42 L147.362 1066.42 L147.362 1060.54 Z" fill="#000000" fill-rule="nonzero" fill-opacity="1" /><path clip-path="url(#clip470)" d="M172.431 1034.94 Q168.82 1034.94 166.991 1038.5 Q165.186 1042.04 165.186 1049.17 Q165.186 1056.28 166.991 1059.84 Q168.82 1063.39 172.431 1063.39 Q176.065 1063.39 177.871 1059.84 Q179.7 1056.28 179.7 1049.17 Q179.7 1042.04 177.871 1038.5 Q176.065 1034.94 172.431 1034.94 M172.431 1031.23 Q178.241 1031.23 181.297 1035.84 Q184.376 1040.42 184.376 1049.17 Q184.376 1057.9 181.297 1062.51 Q178.241 1067.09 172.431 1067.09 Q166.621 1067.09 163.542 1062.51 Q160.487 1057.9 160.487 1049.17 Q160.487 1040.42 163.542 1035.84 Q166.621 1031.23 172.431 1031.23 Z" fill="#000000" fill-rule="nonzero" fill-opacity="1" /><path clip-path="url(#clip470)" d="M192.639 1031.86 L210.996 1031.86 L210.996 1035.79 L196.922 1035.79 L196.922 1044.27 Q197.94 1043.92 198.959 1043.76 Q199.977 1043.57 200.996 1043.57 Q206.783 1043.57 210.162 1046.74 Q213.542 1049.91 213.542 1055.33 Q213.542 1060.91 210.07 1064.01 Q206.598 1067.09 200.278 1067.09 Q198.102 1067.09 195.834 1066.72 Q193.588 1066.35 191.181 1065.61 L191.181 1060.91 Q193.264 1062.04 195.487 1062.6 Q197.709 1063.15 200.186 1063.15 Q204.19 1063.15 206.528 1061.05 Q208.866 1058.94 208.866 1055.33 Q208.866 1051.72 206.528 1049.61 Q204.19 1047.51 200.186 1047.51 Q198.311 1047.51 196.436 1047.92 Q194.584 1048.34 192.639 1049.22 L192.639 1031.86 Z" fill="#000000" fill-rule="nonzero" fill-opacity="1" /><path clip-path="url(#clip470)" d="M126.205 697.679 Q122.593 697.679 120.765 701.244 Q118.959 704.785 118.959 711.915 Q118.959 719.021 120.765 722.586 Q122.593 726.128 126.205 726.128 Q129.839 726.128 131.644 722.586 Q133.473 719.021 133.473 711.915 Q133.473 704.785 131.644 701.244 Q129.839 697.679 126.205 697.679 M126.205 693.975 Q132.015 693.975 135.07 698.581 Q138.149 703.165 138.149 711.915 Q138.149 720.642 135.07 725.248 Q132.015 729.831 126.205 729.831 Q120.394 729.831 117.316 725.248 Q114.26 720.642 114.26 711.915 Q114.26 703.165 117.316 698.581 Q120.394 693.975 126.205 693.975 Z" fill="#000000" fill-rule="nonzero" fill-opacity="1" /><path clip-path="url(#clip470)" d="M146.366 723.28 L151.251 723.28 L151.251 729.16 L146.366 729.16 L146.366 723.28 Z" fill="#000000" fill-rule="nonzero" fill-opacity="1" /><path clip-path="url(#clip470)" d="M162.246 725.225 L169.885 725.225 L169.885 698.859 L161.575 700.526 L161.575 696.267 L169.839 694.6 L174.514 694.6 L174.514 725.225 L182.153 725.225 L182.153 729.16 L162.246 729.16 L162.246 725.225 Z" fill="#000000" fill-rule="nonzero" fill-opacity="1" /><path clip-path="url(#clip470)" d="M201.598 697.679 Q197.987 697.679 196.158 701.244 Q194.352 704.785 194.352 711.915 Q194.352 719.021 196.158 722.586 Q197.987 726.128 201.598 726.128 Q205.232 726.128 207.037 722.586 Q208.866 719.021 208.866 711.915 Q208.866 704.785 207.037 701.244 Q205.232 697.679 201.598 697.679 M201.598 693.975 Q207.408 693.975 210.463 698.581 Q213.542 703.165 213.542 711.915 Q213.542 720.642 210.463 725.248 Q207.408 729.831 201.598 729.831 Q195.787 729.831 192.709 725.248 Q189.653 720.642 189.653 711.915 Q189.653 703.165 192.709 698.581 Q195.787 693.975 201.598 693.975 Z" fill="#000000" fill-rule="nonzero" fill-opacity="1" /><path clip-path="url(#clip470)" d="M127.2 360.421 Q123.589 360.421 121.76 363.986 Q119.955 367.527 119.955 374.657 Q119.955 381.763 121.76 385.328 Q123.589 388.87 127.2 388.87 Q130.834 388.87 132.64 385.328 Q134.468 381.763 134.468 374.657 Q134.468 367.527 132.64 363.986 Q130.834 360.421 127.2 360.421 M127.2 356.717 Q133.01 356.717 136.066 361.324 Q139.144 365.907 139.144 374.657 Q139.144 383.384 136.066 387.99 Q133.01 392.574 127.2 392.574 Q121.39 392.574 118.311 387.99 Q115.256 383.384 115.256 374.657 Q115.256 365.907 118.311 361.324 Q121.39 356.717 127.2 356.717 Z" fill="#000000" fill-rule="nonzero" fill-opacity="1" /><path clip-path="url(#clip470)" d="M147.362 386.023 L152.246 386.023 L152.246 391.902 L147.362 391.902 L147.362 386.023 Z" fill="#000000" fill-rule="nonzero" fill-opacity="1" /><path clip-path="url(#clip470)" d="M163.241 387.967 L170.88 387.967 L170.88 361.601 L162.57 363.268 L162.57 359.009 L170.834 357.342 L175.51 357.342 L175.51 387.967 L183.149 387.967 L183.149 391.902 L163.241 391.902 L163.241 387.967 Z" fill="#000000" fill-rule="nonzero" fill-opacity="1" /><path clip-path="url(#clip470)" d="M192.639 357.342 L210.996 357.342 L210.996 361.277 L196.922 361.277 L196.922 369.75 Q197.94 369.402 198.959 369.24 Q199.977 369.055 200.996 369.055 Q206.783 369.055 210.162 372.226 Q213.542 375.398 213.542 380.814 Q213.542 386.393 210.07 389.495 Q206.598 392.574 200.278 392.574 Q198.102 392.574 195.834 392.203 Q193.588 391.833 191.181 391.092 L191.181 386.393 Q193.264 387.527 195.487 388.083 Q197.709 388.638 200.186 388.638 Q204.19 388.638 206.528 386.532 Q208.866 384.425 208.866 380.814 Q208.866 377.203 206.528 375.097 Q204.19 372.99 200.186 372.99 Q198.311 372.99 196.436 373.407 Q194.584 373.824 192.639 374.703 L192.639 357.342 Z" fill="#000000" fill-rule="nonzero" fill-opacity="1" /><path clip-path="url(#clip470)" d="M14.479 809.292 L19.3487 809.292 L19.3487 814.894 Q19.3487 818.045 20.6219 819.286 Q21.895 820.496 25.2052 820.496 L28.3562 820.496 L28.3562 810.852 L32.9077 810.852 L32.9077 820.496 L64.0042 820.496 L64.0042 826.384 L32.9077 826.384 L32.9077 831.986 L28.3562 831.986 L28.3562 826.384 L25.8736 826.384 Q19.9216 826.384 17.2162 823.615 Q14.479 820.846 14.479 814.83 L14.479 809.292 Z" fill="#000000" fill-rule="nonzero" fill-opacity="1" /><path clip-path="url(#clip470)" d="M14.479 804.391 L14.479 798.534 L64.0042 798.534 L64.0042 804.391 L14.479 804.391 Z" fill="#000000" fill-rule="nonzero" fill-opacity="1" /><path clip-path="url(#clip470)" d="M49.9359 786.885 L28.3562 786.885 L28.3562 781.028 L49.7131 781.028 Q54.7739 781.028 57.3202 779.055 Q59.8346 777.082 59.8346 773.135 Q59.8346 768.393 56.8109 765.655 Q53.7872 762.886 48.5673 762.886 L28.3562 762.886 L28.3562 757.03 L64.0042 757.03 L64.0042 762.886 L58.5296 762.886 Q61.7762 765.019 63.3676 767.851 Q64.9272 770.652 64.9272 774.376 Q64.9272 780.519 61.1078 783.702 Q57.2883 786.885 49.9359 786.885 M27.4968 772.148 L27.4968 772.148 Z" fill="#000000" fill-rule="nonzero" fill-opacity="1" /><path clip-path="url(#clip470)" d="M28.3562 715.334 L45.7028 728.225 L64.0042 714.666 L64.0042 721.573 L49.9996 731.949 L64.0042 742.325 L64.0042 749.232 L45.3526 735.386 L28.3562 748.054 L28.3562 741.147 L41.0558 731.694 L28.3562 722.241 L28.3562 715.334 Z" fill="#000000" fill-rule="nonzero" fill-opacity="1" /><path clip-path="url(#clip470)" d="M885.405 17.6457 Q876.493 17.6457 871.227 24.2892 Q866.001 30.9327 866.001 42.3968 Q866.001 53.8203 871.227 60.4638 Q876.493 67.1073 885.405 67.1073 Q894.317 67.1073 899.502 60.4638 Q904.727 53.8203 904.727 42.3968 Q904.727 30.9327 899.502 24.2892 Q894.317 17.6457 885.405 17.6457 M885.405 11.0023 Q898.125 11.0023 905.74 19.5497 Q913.356 28.0566 913.356 42.3968 Q913.356 56.6965 905.74 65.2439 Q898.125 73.7508 885.405 73.7508 Q872.644 73.7508 864.988 65.2439 Q857.372 56.737 857.372 42.3968 Q857.372 28.0566 864.988 19.5497 Q872.644 11.0023 885.405 11.0023 Z" fill="#000000" fill-rule="nonzero" fill-opacity="1" /><path clip-path="url(#clip470)" d="M925.063 54.671 L925.063 27.2059 L932.517 27.2059 L932.517 54.3874 Q932.517 60.8284 935.028 64.0691 Q937.54 67.2693 942.563 67.2693 Q948.599 67.2693 952.083 63.421 Q955.607 59.5726 955.607 52.9291 L955.607 27.2059 L963.061 27.2059 L963.061 72.576 L955.607 72.576 L955.607 65.6084 Q952.893 69.7404 949.287 71.7658 Q945.723 73.7508 940.983 73.7508 Q933.165 73.7508 929.114 68.8897 Q925.063 64.0286 925.063 54.671 M943.819 26.1121 L943.819 26.1121 Z" fill="#000000" fill-rule="nonzero" fill-opacity="1" /><path clip-path="url(#clip470)" d="M985.786 14.324 L985.786 27.2059 L1001.14 27.2059 L1001.14 32.9987 L985.786 32.9987 L985.786 57.6282 Q985.786 63.1779 987.285 64.7578 Q988.824 66.3376 993.483 66.3376 L1001.14 66.3376 L1001.14 72.576 L993.483 72.576 Q984.854 72.576 981.573 69.3758 Q978.292 66.1351 978.292 57.6282 L978.292 32.9987 L972.823 32.9987 L972.823 27.2059 L978.292 27.2059 L978.292 14.324 L985.786 14.324 Z" fill="#000000" fill-rule="nonzero" fill-opacity="1" /><path clip-path="url(#clip470)" d="M1010.94 9.54393 L1018.4 9.54393 L1018.4 72.576 L1010.94 72.576 L1010.94 9.54393 Z" fill="#000000" fill-rule="nonzero" fill-opacity="1" /><path clip-path="url(#clip470)" d="M1072.8 48.0275 L1072.8 51.6733 L1038.53 51.6733 Q1039.01 59.3701 1043.15 63.421 Q1047.32 67.4314 1054.73 67.4314 Q1059.03 67.4314 1063.04 66.3781 Q1067.09 65.3249 1071.06 63.2184 L1071.06 70.267 Q1067.05 71.9684 1062.83 72.8596 Q1058.62 73.7508 1054.29 73.7508 Q1043.43 73.7508 1037.07 67.4314 Q1030.75 61.1119 1030.75 50.3365 Q1030.75 39.1965 1036.75 32.6746 Q1042.78 26.1121 1052.99 26.1121 Q1062.15 26.1121 1067.45 32.0264 Q1072.8 37.9003 1072.8 48.0275 M1065.35 45.84 Q1065.26 39.7232 1061.9 36.0774 Q1058.58 32.4315 1053.07 32.4315 Q1046.83 32.4315 1043.07 35.9558 Q1039.34 39.4801 1038.77 45.8805 L1065.35 45.84 Z" fill="#000000" fill-rule="nonzero" fill-opacity="1" /><path clip-path="url(#clip470)" d="M1092.41 14.324 L1092.41 27.2059 L1107.76 27.2059 L1107.76 32.9987 L1092.41 32.9987 L1092.41 57.6282 Q1092.41 63.1779 1093.9 64.7578 Q1095.44 66.3376 1100.1 66.3376 L1107.76 66.3376 L1107.76 72.576 L1100.1 72.576 Q1091.47 72.576 1088.19 69.3758 Q1084.91 66.1351 1084.91 57.6282 L1084.91 32.9987 L1079.44 32.9987 L1079.44 27.2059 L1084.91 27.2059 L1084.91 14.324 L1092.41 14.324 Z" fill="#000000" fill-rule="nonzero" fill-opacity="1" /><path clip-path="url(#clip470)" d="M1144.26 12.096 L1179.01 12.096 L1179.01 18.9825 L1152.44 18.9825 L1152.44 36.8065 L1176.42 36.8065 L1176.42 43.6931 L1152.44 43.6931 L1152.44 72.576 L1144.26 72.576 L1144.26 12.096 Z" fill="#000000" fill-rule="nonzero" fill-opacity="1" /><path clip-path="url(#clip470)" d="M1191.65 9.54393 L1199.11 9.54393 L1199.11 72.576 L1191.65 72.576 L1191.65 9.54393 Z" fill="#000000" fill-rule="nonzero" fill-opacity="1" /><path clip-path="url(#clip470)" d="M1213.93 54.671 L1213.93 27.2059 L1221.39 27.2059 L1221.39 54.3874 Q1221.39 60.8284 1223.9 64.0691 Q1226.41 67.2693 1231.43 67.2693 Q1237.47 67.2693 1240.95 63.421 Q1244.48 59.5726 1244.48 52.9291 L1244.48 27.2059 L1251.93 27.2059 L1251.93 72.576 L1244.48 72.576 L1244.48 65.6084 Q1241.76 69.7404 1238.16 71.7658 Q1234.59 73.7508 1229.85 73.7508 Q1222.03 73.7508 1217.98 68.8897 Q1213.93 64.0286 1213.93 54.671 M1232.69 26.1121 L1232.69 26.1121 Z" fill="#000000" fill-rule="nonzero" fill-opacity="1" /><path clip-path="url(#clip470)" d="M1305 27.2059 L1288.59 49.2833 L1305.85 72.576 L1297.06 72.576 L1283.85 54.752 L1270.65 72.576 L1261.86 72.576 L1279.48 48.8377 L1263.35 27.2059 L1272.14 27.2059 L1284.18 43.369 L1296.21 27.2059 L1305 27.2059 Z" fill="#000000" fill-rule="nonzero" fill-opacity="1" /><path clip-path="url(#clip470)" d="M1360.33 32.4315 Q1354.34 32.4315 1350.85 37.1306 Q1347.37 41.7891 1347.37 49.9314 Q1347.37 58.0738 1350.81 62.7728 Q1354.3 67.4314 1360.33 67.4314 Q1366.29 67.4314 1369.77 62.7323 Q1373.26 58.0333 1373.26 49.9314 Q1373.26 41.8701 1369.77 37.1711 Q1366.29 32.4315 1360.33 32.4315 M1360.33 26.1121 Q1370.05 26.1121 1375.6 32.4315 Q1381.15 38.7509 1381.15 49.9314 Q1381.15 61.0714 1375.6 67.4314 Q1370.05 73.7508 1360.33 73.7508 Q1350.57 73.7508 1345.02 67.4314 Q1339.51 61.0714 1339.51 49.9314 Q1339.51 38.7509 1345.02 32.4315 Q1350.57 26.1121 1360.33 26.1121 Z" fill="#000000" fill-rule="nonzero" fill-opacity="1" /><path clip-path="url(#clip470)" d="M1388.16 27.2059 L1396.06 27.2059 L1410.24 65.2844 L1424.42 27.2059 L1432.32 27.2059 L1415.3 72.576 L1405.18 72.576 L1388.16 27.2059 Z" fill="#000000" fill-rule="nonzero" fill-opacity="1" /><path clip-path="url(#clip470)" d="M1481.41 48.0275 L1481.41 51.6733 L1447.14 51.6733 Q1447.63 59.3701 1451.76 63.421 Q1455.93 67.4314 1463.35 67.4314 Q1467.64 67.4314 1471.65 66.3781 Q1475.7 65.3249 1479.67 63.2184 L1479.67 70.267 Q1475.66 71.9684 1471.45 72.8596 Q1467.24 73.7508 1462.9 73.7508 Q1452.05 73.7508 1445.69 67.4314 Q1439.37 61.1119 1439.37 50.3365 Q1439.37 39.1965 1445.36 32.6746 Q1451.4 26.1121 1461.61 26.1121 Q1470.76 26.1121 1476.07 32.0264 Q1481.41 37.9003 1481.41 48.0275 M1473.96 45.84 Q1473.88 39.7232 1470.52 36.0774 Q1467.2 32.4315 1461.69 32.4315 Q1455.45 32.4315 1451.68 35.9558 Q1447.95 39.4801 1447.39 45.8805 L1473.96 45.84 Z" fill="#000000" fill-rule="nonzero" fill-opacity="1" /><path clip-path="url(#clip470)" d="M1519.94 34.1734 Q1518.68 33.4443 1517.18 33.1202 Q1515.73 32.7556 1513.94 32.7556 Q1507.62 32.7556 1504.22 36.8875 Q1500.86 40.9789 1500.86 48.6757 L1500.86 72.576 L1493.36 72.576 L1493.36 27.2059 L1500.86 27.2059 L1500.86 34.2544 Q1503.21 30.1225 1506.98 28.1376 Q1510.74 26.1121 1516.13 26.1121 Q1516.9 26.1121 1517.83 26.2337 Q1518.76 26.3147 1519.9 26.5172 L1519.94 34.1734 Z" fill="#000000" fill-rule="nonzero" fill-opacity="1" /><path clip-path="url(#clip470)" d="M1546.07 12.096 L1597.23 12.096 L1597.23 18.9825 L1575.76 18.9825 L1575.76 72.576 L1567.54 72.576 L1567.54 18.9825 L1546.07 18.9825 L1546.07 12.096 Z" fill="#000000" fill-rule="nonzero" fill-opacity="1" /><path clip-path="url(#clip470)" d="M1602.25 27.2059 L1609.71 27.2059 L1609.71 72.576 L1602.25 72.576 L1602.25 27.2059 M1602.25 9.54393 L1609.71 9.54393 L1609.71 18.9825 L1602.25 18.9825 L1602.25 9.54393 Z" fill="#000000" fill-rule="nonzero" fill-opacity="1" /><path clip-path="url(#clip470)" d="M1660.63 35.9153 Q1663.42 30.8922 1667.31 28.5022 Q1671.2 26.1121 1676.47 26.1121 Q1683.55 26.1121 1687.4 31.0947 Q1691.25 36.0368 1691.25 45.1919 L1691.25 72.576 L1683.76 72.576 L1683.76 45.4349 Q1683.76 38.913 1681.45 35.7533 Q1679.14 32.5936 1674.4 32.5936 Q1668.61 32.5936 1665.24 36.4419 Q1661.88 40.2903 1661.88 46.9338 L1661.88 72.576 L1654.39 72.576 L1654.39 45.4349 Q1654.39 38.8725 1652.08 35.7533 Q1649.77 32.5936 1644.95 32.5936 Q1639.24 32.5936 1635.88 36.4824 Q1632.51 40.3308 1632.51 46.9338 L1632.51 72.576 L1625.02 72.576 L1625.02 27.2059 L1632.51 27.2059 L1632.51 34.2544 Q1635.07 30.082 1638.63 28.0971 Q1642.19 26.1121 1647.1 26.1121 Q1652.04 26.1121 1655.48 28.6237 Q1658.97 31.1352 1660.63 35.9153 Z" fill="#000000" fill-rule="nonzero" fill-opacity="1" /><path clip-path="url(#clip470)" d="M1744.93 48.0275 L1744.93 51.6733 L1710.65 51.6733 Q1711.14 59.3701 1715.27 63.421 Q1719.45 67.4314 1726.86 67.4314 Q1731.15 67.4314 1735.16 66.3781 Q1739.21 65.3249 1743.18 63.2184 L1743.18 70.267 Q1739.17 71.9684 1734.96 72.8596 Q1730.75 73.7508 1726.41 73.7508 Q1715.56 73.7508 1709.2 67.4314 Q1702.88 61.1119 1702.88 50.3365 Q1702.88 39.1965 1708.87 32.6746 Q1714.91 26.1121 1725.12 26.1121 Q1734.27 26.1121 1739.58 32.0264 Q1744.93 37.9003 1744.93 48.0275 M1737.47 45.84 Q1737.39 39.7232 1734.03 36.0774 Q1730.71 32.4315 1725.2 32.4315 Q1718.96 32.4315 1715.19 35.9558 Q1711.47 39.4801 1710.9 45.8805 L1737.47 45.84 Z" fill="#000000" fill-rule="nonzero" fill-opacity="1" /><circle clip-path="url(#clip472)" cx="309.067" cy="1386.4" r="14.4" fill="#009af9" fill-rule="evenodd" fill-opacity="1" stroke="#000000" stroke-opacity="1" stroke-width="3.2"/>
<circle clip-path="url(#clip472)" cx="391.74" cy="1374.69" r="14.4" fill="#009af9" fill-rule="evenodd" fill-opacity="1" stroke="#000000" stroke-opacity="1" stroke-width="3.2"/>
<circle clip-path="url(#clip472)" cx="474.414" cy="1223.77" r="14.4" fill="#009af9" fill-rule="evenodd" fill-opacity="1" stroke="#000000" stroke-opacity="1" stroke-width="3.2"/>
<circle clip-path="url(#clip472)" cx="557.087" cy="991.817" r="14.4" fill="#009af9" fill-rule="evenodd" fill-opacity="1" stroke="#000000" stroke-opacity="1" stroke-width="3.2"/>
<circle clip-path="url(#clip472)" cx="639.761" cy="780.294" r="14.4" fill="#009af9" fill-rule="evenodd" fill-opacity="1" stroke="#000000" stroke-opacity="1" stroke-width="3.2"/>
<circle clip-path="url(#clip472)" cx="722.434" cy="613.797" r="14.4" fill="#009af9" fill-rule="evenodd" fill-opacity="1" stroke="#000000" stroke-opacity="1" stroke-width="3.2"/>
<circle clip-path="url(#clip472)" cx="805.108" cy="489.354" r="14.4" fill="#009af9" fill-rule="evenodd" fill-opacity="1" stroke="#000000" stroke-opacity="1" stroke-width="3.2"/>
<circle clip-path="url(#clip472)" cx="887.781" cy="397.999" r="14.4" fill="#009af9" fill-rule="evenodd" fill-opacity="1" stroke="#000000" stroke-opacity="1" stroke-width="3.2"/>
<circle clip-path="url(#clip472)" cx="970.455" cy="331.145" r="14.4" fill="#009af9" fill-rule="evenodd" fill-opacity="1" stroke="#000000" stroke-opacity="1" stroke-width="3.2"/>
<circle clip-path="url(#clip472)" cx="1053.13" cy="282.35" r="14.4" fill="#009af9" fill-rule="evenodd" fill-opacity="1" stroke="#000000" stroke-opacity="1" stroke-width="3.2"/>
<circle clip-path="url(#clip472)" cx="1135.8" cy="246.533" r="14.4" fill="#009af9" fill-rule="evenodd" fill-opacity="1" stroke="#000000" stroke-opacity="1" stroke-width="3.2"/>
<circle clip-path="url(#clip472)" cx="1218.48" cy="220.099" r="14.4" fill="#009af9" fill-rule="evenodd" fill-opacity="1" stroke="#000000" stroke-opacity="1" stroke-width="3.2"/>
<circle clip-path="url(#clip472)" cx="1301.15" cy="200.587" r="14.4" fill="#009af9" fill-rule="evenodd" fill-opacity="1" stroke="#000000" stroke-opacity="1" stroke-width="3.2"/>
<circle clip-path="url(#clip472)" cx="1383.82" cy="185.993" r="14.4" fill="#009af9" fill-rule="evenodd" fill-opacity="1" stroke="#000000" stroke-opacity="1" stroke-width="3.2"/>
<circle clip-path="url(#clip472)" cx="1466.5" cy="175.023" r="14.4" fill="#009af9" fill-rule="evenodd" fill-opacity="1" stroke="#000000" stroke-opacity="1" stroke-width="3.2"/>
<circle clip-path="url(#clip472)" cx="1549.17" cy="166.709" r="14.4" fill="#009af9" fill-rule="evenodd" fill-opacity="1" stroke="#000000" stroke-opacity="1" stroke-width="3.2"/>
<circle clip-path="url(#clip472)" cx="1631.84" cy="160.256" r="14.4" fill="#009af9" fill-rule="evenodd" fill-opacity="1" stroke="#000000" stroke-opacity="1" stroke-width="3.2"/>
<polyline clip-path="url(#clip472)" style="stroke:#e26f46; stroke-linecap:round; stroke-linejoin:round; stroke-width:4; stroke-opacity:1; fill:none" points="319.038,1386.4 329.008,1386.4 338.979,1386.4 348.95,1386.4 358.92,1386.4 368.891,1386.4 378.862,1386.4 388.832,1386.4 398.803,1386.39 408.774,1386.39 418.744,1386.37 428.715,1386.33 438.686,1386.23 448.656,1386.06 458.627,1385.75 468.598,1385.26 478.568,1384.53 488.539,1383.51 498.51,1382.13 508.48,1380.35 518.451,1378.1 528.422,1375.37 538.392,1372.1 548.363,1368.27 558.334,1363.88 568.304,1358.9 578.275,1353.33 588.246,1347.19 598.216,1340.48 608.187,1333.21 618.158,1325.4 628.129,1317.09 638.099,1308.28 648.07,1299 658.041,1289.3 668.011,1279.19 677.982,1268.7 687.953,1257.86 697.923,1246.7 707.894,1235.26 717.865,1223.55 727.835,1211.62 737.806,1199.47 747.777,1187.14 757.747,1174.66 767.718,1162.04 777.689,1149.3 787.659,1136.48 797.63,1123.58 807.601,1110.63 817.571,1097.65 827.542,1084.64 837.513,1071.63 847.483,1058.63 857.454,1045.65 867.425,1032.71 877.395,1019.81 887.366,1006.97 897.337,994.191 907.307,981.489 917.278,968.868 927.249,956.337 937.219,943.903 947.19,931.57 957.161,919.345 967.131,907.233 977.102,895.238 987.073,883.363 997.043,871.614 1007.01,859.991 1016.98,848.499 1026.96,837.139 1036.93,825.913 1046.9,814.824 1056.87,803.872 1066.84,793.059 1076.81,782.386 1086.78,771.852 1096.75,761.459 1106.72,751.208 1116.69,741.097 1126.66,731.126 1136.63,721.297 1146.6,711.608 1156.57,702.058 1166.54,692.647 1176.52,683.375 1186.49,674.24 1196.46,665.242 1206.43,656.379 1216.4,647.651 1226.37,639.056 1236.34,630.594 1246.31,622.262 1256.28,614.06 1266.25,605.986 1276.22,598.039 1286.19,590.218 1296.16,582.521 1306.13,574.946 1316.1,567.492 1326.08,560.159 1336.05,552.943 1346.02,545.844 1355.99,538.86 1365.96,531.99 1375.93,525.231 1385.9,518.584 1395.87,512.045 1405.84,505.613 1415.81,499.288 1425.78,493.067 1435.75,486.949 1445.72,480.932 1455.69,475.016 1465.67,469.197 1475.64,463.476 1485.61,457.85 1495.58,452.317 1505.55,446.878 1515.52,441.53 1525.49,436.271 1535.46,431.1 1545.43,426.017 1555.4,421.019 1565.37,416.105 1575.34,411.274 1585.31,406.525 1595.28,401.856 1605.25,397.265 1615.23,392.753 1625.2,388.316 1635.17,383.955 1645.14,379.668 1655.11,375.454 1665.08,371.311 1675.05,367.238 1685.02,363.235 1694.99,359.299 1704.96,355.431 1714.93,351.628 1724.9,347.89 1734.87,344.216 1744.84,340.604 1754.81,337.054 1764.79,333.565 1774.76,330.135 1784.73,326.763 1794.7,323.449 1804.67,320.191 1814.64,316.989 1824.61,313.842 1834.58,310.749 1844.55,307.708 1854.52,304.719 1864.49,301.782 1874.46,298.894 1884.43,296.056 1894.4,293.267 1904.37,290.525 1914.35,287.83 1924.32,285.181 1934.29,282.578 1944.26,280.019 1954.23,277.504 1964.2,275.032 1974.17,272.602 1984.14,270.214 1994.11,267.867 2004.08,265.56 2014.05,263.292 2024.02,261.063 2033.99,258.873 2043.96,256.72 2053.93,254.604 2063.91,252.524 2073.88,250.48 2083.85,248.47 2093.82,246.496 2103.79,244.555 2113.76,242.647 2123.73,240.772 2133.7,238.929 2143.67,237.118 2153.64,235.338 2163.61,233.588 2173.58,231.868 2183.55,230.178 2193.52,228.517 2203.49,226.884 2213.47,225.279 2223.44,223.702 2233.41,222.152 2243.38,220.628 2253.35,219.131 2263.32,217.659 2273.29,216.213 2283.26,214.791 2293.23,213.393 "/>
<path clip-path="url(#clip470)" d="M1277.05 1379.86 L2282.65 1379.86 L2282.65 1224.34 L1277.05 1224.34  Z" fill="#ffffff" fill-rule="evenodd" fill-opacity="1"/>
<polyline clip-path="url(#clip470)" style="stroke:#000000; stroke-linecap:round; stroke-linejoin:round; stroke-width:4; stroke-opacity:1; fill:none" points="1277.05,1379.86 2282.65,1379.86 2282.65,1224.34 1277.05,1224.34 1277.05,1379.86 "/>
<circle clip-path="url(#clip470)" cx="1370.53" cy="1276.18" r="20.48" fill="#009af9" fill-rule="evenodd" fill-opacity="1" stroke="#000000" stroke-opacity="1" stroke-width="4.55111"/>
<path clip-path="url(#clip470)" d="M1471.41 1260.17 L1471.41 1267.53 L1480.19 1267.53 L1480.19 1270.84 L1471.41 1270.84 L1471.41 1284.91 Q1471.41 1288.09 1472.27 1288.99 Q1473.15 1289.89 1475.81 1289.89 L1480.19 1289.89 L1480.19 1293.46 L1475.81 1293.46 Q1470.88 1293.46 1469.01 1291.63 Q1467.13 1289.78 1467.13 1284.91 L1467.13 1270.84 L1464.01 1270.84 L1464.01 1267.53 L1467.13 1267.53 L1467.13 1260.17 L1471.41 1260.17 Z" fill="#000000" fill-rule="nonzero" fill-opacity="1" /><path clip-path="url(#clip470)" d="M1500.81 1271.51 Q1500.09 1271.1 1499.24 1270.91 Q1498.4 1270.7 1497.39 1270.7 Q1493.77 1270.7 1491.83 1273.06 Q1489.91 1275.4 1489.91 1279.8 L1489.91 1293.46 L1485.63 1293.46 L1485.63 1267.53 L1489.91 1267.53 L1489.91 1271.56 Q1491.25 1269.2 1493.4 1268.06 Q1495.56 1266.91 1498.64 1266.91 Q1499.08 1266.91 1499.61 1266.97 Q1500.14 1267.02 1500.79 1267.14 L1500.81 1271.51 Z" fill="#000000" fill-rule="nonzero" fill-opacity="1" /><path clip-path="url(#clip470)" d="M1517.06 1280.42 Q1511.9 1280.42 1509.91 1281.6 Q1507.92 1282.79 1507.92 1285.63 Q1507.92 1287.9 1509.4 1289.24 Q1510.9 1290.56 1513.47 1290.56 Q1517.02 1290.56 1519.14 1288.06 Q1521.3 1285.54 1521.3 1281.37 L1521.3 1280.42 L1517.06 1280.42 M1525.56 1278.66 L1525.56 1293.46 L1521.3 1293.46 L1521.3 1289.52 Q1519.84 1291.88 1517.66 1293.02 Q1515.49 1294.13 1512.34 1294.13 Q1508.36 1294.13 1506 1291.91 Q1503.66 1289.66 1503.66 1285.91 Q1503.66 1281.54 1506.58 1279.31 Q1509.52 1277.09 1515.33 1277.09 L1521.3 1277.09 L1521.3 1276.67 Q1521.3 1273.73 1519.35 1272.14 Q1517.43 1270.52 1513.94 1270.52 Q1511.71 1270.52 1509.61 1271.05 Q1507.5 1271.58 1505.56 1272.65 L1505.56 1268.71 Q1507.89 1267.81 1510.09 1267.37 Q1512.29 1266.91 1514.38 1266.91 Q1520 1266.91 1522.78 1269.82 Q1525.56 1272.74 1525.56 1278.66 Z" fill="#000000" fill-rule="nonzero" fill-opacity="1" /><path clip-path="url(#clip470)" d="M1555.88 1277.81 L1555.88 1293.46 L1551.62 1293.46 L1551.62 1277.95 Q1551.62 1274.27 1550.19 1272.44 Q1548.75 1270.61 1545.88 1270.61 Q1542.43 1270.61 1540.44 1272.81 Q1538.45 1275.01 1538.45 1278.8 L1538.45 1293.46 L1534.17 1293.46 L1534.17 1267.53 L1538.45 1267.53 L1538.45 1271.56 Q1539.98 1269.22 1542.04 1268.06 Q1544.12 1266.91 1546.83 1266.91 Q1551.3 1266.91 1553.59 1269.68 Q1555.88 1272.44 1555.88 1277.81 Z" fill="#000000" fill-rule="nonzero" fill-opacity="1" /><path clip-path="url(#clip470)" d="M1580.9 1268.29 L1580.9 1272.32 Q1579.1 1271.4 1577.15 1270.93 Q1575.21 1270.47 1573.13 1270.47 Q1569.95 1270.47 1568.36 1271.44 Q1566.78 1272.41 1566.78 1274.36 Q1566.78 1275.84 1567.92 1276.7 Q1569.05 1277.53 1572.48 1278.29 L1573.94 1278.62 Q1578.47 1279.59 1580.37 1281.37 Q1582.29 1283.13 1582.29 1286.3 Q1582.29 1289.91 1579.42 1292.02 Q1576.58 1294.13 1571.58 1294.13 Q1569.49 1294.13 1567.22 1293.71 Q1564.98 1293.32 1562.48 1292.51 L1562.48 1288.11 Q1564.84 1289.34 1567.13 1289.96 Q1569.42 1290.56 1571.67 1290.56 Q1574.68 1290.56 1576.3 1289.54 Q1577.92 1288.5 1577.92 1286.63 Q1577.92 1284.89 1576.74 1283.97 Q1575.58 1283.04 1571.62 1282.18 L1570.14 1281.84 Q1566.18 1281 1564.42 1279.29 Q1562.66 1277.55 1562.66 1274.54 Q1562.66 1270.89 1565.26 1268.9 Q1567.85 1266.91 1572.62 1266.91 Q1574.98 1266.91 1577.06 1267.25 Q1579.14 1267.6 1580.9 1268.29 Z" fill="#000000" fill-rule="nonzero" fill-opacity="1" /><path clip-path="url(#clip470)" d="M1589.07 1267.53 L1593.33 1267.53 L1593.33 1293.46 L1589.07 1293.46 L1589.07 1267.53 M1589.07 1257.44 L1593.33 1257.44 L1593.33 1262.83 L1589.07 1262.83 L1589.07 1257.44 Z" fill="#000000" fill-rule="nonzero" fill-opacity="1" /><path clip-path="url(#clip470)" d="M1624.42 1279.43 L1624.42 1281.51 L1604.84 1281.51 Q1605.12 1285.91 1607.48 1288.22 Q1609.86 1290.52 1614.1 1290.52 Q1616.55 1290.52 1618.84 1289.91 Q1621.16 1289.31 1623.43 1288.11 L1623.43 1292.14 Q1621.14 1293.11 1618.73 1293.62 Q1616.32 1294.13 1613.84 1294.13 Q1607.64 1294.13 1604.01 1290.52 Q1600.39 1286.91 1600.39 1280.75 Q1600.39 1274.38 1603.82 1270.66 Q1607.27 1266.91 1613.1 1266.91 Q1618.33 1266.91 1621.37 1270.29 Q1624.42 1273.64 1624.42 1279.43 M1620.16 1278.18 Q1620.12 1274.68 1618.2 1272.6 Q1616.3 1270.52 1613.15 1270.52 Q1609.58 1270.52 1607.43 1272.53 Q1605.3 1274.54 1604.98 1278.2 L1620.16 1278.18 Z" fill="#000000" fill-rule="nonzero" fill-opacity="1" /><path clip-path="url(#clip470)" d="M1652.96 1277.81 L1652.96 1293.46 L1648.7 1293.46 L1648.7 1277.95 Q1648.7 1274.27 1647.27 1272.44 Q1645.83 1270.61 1642.96 1270.61 Q1639.51 1270.61 1637.52 1272.81 Q1635.53 1275.01 1635.53 1278.8 L1635.53 1293.46 L1631.25 1293.46 L1631.25 1267.53 L1635.53 1267.53 L1635.53 1271.56 Q1637.06 1269.22 1639.12 1268.06 Q1641.2 1266.91 1643.91 1266.91 Q1648.38 1266.91 1650.67 1269.68 Q1652.96 1272.44 1652.96 1277.81 Z" fill="#000000" fill-rule="nonzero" fill-opacity="1" /><path clip-path="url(#clip470)" d="M1665.67 1260.17 L1665.67 1267.53 L1674.44 1267.53 L1674.44 1270.84 L1665.67 1270.84 L1665.67 1284.91 Q1665.67 1288.09 1666.53 1288.99 Q1667.41 1289.89 1670.07 1289.89 L1674.44 1289.89 L1674.44 1293.46 L1670.07 1293.46 Q1665.14 1293.46 1663.26 1291.63 Q1661.39 1289.78 1661.39 1284.91 L1661.39 1270.84 L1658.26 1270.84 L1658.26 1267.53 L1661.39 1267.53 L1661.39 1260.17 L1665.67 1260.17 Z" fill="#000000" fill-rule="nonzero" fill-opacity="1" /><path clip-path="url(#clip470)" d="M1705.35 1257.48 Q1702.25 1262.81 1700.74 1268.02 Q1699.24 1273.22 1699.24 1278.57 Q1699.24 1283.92 1700.74 1289.17 Q1702.27 1294.41 1705.35 1299.71 L1701.64 1299.71 Q1698.17 1294.27 1696.44 1289.01 Q1694.72 1283.76 1694.72 1278.57 Q1694.72 1273.41 1696.44 1268.18 Q1698.15 1262.95 1701.64 1257.48 L1705.35 1257.48 Z" fill="#000000" fill-rule="nonzero" fill-opacity="1" /><path clip-path="url(#clip470)" d="M1717.73 1289.57 L1717.73 1303.32 L1713.45 1303.32 L1713.45 1267.53 L1717.73 1267.53 L1717.73 1271.47 Q1719.07 1269.15 1721.11 1268.04 Q1723.17 1266.91 1726.02 1266.91 Q1730.74 1266.91 1733.68 1270.66 Q1736.64 1274.41 1736.64 1280.52 Q1736.64 1286.63 1733.68 1290.38 Q1730.74 1294.13 1726.02 1294.13 Q1723.17 1294.13 1721.11 1293.02 Q1719.07 1291.88 1717.73 1289.57 M1732.22 1280.52 Q1732.22 1275.82 1730.28 1273.16 Q1728.36 1270.47 1724.98 1270.47 Q1721.6 1270.47 1719.65 1273.16 Q1717.73 1275.82 1717.73 1280.52 Q1717.73 1285.22 1719.65 1287.9 Q1721.6 1290.56 1724.98 1290.56 Q1728.36 1290.56 1730.28 1287.9 Q1732.22 1285.22 1732.22 1280.52 Z" fill="#000000" fill-rule="nonzero" fill-opacity="1" /><path clip-path="url(#clip470)" d="M1753.75 1270.52 Q1750.32 1270.52 1748.33 1273.2 Q1746.34 1275.86 1746.34 1280.52 Q1746.34 1285.17 1748.31 1287.85 Q1750.3 1290.52 1753.75 1290.52 Q1757.15 1290.52 1759.14 1287.83 Q1761.13 1285.15 1761.13 1280.52 Q1761.13 1275.91 1759.14 1273.22 Q1757.15 1270.52 1753.75 1270.52 M1753.75 1266.91 Q1759.31 1266.91 1762.48 1270.52 Q1765.65 1274.13 1765.65 1280.52 Q1765.65 1286.88 1762.48 1290.52 Q1759.31 1294.13 1753.75 1294.13 Q1748.17 1294.13 1745 1290.52 Q1741.85 1286.88 1741.85 1280.52 Q1741.85 1274.13 1745 1270.52 Q1748.17 1266.91 1753.75 1266.91 Z" fill="#000000" fill-rule="nonzero" fill-opacity="1" /><path clip-path="url(#clip470)" d="M1787.73 1271.51 Q1787.01 1271.1 1786.16 1270.91 Q1785.32 1270.7 1784.31 1270.7 Q1780.69 1270.7 1778.75 1273.06 Q1776.83 1275.4 1776.83 1279.8 L1776.83 1293.46 L1772.55 1293.46 L1772.55 1267.53 L1776.83 1267.53 L1776.83 1271.56 Q1778.17 1269.2 1780.32 1268.06 Q1782.48 1266.91 1785.56 1266.91 Q1786 1266.91 1786.53 1266.97 Q1787.06 1267.02 1787.71 1267.14 L1787.73 1271.51 Z" fill="#000000" fill-rule="nonzero" fill-opacity="1" /><path clip-path="url(#clip470)" d="M1801.2 1270.52 Q1797.78 1270.52 1795.79 1273.2 Q1793.8 1275.86 1793.8 1280.52 Q1793.8 1285.17 1795.76 1287.85 Q1797.75 1290.52 1801.2 1290.52 Q1804.61 1290.52 1806.6 1287.83 Q1808.59 1285.15 1808.59 1280.52 Q1808.59 1275.91 1806.6 1273.22 Q1804.61 1270.52 1801.2 1270.52 M1801.2 1266.91 Q1806.76 1266.91 1809.93 1270.52 Q1813.1 1274.13 1813.1 1280.52 Q1813.1 1286.88 1809.93 1290.52 Q1806.76 1294.13 1801.2 1294.13 Q1795.62 1294.13 1792.45 1290.52 Q1789.31 1286.88 1789.31 1280.52 Q1789.31 1274.13 1792.45 1270.52 Q1795.62 1266.91 1801.2 1266.91 Z" fill="#000000" fill-rule="nonzero" fill-opacity="1" /><path clip-path="url(#clip470)" d="M1819.72 1283.22 L1819.72 1267.53 L1823.98 1267.53 L1823.98 1283.06 Q1823.98 1286.74 1825.42 1288.6 Q1826.85 1290.42 1829.72 1290.42 Q1833.17 1290.42 1835.16 1288.22 Q1837.18 1286.03 1837.18 1282.23 L1837.18 1267.53 L1841.43 1267.53 L1841.43 1293.46 L1837.18 1293.46 L1837.18 1289.47 Q1835.62 1291.84 1833.56 1292.99 Q1831.53 1294.13 1828.82 1294.13 Q1824.35 1294.13 1822.04 1291.35 Q1819.72 1288.57 1819.72 1283.22 M1830.44 1266.91 L1830.44 1266.91 Z" fill="#000000" fill-rule="nonzero" fill-opacity="1" /><path clip-path="url(#clip470)" d="M1866.74 1268.29 L1866.74 1272.32 Q1864.93 1271.4 1862.99 1270.93 Q1861.04 1270.47 1858.96 1270.47 Q1855.79 1270.47 1854.19 1271.44 Q1852.62 1272.41 1852.62 1274.36 Q1852.62 1275.84 1853.75 1276.7 Q1854.88 1277.53 1858.31 1278.29 L1859.77 1278.62 Q1864.3 1279.59 1866.2 1281.37 Q1868.12 1283.13 1868.12 1286.3 Q1868.12 1289.91 1865.25 1292.02 Q1862.41 1294.13 1857.41 1294.13 Q1855.32 1294.13 1853.06 1293.71 Q1850.81 1293.32 1848.31 1292.51 L1848.31 1288.11 Q1850.67 1289.34 1852.96 1289.96 Q1855.25 1290.56 1857.5 1290.56 Q1860.51 1290.56 1862.13 1289.54 Q1863.75 1288.5 1863.75 1286.63 Q1863.75 1284.89 1862.57 1283.97 Q1861.41 1283.04 1857.45 1282.18 L1855.97 1281.84 Q1852.01 1281 1850.25 1279.29 Q1848.49 1277.55 1848.49 1274.54 Q1848.49 1270.89 1851.09 1268.9 Q1853.68 1266.91 1858.45 1266.91 Q1860.81 1266.91 1862.89 1267.25 Q1864.98 1267.6 1866.74 1268.29 Z" fill="#000000" fill-rule="nonzero" fill-opacity="1" /><path clip-path="url(#clip470)" d="M1889.98 1267.53 L1894.24 1267.53 L1894.24 1293.46 L1889.98 1293.46 L1889.98 1267.53 M1889.98 1257.44 L1894.24 1257.44 L1894.24 1262.83 L1889.98 1262.83 L1889.98 1257.44 Z" fill="#000000" fill-rule="nonzero" fill-opacity="1" /><path clip-path="url(#clip470)" d="M1923.33 1272.51 Q1924.93 1269.64 1927.15 1268.27 Q1929.37 1266.91 1932.38 1266.91 Q1936.43 1266.91 1938.63 1269.75 Q1940.83 1272.58 1940.83 1277.81 L1940.83 1293.46 L1936.55 1293.46 L1936.55 1277.95 Q1936.55 1274.22 1935.23 1272.41 Q1933.91 1270.61 1931.2 1270.61 Q1927.89 1270.61 1925.97 1272.81 Q1924.05 1275.01 1924.05 1278.8 L1924.05 1293.46 L1919.77 1293.46 L1919.77 1277.95 Q1919.77 1274.2 1918.45 1272.41 Q1917.13 1270.61 1914.37 1270.61 Q1911.11 1270.61 1909.19 1272.83 Q1907.27 1275.03 1907.27 1278.8 L1907.27 1293.46 L1902.99 1293.46 L1902.99 1267.53 L1907.27 1267.53 L1907.27 1271.56 Q1908.73 1269.17 1910.76 1268.04 Q1912.8 1266.91 1915.6 1266.91 Q1918.43 1266.91 1920.39 1268.34 Q1922.38 1269.78 1923.33 1272.51 Z" fill="#000000" fill-rule="nonzero" fill-opacity="1" /><path clip-path="url(#clip470)" d="M1961.11 1280.42 Q1955.95 1280.42 1953.96 1281.6 Q1951.97 1282.79 1951.97 1285.63 Q1951.97 1287.9 1953.45 1289.24 Q1954.95 1290.56 1957.52 1290.56 Q1961.06 1290.56 1963.19 1288.06 Q1965.35 1285.54 1965.35 1281.37 L1965.35 1280.42 L1961.11 1280.42 M1969.61 1278.66 L1969.61 1293.46 L1965.35 1293.46 L1965.35 1289.52 Q1963.89 1291.88 1961.71 1293.02 Q1959.54 1294.13 1956.39 1294.13 Q1952.41 1294.13 1950.05 1291.91 Q1947.71 1289.66 1947.71 1285.91 Q1947.71 1281.54 1950.62 1279.31 Q1953.56 1277.09 1959.37 1277.09 L1965.35 1277.09 L1965.35 1276.67 Q1965.35 1273.73 1963.4 1272.14 Q1961.48 1270.52 1957.99 1270.52 Q1955.76 1270.52 1953.66 1271.05 Q1951.55 1271.58 1949.61 1272.65 L1949.61 1268.71 Q1951.94 1267.81 1954.14 1267.37 Q1956.34 1266.91 1958.42 1266.91 Q1964.05 1266.91 1966.83 1269.82 Q1969.61 1272.74 1969.61 1278.66 Z" fill="#000000" fill-rule="nonzero" fill-opacity="1" /><path clip-path="url(#clip470)" d="M1995.44 1280.19 Q1995.44 1275.56 1993.52 1273.02 Q1991.62 1270.47 1988.17 1270.47 Q1984.74 1270.47 1982.82 1273.02 Q1980.92 1275.56 1980.92 1280.19 Q1980.92 1284.8 1982.82 1287.35 Q1984.74 1289.89 1988.17 1289.89 Q1991.62 1289.89 1993.52 1287.35 Q1995.44 1284.8 1995.44 1280.19 M1999.7 1290.24 Q1999.7 1296.86 1996.76 1300.08 Q1993.82 1303.32 1987.75 1303.32 Q1985.51 1303.32 1983.52 1302.97 Q1981.53 1302.65 1979.65 1301.95 L1979.65 1297.81 Q1981.53 1298.83 1983.36 1299.31 Q1985.18 1299.8 1987.08 1299.8 Q1991.27 1299.8 1993.36 1297.6 Q1995.44 1295.42 1995.44 1291 L1995.44 1288.9 Q1994.12 1291.19 1992.06 1292.32 Q1990 1293.46 1987.13 1293.46 Q1982.36 1293.46 1979.44 1289.82 Q1976.53 1286.19 1976.53 1280.19 Q1976.53 1274.17 1979.44 1270.54 Q1982.36 1266.91 1987.13 1266.91 Q1990 1266.91 1992.06 1268.04 Q1994.12 1269.17 1995.44 1271.47 L1995.44 1267.53 L1999.7 1267.53 L1999.7 1290.24 Z" fill="#000000" fill-rule="nonzero" fill-opacity="1" /><path clip-path="url(#clip470)" d="M2030.65 1279.43 L2030.65 1281.51 L2011.06 1281.51 Q2011.34 1285.91 2013.7 1288.22 Q2016.09 1290.52 2020.32 1290.52 Q2022.78 1290.52 2025.07 1289.91 Q2027.38 1289.31 2029.65 1288.11 L2029.65 1292.14 Q2027.36 1293.11 2024.95 1293.62 Q2022.54 1294.13 2020.07 1294.13 Q2013.86 1294.13 2010.23 1290.52 Q2006.62 1286.91 2006.62 1280.75 Q2006.62 1274.38 2010.04 1270.66 Q2013.49 1266.91 2019.33 1266.91 Q2024.56 1266.91 2027.59 1270.29 Q2030.65 1273.64 2030.65 1279.43 M2026.39 1278.18 Q2026.34 1274.68 2024.42 1272.6 Q2022.52 1270.52 2019.37 1270.52 Q2015.81 1270.52 2013.66 1272.53 Q2011.53 1274.54 2011.2 1278.2 L2026.39 1278.18 Z" fill="#000000" fill-rule="nonzero" fill-opacity="1" /><path clip-path="url(#clip470)" d="M2036.97 1257.48 L2040.67 1257.48 Q2044.14 1262.95 2045.85 1268.18 Q2047.59 1273.41 2047.59 1278.57 Q2047.59 1283.76 2045.85 1289.01 Q2044.14 1294.27 2040.67 1299.71 L2036.97 1299.71 Q2040.04 1294.41 2041.55 1289.17 Q2043.08 1283.92 2043.08 1278.57 Q2043.08 1273.22 2041.55 1268.02 Q2040.04 1262.81 2036.97 1257.48 Z" fill="#000000" fill-rule="nonzero" fill-opacity="1" /><polyline clip-path="url(#clip470)" style="stroke:#e26f46; stroke-linecap:round; stroke-linejoin:round; stroke-width:4; stroke-opacity:1; fill:none" points="1300.42,1328.02 1440.64,1328.02 "/>
<path clip-path="url(#clip470)" d="M1485.72 1329.65 L1485.72 1345.3 L1481.46 1345.3 L1481.46 1329.79 Q1481.46 1326.11 1480.02 1324.28 Q1478.59 1322.45 1475.72 1322.45 Q1472.27 1322.45 1470.28 1324.65 Q1468.29 1326.85 1468.29 1330.64 L1468.29 1345.3 L1464.01 1345.3 L1464.01 1309.28 L1468.29 1309.28 L1468.29 1323.4 Q1469.82 1321.06 1471.88 1319.9 Q1473.96 1318.75 1476.67 1318.75 Q1481.14 1318.75 1483.43 1321.52 Q1485.72 1324.28 1485.72 1329.65 Z" fill="#000000" fill-rule="nonzero" fill-opacity="1" /><path clip-path="url(#clip470)" d="M1504.26 1322.36 Q1500.83 1322.36 1498.84 1325.04 Q1496.85 1327.7 1496.85 1332.36 Q1496.85 1337.01 1498.82 1339.69 Q1500.81 1342.36 1504.26 1342.36 Q1507.66 1342.36 1509.65 1339.67 Q1511.64 1336.99 1511.64 1332.36 Q1511.64 1327.75 1509.65 1325.06 Q1507.66 1322.36 1504.26 1322.36 M1504.26 1318.75 Q1509.82 1318.75 1512.99 1322.36 Q1516.16 1325.97 1516.16 1332.36 Q1516.16 1338.72 1512.99 1342.36 Q1509.82 1345.97 1504.26 1345.97 Q1498.68 1345.97 1495.51 1342.36 Q1492.36 1338.72 1492.36 1332.36 Q1492.36 1325.97 1495.51 1322.36 Q1498.68 1318.75 1504.26 1318.75 Z" fill="#000000" fill-rule="nonzero" fill-opacity="1" /><path clip-path="url(#clip470)" d="M1543.4 1324.35 Q1545 1321.48 1547.22 1320.11 Q1549.45 1318.75 1552.45 1318.75 Q1556.51 1318.75 1558.7 1321.59 Q1560.9 1324.42 1560.9 1329.65 L1560.9 1345.3 L1556.62 1345.3 L1556.62 1329.79 Q1556.62 1326.06 1555.3 1324.25 Q1553.98 1322.45 1551.27 1322.45 Q1547.96 1322.45 1546.04 1324.65 Q1544.12 1326.85 1544.12 1330.64 L1544.12 1345.3 L1539.84 1345.3 L1539.84 1329.79 Q1539.84 1326.04 1538.52 1324.25 Q1537.2 1322.45 1534.45 1322.45 Q1531.18 1322.45 1529.26 1324.67 Q1527.34 1326.87 1527.34 1330.64 L1527.34 1345.3 L1523.06 1345.3 L1523.06 1319.37 L1527.34 1319.37 L1527.34 1323.4 Q1528.8 1321.01 1530.83 1319.88 Q1532.87 1318.75 1535.67 1318.75 Q1538.5 1318.75 1540.46 1320.18 Q1542.45 1321.62 1543.4 1324.35 Z" fill="#000000" fill-rule="nonzero" fill-opacity="1" /><path clip-path="url(#clip470)" d="M1579.45 1322.36 Q1576.02 1322.36 1574.03 1325.04 Q1572.04 1327.7 1572.04 1332.36 Q1572.04 1337.01 1574.01 1339.69 Q1576 1342.36 1579.45 1342.36 Q1582.85 1342.36 1584.84 1339.67 Q1586.83 1336.99 1586.83 1332.36 Q1586.83 1327.75 1584.84 1325.06 Q1582.85 1322.36 1579.45 1322.36 M1579.45 1318.75 Q1585 1318.75 1588.17 1322.36 Q1591.34 1325.97 1591.34 1332.36 Q1591.34 1338.72 1588.17 1342.36 Q1585 1345.97 1579.45 1345.97 Q1573.87 1345.97 1570.7 1342.36 Q1567.55 1338.72 1567.55 1332.36 Q1567.55 1325.97 1570.7 1322.36 Q1573.87 1318.75 1579.45 1318.75 Z" fill="#000000" fill-rule="nonzero" fill-opacity="1" /><path clip-path="url(#clip470)" d="M1615.46 1332.03 Q1615.46 1327.4 1613.54 1324.86 Q1611.64 1322.31 1608.2 1322.31 Q1604.77 1322.31 1602.85 1324.86 Q1600.95 1327.4 1600.95 1332.03 Q1600.95 1336.64 1602.85 1339.19 Q1604.77 1341.73 1608.2 1341.73 Q1611.64 1341.73 1613.54 1339.19 Q1615.46 1336.64 1615.46 1332.03 M1619.72 1342.08 Q1619.72 1348.7 1616.78 1351.92 Q1613.84 1355.16 1607.78 1355.16 Q1605.53 1355.16 1603.54 1354.81 Q1601.55 1354.49 1599.68 1353.79 L1599.68 1349.65 Q1601.55 1350.67 1603.38 1351.15 Q1605.21 1351.64 1607.11 1351.64 Q1611.3 1351.64 1613.38 1349.44 Q1615.46 1347.26 1615.46 1342.84 L1615.46 1340.74 Q1614.14 1343.03 1612.08 1344.16 Q1610.02 1345.3 1607.15 1345.3 Q1602.39 1345.3 1599.47 1341.66 Q1596.55 1338.03 1596.55 1332.03 Q1596.55 1326.01 1599.47 1322.38 Q1602.39 1318.75 1607.15 1318.75 Q1610.02 1318.75 1612.08 1319.88 Q1614.14 1321.01 1615.46 1323.31 L1615.46 1319.37 L1619.72 1319.37 L1619.72 1342.08 Z" fill="#000000" fill-rule="nonzero" fill-opacity="1" /><path clip-path="url(#clip470)" d="M1650.67 1331.27 L1650.67 1333.35 L1631.09 1333.35 Q1631.37 1337.75 1633.73 1340.06 Q1636.11 1342.36 1640.35 1342.36 Q1642.8 1342.36 1645.09 1341.75 Q1647.41 1341.15 1649.68 1339.95 L1649.68 1343.98 Q1647.38 1344.95 1644.98 1345.46 Q1642.57 1345.97 1640.09 1345.97 Q1633.89 1345.97 1630.26 1342.36 Q1626.64 1338.75 1626.64 1332.59 Q1626.64 1326.22 1630.07 1322.5 Q1633.52 1318.75 1639.35 1318.75 Q1644.58 1318.75 1647.62 1322.13 Q1650.67 1325.48 1650.67 1331.27 M1646.41 1330.02 Q1646.37 1326.52 1644.45 1324.44 Q1642.55 1322.36 1639.4 1322.36 Q1635.83 1322.36 1633.68 1324.37 Q1631.55 1326.38 1631.23 1330.04 L1646.41 1330.02 Z" fill="#000000" fill-rule="nonzero" fill-opacity="1" /><path clip-path="url(#clip470)" d="M1679.21 1329.65 L1679.21 1345.3 L1674.95 1345.3 L1674.95 1329.79 Q1674.95 1326.11 1673.52 1324.28 Q1672.08 1322.45 1669.21 1322.45 Q1665.76 1322.45 1663.77 1324.65 Q1661.78 1326.85 1661.78 1330.64 L1661.78 1345.3 L1657.5 1345.3 L1657.5 1319.37 L1661.78 1319.37 L1661.78 1323.4 Q1663.31 1321.06 1665.37 1319.9 Q1667.45 1318.75 1670.16 1318.75 Q1674.63 1318.75 1676.92 1321.52 Q1679.21 1324.28 1679.21 1329.65 Z" fill="#000000" fill-rule="nonzero" fill-opacity="1" /><path clip-path="url(#clip470)" d="M1709.88 1331.27 L1709.88 1333.35 L1690.3 1333.35 Q1690.58 1337.75 1692.94 1340.06 Q1695.32 1342.36 1699.56 1342.36 Q1702.01 1342.36 1704.31 1341.75 Q1706.62 1341.15 1708.89 1339.95 L1708.89 1343.98 Q1706.6 1344.95 1704.19 1345.46 Q1701.78 1345.97 1699.31 1345.97 Q1693.1 1345.97 1689.47 1342.36 Q1685.86 1338.75 1685.86 1332.59 Q1685.86 1326.22 1689.28 1322.5 Q1692.73 1318.75 1698.57 1318.75 Q1703.8 1318.75 1706.83 1322.13 Q1709.88 1325.48 1709.88 1331.27 M1705.63 1330.02 Q1705.58 1326.52 1703.66 1324.44 Q1701.76 1322.36 1698.61 1322.36 Q1695.05 1322.36 1692.89 1324.37 Q1690.76 1326.38 1690.44 1330.04 L1705.63 1330.02 Z" fill="#000000" fill-rule="nonzero" fill-opacity="1" /><path clip-path="url(#clip470)" d="M1726.92 1322.36 Q1723.5 1322.36 1721.5 1325.04 Q1719.51 1327.7 1719.51 1332.36 Q1719.51 1337.01 1721.48 1339.69 Q1723.47 1342.36 1726.92 1342.36 Q1730.32 1342.36 1732.31 1339.67 Q1734.31 1336.99 1734.31 1332.36 Q1734.31 1327.75 1732.31 1325.06 Q1730.32 1322.36 1726.92 1322.36 M1726.92 1318.75 Q1732.48 1318.75 1735.65 1322.36 Q1738.82 1325.97 1738.82 1332.36 Q1738.82 1338.72 1735.65 1342.36 Q1732.48 1345.97 1726.92 1345.97 Q1721.34 1345.97 1718.17 1342.36 Q1715.02 1338.72 1715.02 1332.36 Q1715.02 1325.97 1718.17 1322.36 Q1721.34 1318.75 1726.92 1318.75 Z" fill="#000000" fill-rule="nonzero" fill-opacity="1" /><path clip-path="url(#clip470)" d="M1745.44 1335.06 L1745.44 1319.37 L1749.7 1319.37 L1749.7 1334.9 Q1749.7 1338.58 1751.13 1340.44 Q1752.57 1342.26 1755.44 1342.26 Q1758.89 1342.26 1760.88 1340.06 Q1762.89 1337.87 1762.89 1334.07 L1762.89 1319.37 L1767.15 1319.37 L1767.15 1345.3 L1762.89 1345.3 L1762.89 1341.31 Q1761.34 1343.68 1759.28 1344.83 Q1757.25 1345.97 1754.54 1345.97 Q1750.07 1345.97 1747.75 1343.19 Q1745.44 1340.41 1745.44 1335.06 M1756.16 1318.75 L1756.16 1318.75 Z" fill="#000000" fill-rule="nonzero" fill-opacity="1" /><path clip-path="url(#clip470)" d="M1792.45 1320.13 L1792.45 1324.16 Q1790.65 1323.24 1788.7 1322.77 Q1786.76 1322.31 1784.68 1322.31 Q1781.5 1322.31 1779.91 1323.28 Q1778.33 1324.25 1778.33 1326.2 Q1778.33 1327.68 1779.47 1328.54 Q1780.6 1329.37 1784.03 1330.13 L1785.49 1330.46 Q1790.02 1331.43 1791.92 1333.21 Q1793.84 1334.97 1793.84 1338.14 Q1793.84 1341.75 1790.97 1343.86 Q1788.12 1345.97 1783.12 1345.97 Q1781.04 1345.97 1778.77 1345.55 Q1776.53 1345.16 1774.03 1344.35 L1774.03 1339.95 Q1776.39 1341.18 1778.68 1341.8 Q1780.97 1342.4 1783.22 1342.4 Q1786.23 1342.4 1787.85 1341.38 Q1789.47 1340.34 1789.47 1338.47 Q1789.47 1336.73 1788.29 1335.81 Q1787.13 1334.88 1783.17 1334.02 L1781.69 1333.68 Q1777.73 1332.84 1775.97 1331.13 Q1774.21 1329.39 1774.21 1326.38 Q1774.21 1322.73 1776.81 1320.74 Q1779.4 1318.75 1784.17 1318.75 Q1786.53 1318.75 1788.61 1319.09 Q1790.69 1319.44 1792.45 1320.13 Z" fill="#000000" fill-rule="nonzero" fill-opacity="1" /><path clip-path="url(#clip470)" d="M1825.93 1309.32 Q1822.82 1314.65 1821.32 1319.86 Q1819.81 1325.06 1819.81 1330.41 Q1819.81 1335.76 1821.32 1341.01 Q1822.85 1346.25 1825.93 1351.55 L1822.22 1351.55 Q1818.75 1346.11 1817.01 1340.85 Q1815.3 1335.6 1815.3 1330.41 Q1815.3 1325.25 1817.01 1320.02 Q1818.73 1314.79 1822.22 1309.32 L1825.93 1309.32 Z" fill="#000000" fill-rule="nonzero" fill-opacity="1" /><path clip-path="url(#clip470)" d="M1839.05 1314.58 L1839.05 1341.45 L1844.7 1341.45 Q1851.85 1341.45 1855.16 1338.21 Q1858.49 1334.97 1858.49 1327.98 Q1858.49 1321.04 1855.16 1317.82 Q1851.85 1314.58 1844.7 1314.58 L1839.05 1314.58 M1834.37 1310.74 L1843.98 1310.74 Q1854.03 1310.74 1858.73 1314.93 Q1863.43 1319.09 1863.43 1327.98 Q1863.43 1336.92 1858.7 1341.11 Q1853.98 1345.3 1843.98 1345.3 L1834.37 1345.3 L1834.37 1310.74 Z" fill="#000000" fill-rule="nonzero" fill-opacity="1" /><path clip-path="url(#clip470)" d="M1886.32 1323.77 L1915.99 1323.77 L1915.99 1327.66 L1886.32 1327.66 L1886.32 1323.77 M1886.32 1333.21 L1915.99 1333.21 L1915.99 1337.15 L1886.32 1337.15 L1886.32 1333.21 Z" fill="#000000" fill-rule="nonzero" fill-opacity="1" /><path clip-path="url(#clip470)" d="M1941.97 1341.36 L1949.61 1341.36 L1949.61 1315 L1941.3 1316.66 L1941.3 1312.4 L1949.56 1310.74 L1954.24 1310.74 L1954.24 1341.36 L1961.87 1341.36 L1961.87 1345.3 L1941.97 1345.3 L1941.97 1341.36 Z" fill="#000000" fill-rule="nonzero" fill-opacity="1" /><path clip-path="url(#clip470)" d="M1978.29 1310.74 L1982.22 1310.74 L1970.18 1349.69 L1966.25 1349.69 L1978.29 1310.74 Z" fill="#000000" fill-rule="nonzero" fill-opacity="1" /><path clip-path="url(#clip470)" d="M1999.4 1340.57 Q2000.23 1341.69 2002.73 1341.69 L2004.79 1341.69 L2004.79 1345.3 L2002.22 1345.3 Q1998.05 1345.3 1996.16 1343.07 Q1994.26 1340.81 1994.26 1335.9 L1994.26 1323.63 L1984.54 1323.63 L1984.54 1319.37 L2008.45 1319.37 L2008.45 1323.63 L1998.61 1323.63 L1998.61 1336.15 Q1998.61 1339.51 1999.4 1340.57 Z" fill="#000000" fill-rule="nonzero" fill-opacity="1" /><path clip-path="url(#clip470)" d="M2016.32 1339.42 L2021.2 1339.42 L2021.2 1343.4 L2017.41 1350.81 L2014.42 1350.81 L2016.32 1343.4 L2016.32 1339.42 Z" fill="#000000" fill-rule="nonzero" fill-opacity="1" /><path clip-path="url(#clip470)" d="M2058.08 1340.57 Q2058.91 1341.69 2061.41 1341.69 L2063.47 1341.69 L2063.47 1345.3 L2060.9 1345.3 Q2056.73 1345.3 2054.84 1343.07 Q2052.94 1340.81 2052.94 1335.9 L2052.94 1323.63 L2043.22 1323.63 L2043.22 1319.37 L2067.13 1319.37 L2067.13 1323.63 L2057.29 1323.63 L2057.29 1336.15 Q2057.29 1339.51 2058.08 1340.57 Z" fill="#000000" fill-rule="nonzero" fill-opacity="1" /><path clip-path="url(#clip470)" d="M2089.54 1323.77 L2119.21 1323.77 L2119.21 1327.66 L2089.54 1327.66 L2089.54 1323.77 M2089.54 1333.21 L2119.21 1333.21 L2119.21 1337.15 L2089.54 1337.15 L2089.54 1333.21 Z" fill="#000000" fill-rule="nonzero" fill-opacity="1" /><path clip-path="url(#clip470)" d="M2158.54 1326.66 Q2161.9 1327.38 2163.77 1329.65 Q2165.67 1331.92 2165.67 1335.25 Q2165.67 1340.37 2162.15 1343.17 Q2158.63 1345.97 2152.15 1345.97 Q2149.97 1345.97 2147.66 1345.53 Q2145.37 1345.11 2142.91 1344.25 L2142.91 1339.74 Q2144.86 1340.87 2147.17 1341.45 Q2149.49 1342.03 2152.01 1342.03 Q2156.41 1342.03 2158.7 1340.3 Q2161.02 1338.56 2161.02 1335.25 Q2161.02 1332.19 2158.86 1330.48 Q2156.73 1328.75 2152.91 1328.75 L2148.89 1328.75 L2148.89 1324.9 L2153.1 1324.9 Q2156.55 1324.9 2158.38 1323.54 Q2160.21 1322.15 2160.21 1319.56 Q2160.21 1316.89 2158.31 1315.48 Q2156.43 1314.05 2152.91 1314.05 Q2150.99 1314.05 2148.79 1314.46 Q2146.6 1314.88 2143.96 1315.76 L2143.96 1311.59 Q2146.62 1310.85 2148.93 1310.48 Q2151.27 1310.11 2153.33 1310.11 Q2158.66 1310.11 2161.76 1312.54 Q2164.86 1314.95 2164.86 1319.07 Q2164.86 1321.94 2163.22 1323.93 Q2161.57 1325.9 2158.54 1326.66 Z" fill="#000000" fill-rule="nonzero" fill-opacity="1" /><path clip-path="url(#clip470)" d="M2174.53 1339.42 L2179.42 1339.42 L2179.42 1345.3 L2174.53 1345.3 L2174.53 1339.42 Z" fill="#000000" fill-rule="nonzero" fill-opacity="1" /><path clip-path="url(#clip470)" d="M2202.45 1314.81 L2190.65 1333.26 L2202.45 1333.26 L2202.45 1314.81 M2201.22 1310.74 L2207.1 1310.74 L2207.1 1333.26 L2212.03 1333.26 L2212.03 1337.15 L2207.1 1337.15 L2207.1 1345.3 L2202.45 1345.3 L2202.45 1337.15 L2186.85 1337.15 L2186.85 1332.63 L2201.22 1310.74 Z" fill="#000000" fill-rule="nonzero" fill-opacity="1" /><path clip-path="url(#clip470)" d="M2232.61 1314.81 L2220.81 1333.26 L2232.61 1333.26 L2232.61 1314.81 M2231.39 1310.74 L2237.27 1310.74 L2237.27 1333.26 L2242.2 1333.26 L2242.2 1337.15 L2237.27 1337.15 L2237.27 1345.3 L2232.61 1345.3 L2232.61 1337.15 L2217.01 1337.15 L2217.01 1332.63 L2231.39 1310.74 Z" fill="#000000" fill-rule="nonzero" fill-opacity="1" /><path clip-path="url(#clip470)" d="M2248.65 1309.32 L2252.36 1309.32 Q2255.83 1314.79 2257.54 1320.02 Q2259.28 1325.25 2259.28 1330.41 Q2259.28 1335.6 2257.54 1340.85 Q2255.83 1346.11 2252.36 1351.55 L2248.65 1351.55 Q2251.73 1346.25 2253.24 1341.01 Q2254.77 1335.76 2254.77 1330.41 Q2254.77 1325.06 2253.24 1319.86 Q2251.73 1314.65 2248.65 1309.32 Z" fill="#000000" fill-rule="nonzero" fill-opacity="1" /></svg>
