<?xml version="1.0" encoding="utf-8"?>
<svg xmlns="http://www.w3.org/2000/svg" xmlns:xlink="http://www.w3.org/1999/xlink" width="600" height="400" viewBox="0 0 2400 1600">
<defs>
  <clipPath id="clip420">
    <rect x="0" y="0" width="2400" height="1600"/>
  </clipPath>
</defs>
<path clip-path="url(#clip420)" d="M0 1600 L2400 1600 L2400 0 L0 0  Z" fill="#ffffff" fill-rule="evenodd" fill-opacity="1"/>
<defs>
  <clipPath id="clip421">
    <rect x="141" y="125" width="1972" height="1284"/>
  </clipPath>
</defs>
<path clip-path="url(#clip420)" d="M249.542 1423.18 L2352.76 1423.18 L2352.76 123.472 L249.542 123.472  Z" fill="#ffffff" fill-rule="evenodd" fill-opacity="1"/>
<defs>
  <clipPath id="clip422">
    <rect x="249" y="123" width="2104" height="1301"/>
  </clipPath>
</defs>
<polyline clip-path="url(#clip422)" style="stroke:#000000; stroke-linecap:round; stroke-linejoin:round; stroke-width:2; stroke-opacity:0.1; fill:none" points="309.067,1423.18 309.067,123.472 "/>
<polyline clip-path="url(#clip422)" style="stroke:#000000; stroke-linecap:round; stroke-linejoin:round; stroke-width:2; stroke-opacity:0.1; fill:none" points="722.434,1423.18 722.434,123.472 "/>
<polyline clip-path="url(#clip422)" style="stroke:#000000; stroke-linecap:round; stroke-linejoin:round; stroke-width:2; stroke-opacity:0.1; fill:none" points="1135.8,1423.18 1135.8,123.472 "/>
<polyline clip-path="url(#clip422)" style="stroke:#000000; stroke-linecap:round; stroke-linejoin:round; stroke-width:2; stroke-opacity:0.1; fill:none" points="1549.17,1423.18 1549.17,123.472 "/>
<polyline clip-path="url(#clip422)" style="stroke:#000000; stroke-linecap:round; stroke-linejoin:round; stroke-width:2; stroke-opacity:0.1; fill:none" points="1962.54,1423.18 1962.54,123.472 "/>
<polyline clip-path="url(#clip422)" style="stroke:#000000; stroke-linecap:round; stroke-linejoin:round; stroke-width:2; stroke-opacity:0.1; fill:none" points="249.542,1386.4 2352.76,1386.4 "/>
<polyline clip-path="url(#clip422)" style="stroke:#000000; stroke-linecap:round; stroke-linejoin:round; stroke-width:2; stroke-opacity:0.1; fill:none" points="249.542,1049.25 2352.76,1049.25 "/>
<polyline clip-path="url(#clip422)" style="stroke:#000000; stroke-linecap:round; stroke-linejoin:round; stroke-width:2; stroke-opacity:0.1; fill:none" points="249.542,712.098 2352.76,712.098 "/>
<polyline clip-path="url(#clip422)" style="stroke:#000000; stroke-linecap:round; stroke-linejoin:round; stroke-width:2; stroke-opacity:0.1; fill:none" points="249.542,374.95 2352.76,374.95 "/>
<polyline clip-path="url(#clip420)" style="stroke:#000000; stroke-linecap:round; stroke-linejoin:round; stroke-width:4; stroke-opacity:1; fill:none" points="249.542,1423.18 2352.76,1423.18 "/>
<polyline clip-path="url(#clip420)" style="stroke:#000000; stroke-linecap:round; stroke-linejoin:round; stroke-width:4; stroke-opacity:1; fill:none" points="309.067,1423.18 309.067,1404.28 "/>
<polyline clip-path="url(#clip420)" style="stroke:#000000; stroke-linecap:round; stroke-linejoin:round; stroke-width:4; stroke-opacity:1; fill:none" points="722.434,1423.18 722.434,1404.28 "/>
<polyline clip-path="url(#clip420)" style="stroke:#000000; stroke-linecap:round; stroke-linejoin:round; stroke-width:4; stroke-opacity:1; fill:none" points="1135.8,1423.18 1135.8,1404.28 "/>
<polyline clip-path="url(#clip420)" style="stroke:#000000; stroke-linecap:round; stroke-linejoin:round; stroke-width:4; stroke-opacity:1; fill:none" points="1549.17,1423.18 1549.17,1404.28 "/>
<polyline clip-path="url(#clip420)" style="stroke:#000000; stroke-linecap:round; stroke-linejoin:round; stroke-width:4; stroke-opacity:1; fill:none" points="1962.54,1423.18 1962.54,1404.28 "/>
<path clip-path="url(#clip420)" d="M271.37 1454.1 Q267.759 1454.1 265.931 1457.66 Q264.125 1461.2 264.125 1468.33 Q264.125 1475.44 265.931 1479.01 Q267.759 1482.55 271.37 1482.55 Q275.005 1482.55 276.81 1479.01 Q278.639 1475.44 278.639 1468.33 Q278.639 1461.2 276.81 1457.66 Q275.005 1454.1 271.37 1454.1 M271.37 1450.39 Q277.181 1450.39 280.236 1455 Q283.315 1459.58 283.315 1468.33 Q283.315 1477.06 280.236 1481.67 Q277.181 1486.25 271.37 1486.25 Q265.56 1486.25 262.482 1481.67 Q259.426 1477.06 259.426 1468.33 Q259.426 1459.58 262.482 1455 Q265.56 1450.39 271.37 1450.39 Z" fill="#000000" fill-rule="nonzero" fill-opacity="1" /><path clip-path="url(#clip420)" d="M291.532 1479.7 L296.417 1479.7 L296.417 1485.58 L291.532 1485.58 L291.532 1479.7 Z" fill="#000000" fill-rule="nonzero" fill-opacity="1" /><path clip-path="url(#clip420)" d="M316.602 1454.1 Q312.991 1454.1 311.162 1457.66 Q309.356 1461.2 309.356 1468.33 Q309.356 1475.44 311.162 1479.01 Q312.991 1482.55 316.602 1482.55 Q320.236 1482.55 322.041 1479.01 Q323.87 1475.44 323.87 1468.33 Q323.87 1461.2 322.041 1457.66 Q320.236 1454.1 316.602 1454.1 M316.602 1450.39 Q322.412 1450.39 325.467 1455 Q328.546 1459.58 328.546 1468.33 Q328.546 1477.06 325.467 1481.67 Q322.412 1486.25 316.602 1486.25 Q310.791 1486.25 307.713 1481.67 Q304.657 1477.06 304.657 1468.33 Q304.657 1459.58 307.713 1455 Q310.791 1450.39 316.602 1450.39 Z" fill="#000000" fill-rule="nonzero" fill-opacity="1" /><path clip-path="url(#clip420)" d="M346.764 1454.1 Q343.152 1454.1 341.324 1457.66 Q339.518 1461.2 339.518 1468.33 Q339.518 1475.44 341.324 1479.01 Q343.152 1482.55 346.764 1482.55 Q350.398 1482.55 352.203 1479.01 Q354.032 1475.44 354.032 1468.33 Q354.032 1461.2 352.203 1457.66 Q350.398 1454.1 346.764 1454.1 M346.764 1450.39 Q352.574 1450.39 355.629 1455 Q358.708 1459.58 358.708 1468.33 Q358.708 1477.06 355.629 1481.67 Q352.574 1486.25 346.764 1486.25 Q340.953 1486.25 337.875 1481.67 Q334.819 1477.06 334.819 1468.33 Q334.819 1459.58 337.875 1455 Q340.953 1450.39 346.764 1450.39 Z" fill="#000000" fill-rule="nonzero" fill-opacity="1" /><path clip-path="url(#clip420)" d="M685.236 1454.1 Q681.624 1454.1 679.796 1457.66 Q677.99 1461.2 677.99 1468.33 Q677.99 1475.44 679.796 1479.01 Q681.624 1482.55 685.236 1482.55 Q688.87 1482.55 690.675 1479.01 Q692.504 1475.44 692.504 1468.33 Q692.504 1461.2 690.675 1457.66 Q688.87 1454.1 685.236 1454.1 M685.236 1450.39 Q691.046 1450.39 694.101 1455 Q697.18 1459.58 697.18 1468.33 Q697.18 1477.06 694.101 1481.67 Q691.046 1486.25 685.236 1486.25 Q679.425 1486.25 676.347 1481.67 Q673.291 1477.06 673.291 1468.33 Q673.291 1459.58 676.347 1455 Q679.425 1450.39 685.236 1450.39 Z" fill="#000000" fill-rule="nonzero" fill-opacity="1" /><path clip-path="url(#clip420)" d="M705.398 1479.7 L710.282 1479.7 L710.282 1485.58 L705.398 1485.58 L705.398 1479.7 Z" fill="#000000" fill-rule="nonzero" fill-opacity="1" /><path clip-path="url(#clip420)" d="M724.495 1481.64 L740.814 1481.64 L740.814 1485.58 L718.87 1485.58 L718.87 1481.64 Q721.532 1478.89 726.115 1474.26 Q730.721 1469.61 731.902 1468.27 Q734.147 1465.74 735.027 1464.01 Q735.93 1462.25 735.93 1460.56 Q735.93 1457.8 733.985 1456.07 Q732.064 1454.33 728.962 1454.33 Q726.763 1454.33 724.309 1455.09 Q721.879 1455.86 719.101 1457.41 L719.101 1452.69 Q721.925 1451.55 724.379 1450.97 Q726.833 1450.39 728.87 1450.39 Q734.24 1450.39 737.434 1453.08 Q740.629 1455.77 740.629 1460.26 Q740.629 1462.39 739.819 1464.31 Q739.032 1466.2 736.925 1468.8 Q736.346 1469.47 733.245 1472.69 Q730.143 1475.88 724.495 1481.64 Z" fill="#000000" fill-rule="nonzero" fill-opacity="1" /><path clip-path="url(#clip420)" d="M750.675 1451.02 L769.031 1451.02 L769.031 1454.96 L754.957 1454.96 L754.957 1463.43 Q755.976 1463.08 756.994 1462.92 Q758.013 1462.73 759.031 1462.73 Q764.818 1462.73 768.198 1465.9 Q771.578 1469.08 771.578 1474.49 Q771.578 1480.07 768.106 1483.17 Q764.633 1486.25 758.314 1486.25 Q756.138 1486.25 753.869 1485.88 Q751.624 1485.51 749.217 1484.77 L749.217 1480.07 Q751.3 1481.2 753.522 1481.76 Q755.744 1482.32 758.221 1482.32 Q762.226 1482.32 764.564 1480.21 Q766.902 1478.1 766.902 1474.49 Q766.902 1470.88 764.564 1468.77 Q762.226 1466.67 758.221 1466.67 Q756.346 1466.67 754.471 1467.08 Q752.619 1467.5 750.675 1468.38 L750.675 1451.02 Z" fill="#000000" fill-rule="nonzero" fill-opacity="1" /><path clip-path="url(#clip420)" d="M1098.11 1454.1 Q1094.49 1454.1 1092.67 1457.66 Q1090.86 1461.2 1090.86 1468.33 Q1090.86 1475.44 1092.67 1479.01 Q1094.49 1482.55 1098.11 1482.55 Q1101.74 1482.55 1103.55 1479.01 Q1105.37 1475.44 1105.37 1468.33 Q1105.37 1461.2 1103.55 1457.66 Q1101.74 1454.1 1098.11 1454.1 M1098.11 1450.39 Q1103.92 1450.39 1106.97 1455 Q1110.05 1459.58 1110.05 1468.33 Q1110.05 1477.06 1106.97 1481.67 Q1103.92 1486.25 1098.11 1486.25 Q1092.3 1486.25 1089.22 1481.67 Q1086.16 1477.06 1086.16 1468.33 Q1086.16 1459.58 1089.22 1455 Q1092.3 1450.39 1098.11 1450.39 Z" fill="#000000" fill-rule="nonzero" fill-opacity="1" /><path clip-path="url(#clip420)" d="M1118.27 1479.7 L1123.15 1479.7 L1123.15 1485.58 L1118.27 1485.58 L1118.27 1479.7 Z" fill="#000000" fill-rule="nonzero" fill-opacity="1" /><path clip-path="url(#clip420)" d="M1133.38 1451.02 L1151.74 1451.02 L1151.74 1454.96 L1137.67 1454.96 L1137.67 1463.43 Q1138.68 1463.08 1139.7 1462.92 Q1140.72 1462.73 1141.74 1462.73 Q1147.53 1462.73 1150.91 1465.9 Q1154.29 1469.08 1154.29 1474.49 Q1154.29 1480.07 1150.81 1483.17 Q1147.34 1486.25 1141.02 1486.25 Q1138.85 1486.25 1136.58 1485.88 Q1134.33 1485.51 1131.92 1484.77 L1131.92 1480.07 Q1134.01 1481.2 1136.23 1481.76 Q1138.45 1482.32 1140.93 1482.32 Q1144.93 1482.32 1147.27 1480.21 Q1149.61 1478.1 1149.61 1474.49 Q1149.61 1470.88 1147.27 1468.77 Q1144.93 1466.67 1140.93 1466.67 Q1139.05 1466.67 1137.18 1467.08 Q1135.33 1467.5 1133.38 1468.38 L1133.38 1451.02 Z" fill="#000000" fill-rule="nonzero" fill-opacity="1" /><path clip-path="url(#clip420)" d="M1173.5 1454.1 Q1169.89 1454.1 1168.06 1457.66 Q1166.25 1461.2 1166.25 1468.33 Q1166.25 1475.44 1168.06 1479.01 Q1169.89 1482.55 1173.5 1482.55 Q1177.13 1482.55 1178.94 1479.01 Q1180.77 1475.44 1180.77 1468.33 Q1180.77 1461.2 1178.94 1457.66 Q1177.13 1454.1 1173.5 1454.1 M1173.5 1450.39 Q1179.31 1450.39 1182.36 1455 Q1185.44 1459.58 1185.44 1468.33 Q1185.44 1477.06 1182.36 1481.67 Q1179.31 1486.25 1173.5 1486.25 Q1167.69 1486.25 1164.61 1481.67 Q1161.55 1477.06 1161.55 1468.33 Q1161.55 1459.58 1164.61 1455 Q1167.69 1450.39 1173.5 1450.39 Z" fill="#000000" fill-rule="nonzero" fill-opacity="1" /><path clip-path="url(#clip420)" d="M1511.97 1454.1 Q1508.36 1454.1 1506.53 1457.66 Q1504.73 1461.2 1504.73 1468.33 Q1504.73 1475.44 1506.53 1479.01 Q1508.36 1482.55 1511.97 1482.55 Q1515.6 1482.55 1517.41 1479.01 Q1519.24 1475.44 1519.24 1468.33 Q1519.24 1461.2 1517.41 1457.66 Q1515.6 1454.1 1511.97 1454.1 M1511.97 1450.39 Q1517.78 1450.39 1520.84 1455 Q1523.91 1459.58 1523.91 1468.33 Q1523.91 1477.06 1520.84 1481.67 Q1517.78 1486.25 1511.97 1486.25 Q1506.16 1486.25 1503.08 1481.67 Q1500.03 1477.06 1500.03 1468.33 Q1500.03 1459.58 1503.08 1455 Q1506.16 1450.39 1511.97 1450.39 Z" fill="#000000" fill-rule="nonzero" fill-opacity="1" /><path clip-path="url(#clip420)" d="M1532.13 1479.7 L1537.02 1479.7 L1537.02 1485.58 L1532.13 1485.58 L1532.13 1479.7 Z" fill="#000000" fill-rule="nonzero" fill-opacity="1" /><path clip-path="url(#clip420)" d="M1546.02 1451.02 L1568.24 1451.02 L1568.24 1453.01 L1555.7 1485.58 L1550.81 1485.58 L1562.62 1454.96 L1546.02 1454.96 L1546.02 1451.02 Z" fill="#000000" fill-rule="nonzero" fill-opacity="1" /><path clip-path="url(#clip420)" d="M1577.41 1451.02 L1595.77 1451.02 L1595.77 1454.96 L1581.69 1454.96 L1581.69 1463.43 Q1582.71 1463.08 1583.73 1462.92 Q1584.75 1462.73 1585.77 1462.73 Q1591.55 1462.73 1594.93 1465.9 Q1598.31 1469.08 1598.31 1474.49 Q1598.31 1480.07 1594.84 1483.17 Q1591.37 1486.25 1585.05 1486.25 Q1582.87 1486.25 1580.6 1485.88 Q1578.36 1485.51 1575.95 1484.77 L1575.95 1480.07 Q1578.04 1481.2 1580.26 1481.76 Q1582.48 1482.32 1584.96 1482.32 Q1588.96 1482.32 1591.3 1480.21 Q1593.64 1478.1 1593.64 1474.49 Q1593.64 1470.88 1591.3 1468.77 Q1588.96 1466.67 1584.96 1466.67 Q1583.08 1466.67 1581.21 1467.08 Q1579.35 1467.5 1577.41 1468.38 L1577.41 1451.02 Z" fill="#000000" fill-rule="nonzero" fill-opacity="1" /><path clip-path="url(#clip420)" d="M1914.61 1481.64 L1922.25 1481.64 L1922.25 1455.28 L1913.94 1456.95 L1913.94 1452.69 L1922.2 1451.02 L1926.88 1451.02 L1926.88 1481.64 L1934.52 1481.64 L1934.52 1485.58 L1914.61 1485.58 L1914.61 1481.64 Z" fill="#000000" fill-rule="nonzero" fill-opacity="1" /><path clip-path="url(#clip420)" d="M1943.96 1479.7 L1948.84 1479.7 L1948.84 1485.58 L1943.96 1485.58 L1943.96 1479.7 Z" fill="#000000" fill-rule="nonzero" fill-opacity="1" /><path clip-path="url(#clip420)" d="M1969.03 1454.1 Q1965.42 1454.1 1963.59 1457.66 Q1961.78 1461.2 1961.78 1468.33 Q1961.78 1475.44 1963.59 1479.01 Q1965.42 1482.55 1969.03 1482.55 Q1972.66 1482.55 1974.47 1479.01 Q1976.3 1475.44 1976.3 1468.33 Q1976.3 1461.2 1974.47 1457.66 Q1972.66 1454.1 1969.03 1454.1 M1969.03 1450.39 Q1974.84 1450.39 1977.9 1455 Q1980.97 1459.58 1980.97 1468.33 Q1980.97 1477.06 1977.9 1481.67 Q1974.84 1486.25 1969.03 1486.25 Q1963.22 1486.25 1960.14 1481.67 Q1957.09 1477.06 1957.09 1468.33 Q1957.09 1459.58 1960.14 1455 Q1963.22 1450.39 1969.03 1450.39 Z" fill="#000000" fill-rule="nonzero" fill-opacity="1" /><path clip-path="url(#clip420)" d="M1999.19 1454.1 Q1995.58 1454.1 1993.75 1457.66 Q1991.95 1461.2 1991.95 1468.33 Q1991.95 1475.44 1993.75 1479.01 Q1995.58 1482.55 1999.19 1482.55 Q2002.83 1482.55 2004.63 1479.01 Q2006.46 1475.44 2006.46 1468.33 Q2006.46 1461.2 2004.63 1457.66 Q2002.83 1454.1 1999.19 1454.1 M1999.19 1450.39 Q2005 1450.39 2008.06 1455 Q2011.14 1459.58 2011.14 1468.33 Q2011.14 1477.06 2008.06 1481.67 Q2005 1486.25 1999.19 1486.25 Q1993.38 1486.25 1990.3 1481.67 Q1987.25 1477.06 1987.25 1468.33 Q1987.25 1459.58 1990.3 1455 Q1993.38 1450.39 1999.19 1450.39 Z" fill="#000000" fill-rule="nonzero" fill-opacity="1" /><path clip-path="url(#clip420)" d="M1240.31 1522.27 L1240.31 1532.4 L1252.37 1532.4 L1252.37 1536.95 L1240.31 1536.95 L1240.31 1556.3 Q1240.31 1560.66 1241.49 1561.9 Q1242.7 1563.14 1246.36 1563.14 L1252.37 1563.14 L1252.37 1568.04 L1246.36 1568.04 Q1239.58 1568.04 1237 1565.53 Q1234.42 1562.98 1234.42 1556.3 L1234.42 1536.95 L1230.12 1536.95 L1230.12 1532.4 L1234.42 1532.4 L1234.42 1522.27 L1240.31 1522.27 Z" fill="#000000" fill-rule="nonzero" fill-opacity="1" /><path clip-path="url(#clip420)" d="M1260.07 1532.4 L1265.93 1532.4 L1265.93 1568.04 L1260.07 1568.04 L1260.07 1532.4 M1260.07 1518.52 L1265.93 1518.52 L1265.93 1525.93 L1260.07 1525.93 L1260.07 1518.52 Z" fill="#000000" fill-rule="nonzero" fill-opacity="1" /><path clip-path="url(#clip420)" d="M1305.94 1539.24 Q1308.14 1535.29 1311.19 1533.41 Q1314.25 1531.54 1318.38 1531.54 Q1323.95 1531.54 1326.98 1535.45 Q1330 1539.33 1330 1546.53 L1330 1568.04 L1324.11 1568.04 L1324.11 1546.72 Q1324.11 1541.59 1322.3 1539.11 Q1320.48 1536.63 1316.76 1536.63 Q1312.21 1536.63 1309.57 1539.65 Q1306.93 1542.68 1306.93 1547.9 L1306.93 1568.04 L1301.04 1568.04 L1301.04 1546.72 Q1301.04 1541.56 1299.22 1539.11 Q1297.41 1536.63 1293.62 1536.63 Q1289.13 1536.63 1286.49 1539.68 Q1283.85 1542.71 1283.85 1547.9 L1283.85 1568.04 L1277.96 1568.04 L1277.96 1532.4 L1283.85 1532.4 L1283.85 1537.93 Q1285.86 1534.66 1288.66 1533.1 Q1291.46 1531.54 1295.31 1531.54 Q1299.19 1531.54 1301.9 1533.51 Q1304.63 1535.48 1305.94 1539.24 Z" fill="#000000" fill-rule="nonzero" fill-opacity="1" /><path clip-path="url(#clip420)" d="M1372.17 1548.76 L1372.17 1551.62 L1345.25 1551.62 Q1345.63 1557.67 1348.88 1560.85 Q1352.15 1564 1357.98 1564 Q1361.35 1564 1364.5 1563.17 Q1367.69 1562.35 1370.81 1560.69 L1370.81 1566.23 Q1367.65 1567.57 1364.34 1568.27 Q1361.03 1568.97 1357.63 1568.97 Q1349.1 1568.97 1344.1 1564 Q1339.14 1559.04 1339.14 1550.57 Q1339.14 1541.82 1343.85 1536.69 Q1348.59 1531.54 1356.61 1531.54 Q1363.8 1531.54 1367.97 1536.18 Q1372.17 1540.8 1372.17 1548.76 M1366.32 1547.04 Q1366.25 1542.23 1363.61 1539.37 Q1361 1536.5 1356.67 1536.5 Q1351.77 1536.5 1348.81 1539.27 Q1345.88 1542.04 1345.44 1547.07 L1366.32 1547.04 Z" fill="#000000" fill-rule="nonzero" fill-opacity="1" /><polyline clip-path="url(#clip420)" style="stroke:#000000; stroke-linecap:round; stroke-linejoin:round; stroke-width:4; stroke-opacity:1; fill:none" points="249.542,1423.18 249.542,123.472 "/>
<polyline clip-path="url(#clip420)" style="stroke:#000000; stroke-linecap:round; stroke-linejoin:round; stroke-width:4; stroke-opacity:1; fill:none" points="249.542,1386.4 268.44,1386.4 "/>
<polyline clip-path="url(#clip420)" style="stroke:#000000; stroke-linecap:round; stroke-linejoin:round; stroke-width:4; stroke-opacity:1; fill:none" points="249.542,1049.25 268.44,1049.25 "/>
<polyline clip-path="url(#clip420)" style="stroke:#000000; stroke-linecap:round; stroke-linejoin:round; stroke-width:4; stroke-opacity:1; fill:none" points="249.542,712.098 268.44,712.098 "/>
<polyline clip-path="url(#clip420)" style="stroke:#000000; stroke-linecap:round; stroke-linejoin:round; stroke-width:4; stroke-opacity:1; fill:none" points="249.542,374.95 268.44,374.95 "/>
<path clip-path="url(#clip420)" d="M126.205 1372.19 Q122.593 1372.19 120.765 1375.76 Q118.959 1379.3 118.959 1386.43 Q118.959 1393.54 120.765 1397.1 Q122.593 1400.64 126.205 1400.64 Q129.839 1400.64 131.644 1397.1 Q133.473 1393.54 133.473 1386.43 Q133.473 1379.3 131.644 1375.76 Q129.839 1372.19 126.205 1372.19 M126.205 1368.49 Q132.015 1368.49 135.07 1373.1 Q138.149 1377.68 138.149 1386.43 Q138.149 1395.16 135.07 1399.76 Q132.015 1404.35 126.205 1404.35 Q120.394 1404.35 117.316 1399.76 Q114.26 1395.16 114.26 1386.43 Q114.26 1377.68 117.316 1373.1 Q120.394 1368.49 126.205 1368.49 Z" fill="#000000" fill-rule="nonzero" fill-opacity="1" /><path clip-path="url(#clip420)" d="M146.366 1397.8 L151.251 1397.8 L151.251 1403.68 L146.366 1403.68 L146.366 1397.8 Z" fill="#000000" fill-rule="nonzero" fill-opacity="1" /><path clip-path="url(#clip420)" d="M171.436 1372.19 Q167.825 1372.19 165.996 1375.76 Q164.19 1379.3 164.19 1386.43 Q164.19 1393.54 165.996 1397.1 Q167.825 1400.64 171.436 1400.64 Q175.07 1400.64 176.876 1397.1 Q178.704 1393.54 178.704 1386.43 Q178.704 1379.3 176.876 1375.76 Q175.07 1372.19 171.436 1372.19 M171.436 1368.49 Q177.246 1368.49 180.301 1373.1 Q183.38 1377.68 183.38 1386.43 Q183.38 1395.16 180.301 1399.76 Q177.246 1404.35 171.436 1404.35 Q165.626 1404.35 162.547 1399.76 Q159.491 1395.16 159.491 1386.43 Q159.491 1377.68 162.547 1373.1 Q165.626 1368.49 171.436 1368.49 Z" fill="#000000" fill-rule="nonzero" fill-opacity="1" /><path clip-path="url(#clip420)" d="M201.598 1372.19 Q197.987 1372.19 196.158 1375.76 Q194.352 1379.3 194.352 1386.43 Q194.352 1393.54 196.158 1397.1 Q197.987 1400.64 201.598 1400.64 Q205.232 1400.64 207.037 1397.1 Q208.866 1393.54 208.866 1386.43 Q208.866 1379.3 207.037 1375.76 Q205.232 1372.19 201.598 1372.19 M201.598 1368.49 Q207.408 1368.49 210.463 1373.1 Q213.542 1377.68 213.542 1386.43 Q213.542 1395.16 210.463 1399.76 Q207.408 1404.35 201.598 1404.35 Q195.787 1404.35 192.709 1399.76 Q189.653 1395.16 189.653 1386.43 Q189.653 1377.68 192.709 1373.1 Q195.787 1368.49 201.598 1368.49 Z" fill="#000000" fill-rule="nonzero" fill-opacity="1" /><path clip-path="url(#clip420)" d="M127.2 1035.05 Q123.589 1035.05 121.76 1038.61 Q119.955 1042.15 119.955 1049.28 Q119.955 1056.39 121.76 1059.95 Q123.589 1063.49 127.2 1063.49 Q130.834 1063.49 132.64 1059.95 Q134.468 1056.39 134.468 1049.28 Q134.468 1042.15 132.64 1038.61 Q130.834 1035.05 127.2 1035.05 M127.2 1031.34 Q133.01 1031.34 136.066 1035.95 Q139.144 1040.53 139.144 1049.28 Q139.144 1058.01 136.066 1062.62 Q133.01 1067.2 127.2 1067.2 Q121.39 1067.2 118.311 1062.62 Q115.256 1058.01 115.256 1049.28 Q115.256 1040.53 118.311 1035.95 Q121.39 1031.34 127.2 1031.34 Z" fill="#000000" fill-rule="nonzero" fill-opacity="1" /><path clip-path="url(#clip420)" d="M147.362 1060.65 L152.246 1060.65 L152.246 1066.53 L147.362 1066.53 L147.362 1060.65 Z" fill="#000000" fill-rule="nonzero" fill-opacity="1" /><path clip-path="url(#clip420)" d="M172.431 1035.05 Q168.82 1035.05 166.991 1038.61 Q165.186 1042.15 165.186 1049.28 Q165.186 1056.39 166.991 1059.95 Q168.82 1063.49 172.431 1063.49 Q176.065 1063.49 177.871 1059.95 Q179.7 1056.39 179.7 1049.28 Q179.7 1042.15 177.871 1038.61 Q176.065 1035.05 172.431 1035.05 M172.431 1031.34 Q178.241 1031.34 181.297 1035.95 Q184.376 1040.53 184.376 1049.28 Q184.376 1058.01 181.297 1062.62 Q178.241 1067.2 172.431 1067.2 Q166.621 1067.2 163.542 1062.62 Q160.487 1058.01 160.487 1049.28 Q160.487 1040.53 163.542 1035.95 Q166.621 1031.34 172.431 1031.34 Z" fill="#000000" fill-rule="nonzero" fill-opacity="1" /><path clip-path="url(#clip420)" d="M192.639 1031.97 L210.996 1031.97 L210.996 1035.9 L196.922 1035.9 L196.922 1044.37 Q197.94 1044.03 198.959 1043.87 Q199.977 1043.68 200.996 1043.68 Q206.783 1043.68 210.162 1046.85 Q213.542 1050.02 213.542 1055.44 Q213.542 1061.02 210.07 1064.12 Q206.598 1067.2 200.278 1067.2 Q198.102 1067.2 195.834 1066.83 Q193.588 1066.46 191.181 1065.72 L191.181 1061.02 Q193.264 1062.15 195.487 1062.71 Q197.709 1063.26 200.186 1063.26 Q204.19 1063.26 206.528 1061.16 Q208.866 1059.05 208.866 1055.44 Q208.866 1051.83 206.528 1049.72 Q204.19 1047.62 200.186 1047.62 Q198.311 1047.62 196.436 1048.03 Q194.584 1048.45 192.639 1049.33 L192.639 1031.97 Z" fill="#000000" fill-rule="nonzero" fill-opacity="1" /><path clip-path="url(#clip420)" d="M126.205 697.897 Q122.593 697.897 120.765 701.462 Q118.959 705.004 118.959 712.133 Q118.959 719.24 120.765 722.804 Q122.593 726.346 126.205 726.346 Q129.839 726.346 131.644 722.804 Q133.473 719.24 133.473 712.133 Q133.473 705.004 131.644 701.462 Q129.839 697.897 126.205 697.897 M126.205 694.193 Q132.015 694.193 135.07 698.8 Q138.149 703.383 138.149 712.133 Q138.149 720.86 135.07 725.466 Q132.015 730.05 126.205 730.05 Q120.394 730.05 117.316 725.466 Q114.26 720.86 114.26 712.133 Q114.26 703.383 117.316 698.8 Q120.394 694.193 126.205 694.193 Z" fill="#000000" fill-rule="nonzero" fill-opacity="1" /><path clip-path="url(#clip420)" d="M146.366 723.499 L151.251 723.499 L151.251 729.378 L146.366 729.378 L146.366 723.499 Z" fill="#000000" fill-rule="nonzero" fill-opacity="1" /><path clip-path="url(#clip420)" d="M162.246 725.443 L169.885 725.443 L169.885 699.078 L161.575 700.744 L161.575 696.485 L169.839 694.818 L174.514 694.818 L174.514 725.443 L182.153 725.443 L182.153 729.378 L162.246 729.378 L162.246 725.443 Z" fill="#000000" fill-rule="nonzero" fill-opacity="1" /><path clip-path="url(#clip420)" d="M201.598 697.897 Q197.987 697.897 196.158 701.462 Q194.352 705.004 194.352 712.133 Q194.352 719.24 196.158 722.804 Q197.987 726.346 201.598 726.346 Q205.232 726.346 207.037 722.804 Q208.866 719.24 208.866 712.133 Q208.866 705.004 207.037 701.462 Q205.232 697.897 201.598 697.897 M201.598 694.193 Q207.408 694.193 210.463 698.8 Q213.542 703.383 213.542 712.133 Q213.542 720.86 210.463 725.466 Q207.408 730.05 201.598 730.05 Q195.787 730.05 192.709 725.466 Q189.653 720.86 189.653 712.133 Q189.653 703.383 192.709 698.8 Q195.787 694.193 201.598 694.193 Z" fill="#000000" fill-rule="nonzero" fill-opacity="1" /><path clip-path="url(#clip420)" d="M127.2 360.749 Q123.589 360.749 121.76 364.313 Q119.955 367.855 119.955 374.985 Q119.955 382.091 121.76 385.656 Q123.589 389.198 127.2 389.198 Q130.834 389.198 132.64 385.656 Q134.468 382.091 134.468 374.985 Q134.468 367.855 132.64 364.313 Q130.834 360.749 127.2 360.749 M127.2 357.045 Q133.01 357.045 136.066 361.651 Q139.144 366.235 139.144 374.985 Q139.144 383.711 136.066 388.318 Q133.01 392.901 127.2 392.901 Q121.39 392.901 118.311 388.318 Q115.256 383.711 115.256 374.985 Q115.256 366.235 118.311 361.651 Q121.39 357.045 127.2 357.045 Z" fill="#000000" fill-rule="nonzero" fill-opacity="1" /><path clip-path="url(#clip420)" d="M147.362 386.35 L152.246 386.35 L152.246 392.23 L147.362 392.23 L147.362 386.35 Z" fill="#000000" fill-rule="nonzero" fill-opacity="1" /><path clip-path="url(#clip420)" d="M163.241 388.295 L170.88 388.295 L170.88 361.929 L162.57 363.596 L162.57 359.337 L170.834 357.67 L175.51 357.67 L175.51 388.295 L183.149 388.295 L183.149 392.23 L163.241 392.23 L163.241 388.295 Z" fill="#000000" fill-rule="nonzero" fill-opacity="1" /><path clip-path="url(#clip420)" d="M192.639 357.67 L210.996 357.67 L210.996 361.605 L196.922 361.605 L196.922 370.077 Q197.94 369.73 198.959 369.568 Q199.977 369.383 200.996 369.383 Q206.783 369.383 210.162 372.554 Q213.542 375.725 213.542 381.142 Q213.542 386.721 210.07 389.822 Q206.598 392.901 200.278 392.901 Q198.102 392.901 195.834 392.531 Q193.588 392.16 191.181 391.42 L191.181 386.721 Q193.264 387.855 195.487 388.41 Q197.709 388.966 200.186 388.966 Q204.19 388.966 206.528 386.86 Q208.866 384.753 208.866 381.142 Q208.866 377.531 206.528 375.424 Q204.19 373.318 200.186 373.318 Q198.311 373.318 196.436 373.735 Q194.584 374.151 192.639 375.031 L192.639 357.67 Z" fill="#000000" fill-rule="nonzero" fill-opacity="1" /><path clip-path="url(#clip420)" d="M14.479 809.292 L19.3487 809.292 L19.3487 814.894 Q19.3487 818.045 20.6219 819.286 Q21.895 820.496 25.2052 820.496 L28.3562 820.496 L28.3562 810.852 L32.9077 810.852 L32.9077 820.496 L64.0042 820.496 L64.0042 826.384 L32.9077 826.384 L32.9077 831.986 L28.3562 831.986 L28.3562 826.384 L25.8736 826.384 Q19.9216 826.384 17.2162 823.615 Q14.479 820.846 14.479 814.83 L14.479 809.292 Z" fill="#000000" fill-rule="nonzero" fill-opacity="1" /><path clip-path="url(#clip420)" d="M14.479 804.391 L14.479 798.534 L64.0042 798.534 L64.0042 804.391 L14.479 804.391 Z" fill="#000000" fill-rule="nonzero" fill-opacity="1" /><path clip-path="url(#clip420)" d="M49.9359 786.885 L28.3562 786.885 L28.3562 781.028 L49.7131 781.028 Q54.7739 781.028 57.3202 779.055 Q59.8346 777.082 59.8346 773.135 Q59.8346 768.393 56.8109 765.655 Q53.7872 762.886 48.5673 762.886 L28.3562 762.886 L28.3562 757.03 L64.0042 757.03 L64.0042 762.886 L58.5296 762.886 Q61.7762 765.019 63.3676 767.851 Q64.9272 770.652 64.9272 774.376 Q64.9272 780.519 61.1078 783.702 Q57.2883 786.885 49.9359 786.885 M27.4968 772.148 L27.4968 772.148 Z" fill="#000000" fill-rule="nonzero" fill-opacity="1" /><path clip-path="url(#clip420)" d="M28.3562 715.334 L45.7028 728.225 L64.0042 714.666 L64.0042 721.573 L49.9996 731.949 L64.0042 742.325 L64.0042 749.232 L45.3526 735.386 L28.3562 748.054 L28.3562 741.147 L41.0558 731.694 L28.3562 722.241 L28.3562 715.334 Z" fill="#000000" fill-rule="nonzero" fill-opacity="1" /><path clip-path="url(#clip420)" d="M885.405 17.6457 Q876.493 17.6457 871.227 24.2892 Q866.001 30.9327 866.001 42.3968 Q866.001 53.8203 871.227 60.4638 Q876.493 67.1073 885.405 67.1073 Q894.317 67.1073 899.502 60.4638 Q904.727 53.8203 904.727 42.3968 Q904.727 30.9327 899.502 24.2892 Q894.317 17.6457 885.405 17.6457 M885.405 11.0023 Q898.125 11.0023 905.74 19.5497 Q913.356 28.0566 913.356 42.3968 Q913.356 56.6965 905.74 65.2439 Q898.125 73.7508 885.405 73.7508 Q872.644 73.7508 864.988 65.2439 Q857.372 56.737 857.372 42.3968 Q857.372 28.0566 864.988 19.5497 Q872.644 11.0023 885.405 11.0023 Z" fill="#000000" fill-rule="nonzero" fill-opacity="1" /><path clip-path="url(#clip420)" d="M925.063 54.671 L925.063 27.2059 L932.517 27.2059 L932.517 54.3874 Q932.517 60.8284 935.028 64.0691 Q937.54 67.2693 942.563 67.2693 Q948.599 67.2693 952.083 63.421 Q955.607 59.5726 955.607 52.9291 L955.607 27.2059 L963.061 27.2059 L963.061 72.576 L955.607 72.576 L955.607 65.6084 Q952.893 69.7404 949.287 71.7658 Q945.723 73.7508 940.983 73.7508 Q933.165 73.7508 929.114 68.8897 Q925.063 64.0286 925.063 54.671 M943.819 26.1121 L943.819 26.1121 Z" fill="#000000" fill-rule="nonzero" fill-opacity="1" /><path clip-path="url(#clip420)" d="M985.786 14.324 L985.786 27.2059 L1001.14 27.2059 L1001.14 32.9987 L985.786 32.9987 L985.786 57.6282 Q985.786 63.1779 987.285 64.7578 Q988.824 66.3376 993.483 66.3376 L1001.14 66.3376 L1001.14 72.576 L993.483 72.576 Q984.854 72.576 981.573 69.3758 Q978.292 66.1351 978.292 57.6282 L978.292 32.9987 L972.823 32.9987 L972.823 27.2059 L978.292 27.2059 L978.292 14.324 L985.786 14.324 Z" fill="#000000" fill-rule="nonzero" fill-opacity="1" /><path clip-path="url(#clip420)" d="M1010.94 9.54393 L1018.4 9.54393 L1018.4 72.576 L1010.94 72.576 L1010.94 9.54393 Z" fill="#000000" fill-rule="nonzero" fill-opacity="1" /><path clip-path="url(#clip420)" d="M1072.8 48.0275 L1072.8 51.6733 L1038.53 51.6733 Q1039.01 59.3701 1043.15 63.421 Q1047.32 67.4314 1054.73 67.4314 Q1059.03 67.4314 1063.04 66.3781 Q1067.09 65.3249 1071.06 63.2184 L1071.06 70.267 Q1067.05 71.9684 1062.83 72.8596 Q1058.62 73.7508 1054.29 73.7508 Q1043.43 73.7508 1037.07 67.4314 Q1030.75 61.1119 1030.75 50.3365 Q1030.75 39.1965 1036.75 32.6746 Q1042.78 26.1121 1052.99 26.1121 Q1062.15 26.1121 1067.45 32.0264 Q1072.8 37.9003 1072.8 48.0275 M1065.35 45.84 Q1065.26 39.7232 1061.9 36.0774 Q1058.58 32.4315 1053.07 32.4315 Q1046.83 32.4315 1043.07 35.9558 Q1039.34 39.4801 1038.77 45.8805 L1065.35 45.84 Z" fill="#000000" fill-rule="nonzero" fill-opacity="1" /><path clip-path="url(#clip420)" d="M1092.41 14.324 L1092.41 27.2059 L1107.76 27.2059 L1107.76 32.9987 L1092.41 32.9987 L1092.41 57.6282 Q1092.41 63.1779 1093.9 64.7578 Q1095.44 66.3376 1100.1 66.3376 L1107.76 66.3376 L1107.76 72.576 L1100.1 72.576 Q1091.47 72.576 1088.19 69.3758 Q1084.91 66.1351 1084.91 57.6282 L1084.91 32.9987 L1079.44 32.9987 L1079.44 27.2059 L1084.91 27.2059 L1084.91 14.324 L1092.41 14.324 Z" fill="#000000" fill-rule="nonzero" fill-opacity="1" /><path clip-path="url(#clip420)" d="M1144.26 12.096 L1179.01 12.096 L1179.01 18.9825 L1152.44 18.9825 L1152.44 36.8065 L1176.42 36.8065 L1176.42 43.6931 L1152.44 43.6931 L1152.44 72.576 L1144.26 72.576 L1144.26 12.096 Z" fill="#000000" fill-rule="nonzero" fill-opacity="1" /><path clip-path="url(#clip420)" d="M1191.65 9.54393 L1199.11 9.54393 L1199.11 72.576 L1191.65 72.576 L1191.65 9.54393 Z" fill="#000000" fill-rule="nonzero" fill-opacity="1" /><path clip-path="url(#clip420)" d="M1213.93 54.671 L1213.93 27.2059 L1221.39 27.2059 L1221.39 54.3874 Q1221.39 60.8284 1223.9 64.0691 Q1226.41 67.2693 1231.43 67.2693 Q1237.47 67.2693 1240.95 63.421 Q1244.48 59.5726 1244.48 52.9291 L1244.48 27.2059 L1251.93 27.2059 L1251.93 72.576 L1244.48 72.576 L1244.48 65.6084 Q1241.76 69.7404 1238.16 71.7658 Q1234.59 73.7508 1229.85 73.7508 Q1222.03 73.7508 1217.98 68.8897 Q1213.93 64.0286 1213.93 54.671 M1232.69 26.1121 L1232.69 26.1121 Z" fill="#000000" fill-rule="nonzero" fill-opacity="1" /><path clip-path="url(#clip420)" d="M1305 27.2059 L1288.59 49.2833 L1305.85 72.576 L1297.06 72.576 L1283.85 54.752 L1270.65 72.576 L1261.86 72.576 L1279.48 48.8377 L1263.35 27.2059 L1272.14 27.2059 L1284.18 43.369 L1296.21 27.2059 L1305 27.2059 Z" fill="#000000" fill-rule="nonzero" fill-opacity="1" /><path clip-path="url(#clip420)" d="M1360.33 32.4315 Q1354.34 32.4315 1350.85 37.1306 Q1347.37 41.7891 1347.37 49.9314 Q1347.37 58.0738 1350.81 62.7728 Q1354.3 67.4314 1360.33 67.4314 Q1366.29 67.4314 1369.77 62.7323 Q1373.26 58.0333 1373.26 49.9314 Q1373.26 41.8701 1369.77 37.1711 Q1366.29 32.4315 1360.33 32.4315 M1360.33 26.1121 Q1370.05 26.1121 1375.6 32.4315 Q1381.15 38.7509 1381.15 49.9314 Q1381.15 61.0714 1375.6 67.4314 Q1370.05 73.7508 1360.33 73.7508 Q1350.57 73.7508 1345.02 67.4314 Q1339.51 61.0714 1339.51 49.9314 Q1339.51 38.7509 1345.02 32.4315 Q1350.57 26.1121 1360.33 26.1121 Z" fill="#000000" fill-rule="nonzero" fill-opacity="1" /><path clip-path="url(#clip420)" d="M1388.16 27.2059 L1396.06 27.2059 L1410.24 65.2844 L1424.42 27.2059 L1432.32 27.2059 L1415.3 72.576 L1405.18 72.576 L1388.16 27.2059 Z" fill="#000000" fill-rule="nonzero" fill-opacity="1" /><path clip-path="url(#clip420)" d="M1481.41 48.0275 L1481.41 51.6733 L1447.14 51.6733 Q1447.63 59.3701 1451.76 63.421 Q1455.93 67.4314 1463.35 67.4314 Q1467.64 67.4314 1471.65 66.3781 Q1475.7 65.3249 1479.67 63.2184 L1479.67 70.267 Q1475.66 71.9684 1471.45 72.8596 Q1467.24 73.7508 1462.9 73.7508 Q1452.05 73.7508 1445.69 67.4314 Q1439.37 61.1119 1439.37 50.3365 Q1439.37 39.1965 1445.36 32.6746 Q1451.4 26.1121 1461.61 26.1121 Q1470.76 26.1121 1476.07 32.0264 Q1481.41 37.9003 1481.41 48.0275 M1473.96 45.84 Q1473.88 39.7232 1470.52 36.0774 Q1467.2 32.4315 1461.69 32.4315 Q1455.45 32.4315 1451.68 35.9558 Q1447.95 39.4801 1447.39 45.8805 L1473.96 45.84 Z" fill="#000000" fill-rule="nonzero" fill-opacity="1" /><path clip-path="url(#clip420)" d="M1519.94 34.1734 Q1518.68 33.4443 1517.18 33.1202 Q1515.73 32.7556 1513.94 32.7556 Q1507.62 32.7556 1504.22 36.8875 Q1500.86 40.9789 1500.86 48.6757 L1500.86 72.576 L1493.36 72.576 L1493.36 27.2059 L1500.86 27.2059 L1500.86 34.2544 Q1503.21 30.1225 1506.98 28.1376 Q1510.74 26.1121 1516.13 26.1121 Q1516.9 26.1121 1517.83 26.2337 Q1518.76 26.3147 1519.9 26.5172 L1519.94 34.1734 Z" fill="#000000" fill-rule="nonzero" fill-opacity="1" /><path clip-path="url(#clip420)" d="M1546.07 12.096 L1597.23 12.096 L1597.23 18.9825 L1575.76 18.9825 L1575.76 72.576 L1567.54 72.576 L1567.54 18.9825 L1546.07 18.9825 L1546.07 12.096 Z" fill="#000000" fill-rule="nonzero" fill-opacity="1" /><path clip-path="url(#clip420)" d="M1602.25 27.2059 L1609.71 27.2059 L1609.71 72.576 L1602.25 72.576 L1602.25 27.2059 M1602.25 9.54393 L1609.71 9.54393 L1609.71 18.9825 L1602.25 18.9825 L1602.25 9.54393 Z" fill="#000000" fill-rule="nonzero" fill-opacity="1" /><path clip-path="url(#clip420)" d="M1660.63 35.9153 Q1663.42 30.8922 1667.31 28.5022 Q1671.2 26.1121 1676.47 26.1121 Q1683.55 26.1121 1687.4 31.0947 Q1691.25 36.0368 1691.25 45.1919 L1691.25 72.576 L1683.76 72.576 L1683.76 45.4349 Q1683.76 38.913 1681.45 35.7533 Q1679.14 32.5936 1674.4 32.5936 Q1668.61 32.5936 1665.24 36.4419 Q1661.88 40.2903 1661.88 46.9338 L1661.88 72.576 L1654.39 72.576 L1654.39 45.4349 Q1654.39 38.8725 1652.08 35.7533 Q1649.77 32.5936 1644.95 32.5936 Q1639.24 32.5936 1635.88 36.4824 Q1632.51 40.3308 1632.51 46.9338 L1632.51 72.576 L1625.02 72.576 L1625.02 27.2059 L1632.51 27.2059 L1632.51 34.2544 Q1635.07 30.082 1638.63 28.0971 Q1642.19 26.1121 1647.1 26.1121 Q1652.04 26.1121 1655.48 28.6237 Q1658.97 31.1352 1660.63 35.9153 Z" fill="#000000" fill-rule="nonzero" fill-opacity="1" /><path clip-path="url(#clip420)" d="M1744.93 48.0275 L1744.93 51.6733 L1710.65 51.6733 Q1711.14 59.3701 1715.27 63.421 Q1719.45 67.4314 1726.86 67.4314 Q1731.15 67.4314 1735.16 66.3781 Q1739.21 65.3249 1743.18 63.2184 L1743.18 70.267 Q1739.17 71.9684 1734.96 72.8596 Q1730.75 73.7508 1726.41 73.7508 Q1715.56 73.7508 1709.2 67.4314 Q1702.88 61.1119 1702.88 50.3365 Q1702.88 39.1965 1708.87 32.6746 Q1714.91 26.1121 1725.12 26.1121 Q1734.27 26.1121 1739.58 32.0264 Q1744.93 37.9003 1744.93 48.0275 M1737.47 45.84 Q1737.39 39.7232 1734.03 36.0774 Q1730.71 32.4315 1725.2 32.4315 Q1718.96 32.4315 1715.19 35.9558 Q1711.47 39.4801 1710.9 45.8805 L1737.47 45.84 Z" fill="#000000" fill-rule="nonzero" fill-opacity="1" /><circle clip-path="url(#clip422)" cx="309.067" cy="1386.4" r="14.4" fill="#009af9" fill-rule="evenodd" fill-opacity="1" stroke="#000000" stroke-opacity="1" stroke-width="3.2"/>
<circle clip-path="url(#clip422)" cx="391.74" cy="1374.7" r="14.4" fill="#009af9" fill-rule="evenodd" fill-opacity="1" stroke="#000000" stroke-opacity="1" stroke-width="3.2"/>
<circle clip-path="url(#clip422)" cx="474.414" cy="1223.74" r="14.4" fill="#009af9" fill-rule="evenodd" fill-opacity="1" stroke="#000000" stroke-opacity="1" stroke-width="3.2"/>
<circle clip-path="url(#clip422)" cx="557.087" cy="991.762" r="14.4" fill="#009af9" fill-rule="evenodd" fill-opacity="1" stroke="#000000" stroke-opacity="1" stroke-width="3.2"/>
<circle clip-path="url(#clip422)" cx="639.761" cy="780.33" r="14.4" fill="#009af9" fill-rule="evenodd" fill-opacity="1" stroke="#000000" stroke-opacity="1" stroke-width="3.2"/>
<circle clip-path="url(#clip422)" cx="722.434" cy="613.753" r="14.4" fill="#009af9" fill-rule="evenodd" fill-opacity="1" stroke="#000000" stroke-opacity="1" stroke-width="3.2"/>
<circle clip-path="url(#clip422)" cx="805.108" cy="489.594" r="14.4" fill="#009af9" fill-rule="evenodd" fill-opacity="1" stroke="#000000" stroke-opacity="1" stroke-width="3.2"/>
<circle clip-path="url(#clip422)" cx="887.781" cy="398.112" r="14.4" fill="#009af9" fill-rule="evenodd" fill-opacity="1" stroke="#000000" stroke-opacity="1" stroke-width="3.2"/>
<circle clip-path="url(#clip422)" cx="970.455" cy="330.545" r="14.4" fill="#009af9" fill-rule="evenodd" fill-opacity="1" stroke="#000000" stroke-opacity="1" stroke-width="3.2"/>
<circle clip-path="url(#clip422)" cx="1053.13" cy="282.68" r="14.4" fill="#009af9" fill-rule="evenodd" fill-opacity="1" stroke="#000000" stroke-opacity="1" stroke-width="3.2"/>
<circle clip-path="url(#clip422)" cx="1135.8" cy="246.499" r="14.4" fill="#009af9" fill-rule="evenodd" fill-opacity="1" stroke="#000000" stroke-opacity="1" stroke-width="3.2"/>
<circle clip-path="url(#clip422)" cx="1218.48" cy="220.072" r="14.4" fill="#009af9" fill-rule="evenodd" fill-opacity="1" stroke="#000000" stroke-opacity="1" stroke-width="3.2"/>
<circle clip-path="url(#clip422)" cx="1301.15" cy="200.865" r="14.4" fill="#009af9" fill-rule="evenodd" fill-opacity="1" stroke="#000000" stroke-opacity="1" stroke-width="3.2"/>
<circle clip-path="url(#clip422)" cx="1383.82" cy="185.946" r="14.4" fill="#009af9" fill-rule="evenodd" fill-opacity="1" stroke="#000000" stroke-opacity="1" stroke-width="3.2"/>
<circle clip-path="url(#clip422)" cx="1466.5" cy="174.88" r="14.4" fill="#009af9" fill-rule="evenodd" fill-opacity="1" stroke="#000000" stroke-opacity="1" stroke-width="3.2"/>
<circle clip-path="url(#clip422)" cx="1549.17" cy="166.667" r="14.4" fill="#009af9" fill-rule="evenodd" fill-opacity="1" stroke="#000000" stroke-opacity="1" stroke-width="3.2"/>
<circle clip-path="url(#clip422)" cx="1631.84" cy="160.256" r="14.4" fill="#009af9" fill-rule="evenodd" fill-opacity="1" stroke="#000000" stroke-opacity="1" stroke-width="3.2"/>
<polyline clip-path="url(#clip422)" style="stroke:#e26f46; stroke-linecap:round; stroke-linejoin:round; stroke-width:4; stroke-opacity:1; fill:none" points="319.038,1386.4 329.008,1386.4 338.979,1386.4 348.95,1386.4 358.92,1386.4 368.891,1386.4 378.862,1386.4 388.832,1386.4 398.803,1386.39 408.774,1386.39 418.744,1386.37 428.715,1386.33 438.686,1386.24 448.656,1386.06 458.627,1385.76 468.598,1385.27 478.568,1384.55 488.539,1383.54 498.51,1382.18 508.48,1380.41 518.451,1378.18 528.422,1375.47 538.392,1372.22 548.363,1368.42 558.334,1364.06 568.304,1359.11 578.275,1353.58 588.246,1347.47 598.216,1340.79 608.187,1333.56 618.158,1325.79 628.129,1317.51 638.099,1308.74 648.07,1299.51 658.041,1289.84 668.011,1279.77 677.982,1269.32 687.953,1258.52 697.923,1247.4 707.894,1235.99 717.865,1224.32 727.835,1212.42 737.806,1200.31 747.777,1188.01 757.747,1175.56 767.718,1162.97 777.689,1150.27 787.659,1137.47 797.63,1124.6 807.601,1111.68 817.571,1098.72 827.542,1085.74 837.513,1072.75 847.483,1059.77 857.454,1046.82 867.425,1033.89 877.395,1021.01 887.366,1008.19 897.337,995.426 907.307,982.739 917.278,970.133 927.249,957.616 937.219,945.194 947.19,932.874 957.161,920.66 967.131,908.558 977.102,896.573 987.073,884.707 997.043,872.965 1007.01,861.35 1016.98,849.865 1026.96,838.511 1036.93,827.291 1046.9,816.206 1056.87,805.259 1066.84,794.449 1076.81,783.779 1086.78,773.248 1096.75,762.857 1106.72,752.607 1116.69,742.497 1126.66,732.527 1136.63,722.698 1146.6,713.009 1156.57,703.458 1166.54,694.047 1176.52,684.773 1186.49,675.637 1196.46,666.637 1206.43,657.772 1216.4,649.041 1226.37,640.444 1236.34,631.978 1246.31,623.643 1256.28,615.437 1266.25,607.36 1276.22,599.409 1286.19,591.583 1296.16,583.882 1306.13,576.302 1316.1,568.844 1326.08,561.505 1336.05,554.285 1346.02,547.18 1355.99,540.191 1365.96,533.315 1375.93,526.551 1385.9,519.898 1395.87,513.353 1405.84,506.916 1415.81,500.584 1425.78,494.357 1435.75,488.233 1445.72,482.21 1455.69,476.287 1465.67,470.462 1475.64,464.734 1485.61,459.101 1495.58,453.562 1505.55,448.116 1515.52,442.761 1525.49,437.496 1535.46,432.318 1545.43,427.228 1555.4,422.223 1565.37,417.303 1575.34,412.465 1585.31,407.708 1595.28,403.032 1605.25,398.435 1615.23,393.915 1625.2,389.472 1635.17,385.104 1645.14,380.81 1655.11,376.589 1665.08,372.439 1675.05,368.359 1685.02,364.349 1694.99,360.406 1704.96,356.531 1714.93,352.722 1724.9,348.977 1734.87,345.296 1744.84,341.677 1754.81,338.12 1764.79,334.624 1774.76,331.187 1784.73,327.808 1794.7,324.488 1804.67,321.223 1814.64,318.015 1824.61,314.861 1834.58,311.761 1844.55,308.714 1854.52,305.718 1864.49,302.774 1874.46,299.88 1884.43,297.036 1894.4,294.24 1904.37,291.492 1914.35,288.791 1924.32,286.136 1934.29,283.526 1944.26,280.961 1954.23,278.439 1964.2,275.961 1974.17,273.525 1984.14,271.131 1994.11,268.778 2004.08,266.465 2014.05,264.191 2024.02,261.957 2033.99,259.76 2043.96,257.602 2053.93,255.48 2063.91,253.394 2073.88,251.344 2083.85,249.329 2093.82,247.349 2103.79,245.403 2113.76,243.489 2123.73,241.609 2133.7,239.761 2143.67,237.944 2153.64,236.159 2163.61,234.404 2173.58,232.679 2183.55,230.983 2193.52,229.317 2203.49,227.679 2213.47,226.069 2223.44,224.487 2233.41,222.932 2243.38,221.404 2253.35,219.901 2263.32,218.425 2273.29,216.973 2283.26,215.547 2293.23,214.145 "/>
<path clip-path="url(#clip420)" d="M1166.61 1379.86 L2282.65 1379.86 L2282.65 1068.82 L1166.61 1068.82  Z" fill="#ffffff" fill-rule="evenodd" fill-opacity="1"/>
<polyline clip-path="url(#clip420)" style="stroke:#000000; stroke-linecap:round; stroke-linejoin:round; stroke-width:4; stroke-opacity:1; fill:none" points="1166.61,1379.86 2282.65,1379.86 2282.65,1068.82 1166.61,1068.82 1166.61,1379.86 "/>
<circle clip-path="url(#clip420)" cx="1260.09" cy="1172.5" r="20.48" fill="#009af9" fill-rule="evenodd" fill-opacity="1" stroke="#000000" stroke-opacity="1" stroke-width="4.55111"/>
<path clip-path="url(#clip420)" d="M1360.97 1156.49 L1360.97 1163.85 L1369.75 1163.85 L1369.75 1167.16 L1360.97 1167.16 L1360.97 1181.23 Q1360.97 1184.41 1361.83 1185.31 Q1362.71 1186.21 1365.37 1186.21 L1369.75 1186.21 L1369.75 1189.78 L1365.37 1189.78 Q1360.44 1189.78 1358.57 1187.95 Q1356.69 1186.1 1356.69 1181.23 L1356.69 1167.16 L1353.57 1167.16 L1353.57 1163.85 L1356.69 1163.85 L1356.69 1156.49 L1360.97 1156.49 Z" fill="#000000" fill-rule="nonzero" fill-opacity="1" /><path clip-path="url(#clip420)" d="M1390.37 1167.83 Q1389.65 1167.42 1388.8 1167.23 Q1387.96 1167.02 1386.95 1167.02 Q1383.34 1167.02 1381.39 1169.38 Q1379.47 1171.72 1379.47 1176.12 L1379.47 1189.78 L1375.19 1189.78 L1375.19 1163.85 L1379.47 1163.85 L1379.47 1167.88 Q1380.81 1165.52 1382.96 1164.38 Q1385.12 1163.23 1388.2 1163.23 Q1388.64 1163.23 1389.17 1163.29 Q1389.7 1163.34 1390.35 1163.46 L1390.37 1167.83 Z" fill="#000000" fill-rule="nonzero" fill-opacity="1" /><path clip-path="url(#clip420)" d="M1406.62 1176.74 Q1401.46 1176.74 1399.47 1177.92 Q1397.48 1179.11 1397.48 1181.95 Q1397.48 1184.22 1398.96 1185.56 Q1400.46 1186.88 1403.03 1186.88 Q1406.58 1186.88 1408.71 1184.38 Q1410.86 1181.86 1410.86 1177.69 L1410.86 1176.74 L1406.62 1176.74 M1415.12 1174.98 L1415.12 1189.78 L1410.86 1189.78 L1410.86 1185.84 Q1409.4 1188.2 1407.22 1189.34 Q1405.05 1190.45 1401.9 1190.45 Q1397.92 1190.45 1395.56 1188.23 Q1393.22 1185.98 1393.22 1182.23 Q1393.22 1177.86 1396.14 1175.63 Q1399.08 1173.41 1404.89 1173.41 L1410.86 1173.41 L1410.86 1172.99 Q1410.86 1170.05 1408.91 1168.46 Q1406.99 1166.84 1403.5 1166.84 Q1401.28 1166.84 1399.17 1167.37 Q1397.06 1167.9 1395.12 1168.97 L1395.12 1165.03 Q1397.46 1164.13 1399.65 1163.69 Q1401.85 1163.23 1403.94 1163.23 Q1409.56 1163.23 1412.34 1166.14 Q1415.12 1169.06 1415.12 1174.98 Z" fill="#000000" fill-rule="nonzero" fill-opacity="1" /><path clip-path="url(#clip420)" d="M1445.44 1174.13 L1445.44 1189.78 L1441.18 1189.78 L1441.18 1174.27 Q1441.18 1170.59 1439.75 1168.76 Q1438.31 1166.93 1435.44 1166.93 Q1431.99 1166.93 1430 1169.13 Q1428.01 1171.33 1428.01 1175.12 L1428.01 1189.78 L1423.73 1189.78 L1423.73 1163.85 L1428.01 1163.85 L1428.01 1167.88 Q1429.54 1165.54 1431.6 1164.38 Q1433.68 1163.23 1436.39 1163.23 Q1440.86 1163.23 1443.15 1166 Q1445.44 1168.76 1445.44 1174.13 Z" fill="#000000" fill-rule="nonzero" fill-opacity="1" /><path clip-path="url(#clip420)" d="M1470.46 1164.61 L1470.46 1168.64 Q1468.66 1167.72 1466.71 1167.25 Q1464.77 1166.79 1462.69 1166.79 Q1459.52 1166.79 1457.92 1167.76 Q1456.34 1168.73 1456.34 1170.68 Q1456.34 1172.16 1457.48 1173.02 Q1458.61 1173.85 1462.04 1174.61 L1463.5 1174.94 Q1468.03 1175.91 1469.93 1177.69 Q1471.85 1179.45 1471.85 1182.62 Q1471.85 1186.23 1468.98 1188.34 Q1466.14 1190.45 1461.14 1190.45 Q1459.05 1190.45 1456.78 1190.03 Q1454.54 1189.64 1452.04 1188.83 L1452.04 1184.43 Q1454.4 1185.66 1456.69 1186.28 Q1458.98 1186.88 1461.23 1186.88 Q1464.24 1186.88 1465.86 1185.86 Q1467.48 1184.82 1467.48 1182.95 Q1467.48 1181.21 1466.3 1180.29 Q1465.14 1179.36 1461.18 1178.5 L1459.7 1178.16 Q1455.74 1177.32 1453.98 1175.61 Q1452.22 1173.87 1452.22 1170.86 Q1452.22 1167.21 1454.82 1165.22 Q1457.41 1163.23 1462.18 1163.23 Q1464.54 1163.23 1466.62 1163.57 Q1468.71 1163.92 1470.46 1164.61 Z" fill="#000000" fill-rule="nonzero" fill-opacity="1" /><path clip-path="url(#clip420)" d="M1478.64 1163.85 L1482.9 1163.85 L1482.9 1189.78 L1478.64 1189.78 L1478.64 1163.85 M1478.64 1153.76 L1482.9 1153.76 L1482.9 1159.15 L1478.64 1159.15 L1478.64 1153.76 Z" fill="#000000" fill-rule="nonzero" fill-opacity="1" /><path clip-path="url(#clip420)" d="M1513.98 1175.75 L1513.98 1177.83 L1494.4 1177.83 Q1494.68 1182.23 1497.04 1184.54 Q1499.42 1186.84 1503.66 1186.84 Q1506.11 1186.84 1508.4 1186.23 Q1510.72 1185.63 1512.99 1184.43 L1512.99 1188.46 Q1510.7 1189.43 1508.29 1189.94 Q1505.88 1190.45 1503.4 1190.45 Q1497.2 1190.45 1493.57 1186.84 Q1489.96 1183.23 1489.96 1177.07 Q1489.96 1170.7 1493.38 1166.98 Q1496.83 1163.23 1502.66 1163.23 Q1507.89 1163.23 1510.93 1166.61 Q1513.98 1169.96 1513.98 1175.75 M1509.72 1174.5 Q1509.68 1171 1507.76 1168.92 Q1505.86 1166.84 1502.71 1166.84 Q1499.14 1166.84 1496.99 1168.85 Q1494.86 1170.86 1494.54 1174.52 L1509.72 1174.5 Z" fill="#000000" fill-rule="nonzero" fill-opacity="1" /><path clip-path="url(#clip420)" d="M1542.52 1174.13 L1542.52 1189.78 L1538.27 1189.78 L1538.27 1174.27 Q1538.27 1170.59 1536.83 1168.76 Q1535.39 1166.93 1532.52 1166.93 Q1529.08 1166.93 1527.08 1169.13 Q1525.09 1171.33 1525.09 1175.12 L1525.09 1189.78 L1520.81 1189.78 L1520.81 1163.85 L1525.09 1163.85 L1525.09 1167.88 Q1526.62 1165.54 1528.68 1164.38 Q1530.77 1163.23 1533.47 1163.23 Q1537.94 1163.23 1540.23 1166 Q1542.52 1168.76 1542.52 1174.13 Z" fill="#000000" fill-rule="nonzero" fill-opacity="1" /><path clip-path="url(#clip420)" d="M1555.23 1156.49 L1555.23 1163.85 L1564.01 1163.85 L1564.01 1167.16 L1555.23 1167.16 L1555.23 1181.23 Q1555.23 1184.41 1556.09 1185.31 Q1556.97 1186.21 1559.63 1186.21 L1564.01 1186.21 L1564.01 1189.78 L1559.63 1189.78 Q1554.7 1189.78 1552.83 1187.95 Q1550.95 1186.1 1550.95 1181.23 L1550.95 1167.16 L1547.83 1167.16 L1547.83 1163.85 L1550.95 1163.85 L1550.95 1156.49 L1555.23 1156.49 Z" fill="#000000" fill-rule="nonzero" fill-opacity="1" /><path clip-path="url(#clip420)" d="M1601.74 1167.79 L1601.74 1153.76 L1606 1153.76 L1606 1189.78 L1601.74 1189.78 L1601.74 1185.89 Q1600.39 1188.2 1598.33 1189.34 Q1596.3 1190.45 1593.43 1190.45 Q1588.73 1190.45 1585.76 1186.7 Q1582.83 1182.95 1582.83 1176.84 Q1582.83 1170.73 1585.76 1166.98 Q1588.73 1163.23 1593.43 1163.23 Q1596.3 1163.23 1598.33 1164.36 Q1600.39 1165.47 1601.74 1167.79 M1587.22 1176.84 Q1587.22 1181.54 1589.14 1184.22 Q1591.09 1186.88 1594.47 1186.88 Q1597.85 1186.88 1599.79 1184.22 Q1601.74 1181.54 1601.74 1176.84 Q1601.74 1172.14 1599.79 1169.48 Q1597.85 1166.79 1594.47 1166.79 Q1591.09 1166.79 1589.14 1169.48 Q1587.22 1172.14 1587.22 1176.84 Z" fill="#000000" fill-rule="nonzero" fill-opacity="1" /><path clip-path="url(#clip420)" d="M1626.55 1176.74 Q1621.39 1176.74 1619.4 1177.92 Q1617.41 1179.11 1617.41 1181.95 Q1617.41 1184.22 1618.89 1185.56 Q1620.39 1186.88 1622.96 1186.88 Q1626.51 1186.88 1628.63 1184.38 Q1630.79 1181.86 1630.79 1177.69 L1630.79 1176.74 L1626.55 1176.74 M1635.05 1174.98 L1635.05 1189.78 L1630.79 1189.78 L1630.79 1185.84 Q1629.33 1188.2 1627.15 1189.34 Q1624.98 1190.45 1621.83 1190.45 Q1617.85 1190.45 1615.49 1188.23 Q1613.15 1185.98 1613.15 1182.23 Q1613.15 1177.86 1616.07 1175.63 Q1619.01 1173.41 1624.82 1173.41 L1630.79 1173.41 L1630.79 1172.99 Q1630.79 1170.05 1628.84 1168.46 Q1626.92 1166.84 1623.43 1166.84 Q1621.2 1166.84 1619.1 1167.37 Q1616.99 1167.9 1615.05 1168.97 L1615.05 1165.03 Q1617.39 1164.13 1619.58 1163.69 Q1621.78 1163.23 1623.87 1163.23 Q1629.49 1163.23 1632.27 1166.14 Q1635.05 1169.06 1635.05 1174.98 Z" fill="#000000" fill-rule="nonzero" fill-opacity="1" /><path clip-path="url(#clip420)" d="M1648.03 1156.49 L1648.03 1163.85 L1656.81 1163.85 L1656.81 1167.16 L1648.03 1167.16 L1648.03 1181.23 Q1648.03 1184.41 1648.89 1185.31 Q1649.77 1186.21 1652.43 1186.21 L1656.81 1186.21 L1656.81 1189.78 L1652.43 1189.78 Q1647.5 1189.78 1645.63 1187.95 Q1643.75 1186.1 1643.75 1181.23 L1643.75 1167.16 L1640.63 1167.16 L1640.63 1163.85 L1643.75 1163.85 L1643.75 1156.49 L1648.03 1156.49 Z" fill="#000000" fill-rule="nonzero" fill-opacity="1" /><path clip-path="url(#clip420)" d="M1674.19 1176.74 Q1669.03 1176.74 1667.04 1177.92 Q1665.05 1179.11 1665.05 1181.95 Q1665.05 1184.22 1666.53 1185.56 Q1668.03 1186.88 1670.6 1186.88 Q1674.14 1186.88 1676.27 1184.38 Q1678.43 1181.86 1678.43 1177.69 L1678.43 1176.74 L1674.19 1176.74 M1682.69 1174.98 L1682.69 1189.78 L1678.43 1189.78 L1678.43 1185.84 Q1676.97 1188.2 1674.79 1189.34 Q1672.62 1190.45 1669.47 1190.45 Q1665.49 1190.45 1663.13 1188.23 Q1660.79 1185.98 1660.79 1182.23 Q1660.79 1177.86 1663.7 1175.63 Q1666.64 1173.41 1672.45 1173.41 L1678.43 1173.41 L1678.43 1172.99 Q1678.43 1170.05 1676.48 1168.46 Q1674.56 1166.84 1671.07 1166.84 Q1668.84 1166.84 1666.74 1167.37 Q1664.63 1167.9 1662.69 1168.97 L1662.69 1165.03 Q1665.02 1164.13 1667.22 1163.69 Q1669.42 1163.23 1671.51 1163.23 Q1677.13 1163.23 1679.91 1166.14 Q1682.69 1169.06 1682.69 1174.98 Z" fill="#000000" fill-rule="nonzero" fill-opacity="1" /><path clip-path="url(#clip420)" d="M1719.65 1153.76 L1719.65 1157.3 L1715.58 1157.3 Q1713.29 1157.3 1712.38 1158.23 Q1711.5 1159.15 1711.5 1161.56 L1711.5 1163.85 L1718.52 1163.85 L1718.52 1167.16 L1711.5 1167.16 L1711.5 1189.78 L1707.22 1189.78 L1707.22 1167.16 L1703.15 1167.16 L1703.15 1163.85 L1707.22 1163.85 L1707.22 1162.04 Q1707.22 1157.72 1709.24 1155.75 Q1711.25 1153.76 1715.63 1153.76 L1719.65 1153.76 Z" fill="#000000" fill-rule="nonzero" fill-opacity="1" /><path clip-path="url(#clip420)" d="M1733.26 1166.84 Q1729.84 1166.84 1727.85 1169.52 Q1725.86 1172.18 1725.86 1176.84 Q1725.86 1181.49 1727.82 1184.17 Q1729.81 1186.84 1733.26 1186.84 Q1736.67 1186.84 1738.66 1184.15 Q1740.65 1181.47 1740.65 1176.84 Q1740.65 1172.23 1738.66 1169.54 Q1736.67 1166.84 1733.26 1166.84 M1733.26 1163.23 Q1738.82 1163.23 1741.99 1166.84 Q1745.16 1170.45 1745.16 1176.84 Q1745.16 1183.2 1741.99 1186.84 Q1738.82 1190.45 1733.26 1190.45 Q1727.69 1190.45 1724.51 1186.84 Q1721.37 1183.2 1721.37 1176.84 Q1721.37 1170.45 1724.51 1166.84 Q1727.69 1163.23 1733.26 1163.23 Z" fill="#000000" fill-rule="nonzero" fill-opacity="1" /><path clip-path="url(#clip420)" d="M1767.25 1167.83 Q1766.53 1167.42 1765.67 1167.23 Q1764.84 1167.02 1763.82 1167.02 Q1760.21 1167.02 1758.26 1169.38 Q1756.34 1171.72 1756.34 1176.12 L1756.34 1189.78 L1752.06 1189.78 L1752.06 1163.85 L1756.34 1163.85 L1756.34 1167.88 Q1757.69 1165.52 1759.84 1164.38 Q1761.99 1163.23 1765.07 1163.23 Q1765.51 1163.23 1766.04 1163.29 Q1766.57 1163.34 1767.22 1163.46 L1767.25 1167.83 Z" fill="#000000" fill-rule="nonzero" fill-opacity="1" /><path clip-path="url(#clip420)" d="M1786.78 1163.85 L1791.04 1163.85 L1791.04 1189.78 L1786.78 1189.78 L1786.78 1163.85 M1786.78 1153.76 L1791.04 1153.76 L1791.04 1159.15 L1786.78 1159.15 L1786.78 1153.76 Z" fill="#000000" fill-rule="nonzero" fill-opacity="1" /><path clip-path="url(#clip420)" d="M1820.14 1168.83 Q1821.74 1165.96 1823.96 1164.59 Q1826.18 1163.23 1829.19 1163.23 Q1833.24 1163.23 1835.44 1166.07 Q1837.64 1168.9 1837.64 1174.13 L1837.64 1189.78 L1833.36 1189.78 L1833.36 1174.27 Q1833.36 1170.54 1832.04 1168.73 Q1830.72 1166.93 1828.01 1166.93 Q1824.7 1166.93 1822.78 1169.13 Q1820.86 1171.33 1820.86 1175.12 L1820.86 1189.78 L1816.57 1189.78 L1816.57 1174.27 Q1816.57 1170.52 1815.25 1168.73 Q1813.93 1166.93 1811.18 1166.93 Q1807.92 1166.93 1806 1169.15 Q1804.07 1171.35 1804.07 1175.12 L1804.07 1189.78 L1799.79 1189.78 L1799.79 1163.85 L1804.07 1163.85 L1804.07 1167.88 Q1805.53 1165.49 1807.57 1164.36 Q1809.61 1163.23 1812.41 1163.23 Q1815.23 1163.23 1817.2 1164.66 Q1819.19 1166.1 1820.14 1168.83 Z" fill="#000000" fill-rule="nonzero" fill-opacity="1" /><path clip-path="url(#clip420)" d="M1857.92 1176.74 Q1852.75 1176.74 1850.76 1177.92 Q1848.77 1179.11 1848.77 1181.95 Q1848.77 1184.22 1850.25 1185.56 Q1851.76 1186.88 1854.33 1186.88 Q1857.87 1186.88 1860 1184.38 Q1862.15 1181.86 1862.15 1177.69 L1862.15 1176.74 L1857.92 1176.74 M1866.41 1174.98 L1866.41 1189.78 L1862.15 1189.78 L1862.15 1185.84 Q1860.69 1188.2 1858.52 1189.34 Q1856.34 1190.45 1853.19 1190.45 Q1849.21 1190.45 1846.85 1188.23 Q1844.51 1185.98 1844.51 1182.23 Q1844.51 1177.86 1847.43 1175.63 Q1850.37 1173.41 1856.18 1173.41 L1862.15 1173.41 L1862.15 1172.99 Q1862.15 1170.05 1860.21 1168.46 Q1858.29 1166.84 1854.79 1166.84 Q1852.57 1166.84 1850.46 1167.37 Q1848.36 1167.9 1846.41 1168.97 L1846.41 1165.03 Q1848.75 1164.13 1850.95 1163.69 Q1853.15 1163.23 1855.23 1163.23 Q1860.86 1163.23 1863.63 1166.14 Q1866.41 1169.06 1866.41 1174.98 Z" fill="#000000" fill-rule="nonzero" fill-opacity="1" /><path clip-path="url(#clip420)" d="M1892.24 1176.51 Q1892.24 1171.88 1890.32 1169.34 Q1888.43 1166.79 1884.98 1166.79 Q1881.55 1166.79 1879.63 1169.34 Q1877.73 1171.88 1877.73 1176.51 Q1877.73 1181.12 1879.63 1183.67 Q1881.55 1186.21 1884.98 1186.21 Q1888.43 1186.21 1890.32 1183.67 Q1892.24 1181.12 1892.24 1176.51 M1896.5 1186.56 Q1896.5 1193.18 1893.56 1196.4 Q1890.62 1199.64 1884.56 1199.64 Q1882.31 1199.64 1880.32 1199.29 Q1878.33 1198.97 1876.46 1198.27 L1876.46 1194.13 Q1878.33 1195.15 1880.16 1195.63 Q1881.99 1196.12 1883.89 1196.12 Q1888.08 1196.12 1890.16 1193.92 Q1892.24 1191.74 1892.24 1187.32 L1892.24 1185.22 Q1890.93 1187.51 1888.87 1188.64 Q1886.8 1189.78 1883.93 1189.78 Q1879.17 1189.78 1876.25 1186.14 Q1873.33 1182.51 1873.33 1176.51 Q1873.33 1170.49 1876.25 1166.86 Q1879.17 1163.23 1883.93 1163.23 Q1886.8 1163.23 1888.87 1164.36 Q1890.93 1165.49 1892.24 1167.79 L1892.24 1163.85 L1896.5 1163.85 L1896.5 1186.56 Z" fill="#000000" fill-rule="nonzero" fill-opacity="1" /><path clip-path="url(#clip420)" d="M1927.45 1175.75 L1927.45 1177.83 L1907.87 1177.83 Q1908.15 1182.23 1910.51 1184.54 Q1912.89 1186.84 1917.13 1186.84 Q1919.58 1186.84 1921.87 1186.23 Q1924.19 1185.63 1926.46 1184.43 L1926.46 1188.46 Q1924.17 1189.43 1921.76 1189.94 Q1919.35 1190.45 1916.87 1190.45 Q1910.67 1190.45 1907.04 1186.84 Q1903.43 1183.23 1903.43 1177.07 Q1903.43 1170.7 1906.85 1166.98 Q1910.3 1163.23 1916.13 1163.23 Q1921.36 1163.23 1924.4 1166.61 Q1927.45 1169.96 1927.45 1175.75 M1923.19 1174.5 Q1923.15 1171 1921.23 1168.92 Q1919.33 1166.84 1916.18 1166.84 Q1912.61 1166.84 1910.46 1168.85 Q1908.33 1170.86 1908.01 1174.52 L1923.19 1174.5 Z" fill="#000000" fill-rule="nonzero" fill-opacity="1" /><polyline clip-path="url(#clip420)" style="stroke:#e26f46; stroke-linecap:round; stroke-linejoin:round; stroke-width:4; stroke-opacity:1; fill:none" points="1189.98,1276.18 1330.2,1276.18 "/>
<path clip-path="url(#clip420)" d="M1375.28 1251.89 L1375.28 1267.54 L1371.02 1267.54 L1371.02 1252.03 Q1371.02 1248.35 1369.59 1246.52 Q1368.15 1244.69 1365.28 1244.69 Q1361.83 1244.69 1359.84 1246.89 Q1357.85 1249.09 1357.85 1252.88 L1357.85 1267.54 L1353.57 1267.54 L1353.57 1231.52 L1357.85 1231.52 L1357.85 1245.64 Q1359.38 1243.3 1361.44 1242.14 Q1363.52 1240.99 1366.23 1240.99 Q1370.7 1240.99 1372.99 1243.76 Q1375.28 1246.52 1375.28 1251.89 Z" fill="#000000" fill-rule="nonzero" fill-opacity="1" /><path clip-path="url(#clip420)" d="M1393.82 1244.6 Q1390.4 1244.6 1388.4 1247.28 Q1386.41 1249.94 1386.41 1254.6 Q1386.41 1259.25 1388.38 1261.93 Q1390.37 1264.6 1393.82 1264.6 Q1397.22 1264.6 1399.21 1261.91 Q1401.21 1259.23 1401.21 1254.6 Q1401.21 1249.99 1399.21 1247.3 Q1397.22 1244.6 1393.82 1244.6 M1393.82 1240.99 Q1399.38 1240.99 1402.55 1244.6 Q1405.72 1248.21 1405.72 1254.6 Q1405.72 1260.96 1402.55 1264.6 Q1399.38 1268.21 1393.82 1268.21 Q1388.24 1268.21 1385.07 1264.6 Q1381.92 1260.96 1381.92 1254.6 Q1381.92 1248.21 1385.07 1244.6 Q1388.24 1240.99 1393.82 1240.99 Z" fill="#000000" fill-rule="nonzero" fill-opacity="1" /><path clip-path="url(#clip420)" d="M1432.96 1246.59 Q1434.56 1243.72 1436.78 1242.35 Q1439.01 1240.99 1442.02 1240.99 Q1446.07 1240.99 1448.27 1243.83 Q1450.46 1246.66 1450.46 1251.89 L1450.46 1267.54 L1446.18 1267.54 L1446.18 1252.03 Q1446.18 1248.3 1444.86 1246.49 Q1443.54 1244.69 1440.84 1244.69 Q1437.52 1244.69 1435.6 1246.89 Q1433.68 1249.09 1433.68 1252.88 L1433.68 1267.54 L1429.4 1267.54 L1429.4 1252.03 Q1429.4 1248.28 1428.08 1246.49 Q1426.76 1244.69 1424.01 1244.69 Q1420.74 1244.69 1418.82 1246.91 Q1416.9 1249.11 1416.9 1252.88 L1416.9 1267.54 L1412.62 1267.54 L1412.62 1241.61 L1416.9 1241.61 L1416.9 1245.64 Q1418.36 1243.25 1420.4 1242.12 Q1422.43 1240.99 1425.23 1240.99 Q1428.06 1240.99 1430.02 1242.42 Q1432.02 1243.86 1432.96 1246.59 Z" fill="#000000" fill-rule="nonzero" fill-opacity="1" /><path clip-path="url(#clip420)" d="M1469.01 1244.6 Q1465.58 1244.6 1463.59 1247.28 Q1461.6 1249.94 1461.6 1254.6 Q1461.6 1259.25 1463.57 1261.93 Q1465.56 1264.6 1469.01 1264.6 Q1472.41 1264.6 1474.4 1261.91 Q1476.39 1259.23 1476.39 1254.6 Q1476.39 1249.99 1474.4 1247.3 Q1472.41 1244.6 1469.01 1244.6 M1469.01 1240.99 Q1474.56 1240.99 1477.73 1244.6 Q1480.9 1248.21 1480.9 1254.6 Q1480.9 1260.96 1477.73 1264.6 Q1474.56 1268.21 1469.01 1268.21 Q1463.43 1268.21 1460.26 1264.6 Q1457.11 1260.96 1457.11 1254.6 Q1457.11 1248.21 1460.26 1244.6 Q1463.43 1240.99 1469.01 1240.99 Z" fill="#000000" fill-rule="nonzero" fill-opacity="1" /><path clip-path="url(#clip420)" d="M1505.02 1254.27 Q1505.02 1249.64 1503.1 1247.1 Q1501.21 1244.55 1497.76 1244.55 Q1494.33 1244.55 1492.41 1247.1 Q1490.51 1249.64 1490.51 1254.27 Q1490.51 1258.88 1492.41 1261.43 Q1494.33 1263.97 1497.76 1263.97 Q1501.21 1263.97 1503.1 1261.43 Q1505.02 1258.88 1505.02 1254.27 M1509.28 1264.32 Q1509.28 1270.94 1506.34 1274.16 Q1503.4 1277.4 1497.34 1277.4 Q1495.09 1277.4 1493.1 1277.05 Q1491.11 1276.73 1489.24 1276.03 L1489.24 1271.89 Q1491.11 1272.91 1492.94 1273.39 Q1494.77 1273.88 1496.67 1273.88 Q1500.86 1273.88 1502.94 1271.68 Q1505.02 1269.5 1505.02 1265.08 L1505.02 1262.98 Q1503.71 1265.27 1501.64 1266.4 Q1499.58 1267.54 1496.71 1267.54 Q1491.95 1267.54 1489.03 1263.9 Q1486.11 1260.27 1486.11 1254.27 Q1486.11 1248.25 1489.03 1244.62 Q1491.95 1240.99 1496.71 1240.99 Q1499.58 1240.99 1501.64 1242.12 Q1503.71 1243.25 1505.02 1245.55 L1505.02 1241.61 L1509.28 1241.61 L1509.28 1264.32 Z" fill="#000000" fill-rule="nonzero" fill-opacity="1" /><path clip-path="url(#clip420)" d="M1540.23 1253.51 L1540.23 1255.59 L1520.65 1255.59 Q1520.93 1259.99 1523.29 1262.3 Q1525.67 1264.6 1529.91 1264.6 Q1532.36 1264.6 1534.65 1263.99 Q1536.97 1263.39 1539.24 1262.19 L1539.24 1266.22 Q1536.95 1267.19 1534.54 1267.7 Q1532.13 1268.21 1529.65 1268.21 Q1523.45 1268.21 1519.82 1264.6 Q1516.21 1260.99 1516.21 1254.83 Q1516.21 1248.46 1519.63 1244.74 Q1523.08 1240.99 1528.91 1240.99 Q1534.14 1240.99 1537.18 1244.37 Q1540.23 1247.72 1540.23 1253.51 M1535.97 1252.26 Q1535.93 1248.76 1534.01 1246.68 Q1532.11 1244.6 1528.96 1244.6 Q1525.39 1244.6 1523.24 1246.61 Q1521.11 1248.62 1520.79 1252.28 L1535.97 1252.26 Z" fill="#000000" fill-rule="nonzero" fill-opacity="1" /><path clip-path="url(#clip420)" d="M1568.77 1251.89 L1568.77 1267.54 L1564.51 1267.54 L1564.51 1252.03 Q1564.51 1248.35 1563.08 1246.52 Q1561.64 1244.69 1558.77 1244.69 Q1555.33 1244.69 1553.33 1246.89 Q1551.34 1249.09 1551.34 1252.88 L1551.34 1267.54 L1547.06 1267.54 L1547.06 1241.61 L1551.34 1241.61 L1551.34 1245.64 Q1552.87 1243.3 1554.93 1242.14 Q1557.01 1240.99 1559.72 1240.99 Q1564.19 1240.99 1566.48 1243.76 Q1568.77 1246.52 1568.77 1251.89 Z" fill="#000000" fill-rule="nonzero" fill-opacity="1" /><path clip-path="url(#clip420)" d="M1587.32 1244.6 Q1583.89 1244.6 1581.9 1247.28 Q1579.91 1249.94 1579.91 1254.6 Q1579.91 1259.25 1581.88 1261.93 Q1583.87 1264.6 1587.32 1264.6 Q1590.72 1264.6 1592.71 1261.91 Q1594.7 1259.23 1594.7 1254.6 Q1594.7 1249.99 1592.71 1247.3 Q1590.72 1244.6 1587.32 1244.6 M1587.32 1240.99 Q1592.87 1240.99 1596.04 1244.6 Q1599.21 1248.21 1599.21 1254.6 Q1599.21 1260.96 1596.04 1264.6 Q1592.87 1268.21 1587.32 1268.21 Q1581.74 1268.21 1578.57 1264.6 Q1575.42 1260.96 1575.42 1254.6 Q1575.42 1248.21 1578.57 1244.6 Q1581.74 1240.99 1587.32 1240.99 Z" fill="#000000" fill-rule="nonzero" fill-opacity="1" /><path clip-path="url(#clip420)" d="M1605.83 1257.3 L1605.83 1241.61 L1610.09 1241.61 L1610.09 1257.14 Q1610.09 1260.82 1611.53 1262.68 Q1612.96 1264.5 1615.83 1264.5 Q1619.28 1264.5 1621.27 1262.3 Q1623.29 1260.11 1623.29 1256.31 L1623.29 1241.61 L1627.55 1241.61 L1627.55 1267.54 L1623.29 1267.54 L1623.29 1263.55 Q1621.74 1265.92 1619.68 1267.07 Q1617.64 1268.21 1614.93 1268.21 Q1610.46 1268.21 1608.15 1265.43 Q1605.83 1262.65 1605.83 1257.3 M1616.55 1240.99 L1616.55 1240.99 Z" fill="#000000" fill-rule="nonzero" fill-opacity="1" /><path clip-path="url(#clip420)" d="M1652.85 1242.37 L1652.85 1246.4 Q1651.04 1245.48 1649.1 1245.01 Q1647.15 1244.55 1645.07 1244.55 Q1641.9 1244.55 1640.3 1245.52 Q1638.73 1246.49 1638.73 1248.44 Q1638.73 1249.92 1639.86 1250.78 Q1641 1251.61 1644.42 1252.37 L1645.88 1252.7 Q1650.42 1253.67 1652.32 1255.45 Q1654.24 1257.21 1654.24 1260.38 Q1654.24 1263.99 1651.37 1266.1 Q1648.52 1268.21 1643.52 1268.21 Q1641.44 1268.21 1639.17 1267.79 Q1636.92 1267.4 1634.42 1266.59 L1634.42 1262.19 Q1636.78 1263.42 1639.07 1264.04 Q1641.37 1264.64 1643.61 1264.64 Q1646.62 1264.64 1648.24 1263.62 Q1649.86 1262.58 1649.86 1260.71 Q1649.86 1258.97 1648.68 1258.05 Q1647.52 1257.12 1643.57 1256.26 L1642.08 1255.92 Q1638.13 1255.08 1636.37 1253.37 Q1634.61 1251.63 1634.61 1248.62 Q1634.61 1244.97 1637.2 1242.98 Q1639.79 1240.99 1644.56 1240.99 Q1646.92 1240.99 1649.01 1241.33 Q1651.09 1241.68 1652.85 1242.37 Z" fill="#000000" fill-rule="nonzero" fill-opacity="1" /><path clip-path="url(#clip420)" d="M1692.62 1242.37 L1692.62 1246.4 Q1690.81 1245.48 1688.87 1245.01 Q1686.92 1244.55 1684.84 1244.55 Q1681.67 1244.55 1680.07 1245.52 Q1678.5 1246.49 1678.5 1248.44 Q1678.5 1249.92 1679.63 1250.78 Q1680.76 1251.61 1684.19 1252.37 L1685.65 1252.7 Q1690.19 1253.67 1692.08 1255.45 Q1694 1257.21 1694 1260.38 Q1694 1263.99 1691.13 1266.1 Q1688.29 1268.21 1683.29 1268.21 Q1681.2 1268.21 1678.94 1267.79 Q1676.69 1267.4 1674.19 1266.59 L1674.19 1262.19 Q1676.55 1263.42 1678.84 1264.04 Q1681.13 1264.64 1683.38 1264.64 Q1686.39 1264.64 1688.01 1263.62 Q1689.63 1262.58 1689.63 1260.71 Q1689.63 1258.97 1688.45 1258.05 Q1687.29 1257.12 1683.33 1256.26 L1681.85 1255.92 Q1677.89 1255.08 1676.13 1253.37 Q1674.38 1251.63 1674.38 1248.62 Q1674.38 1244.97 1676.97 1242.98 Q1679.56 1240.99 1684.33 1240.99 Q1686.69 1240.99 1688.77 1241.33 Q1690.86 1241.68 1692.62 1242.37 Z" fill="#000000" fill-rule="nonzero" fill-opacity="1" /><path clip-path="url(#clip420)" d="M1710.83 1244.6 Q1707.41 1244.6 1705.42 1247.28 Q1703.43 1249.94 1703.43 1254.6 Q1703.43 1259.25 1705.39 1261.93 Q1707.38 1264.6 1710.83 1264.6 Q1714.24 1264.6 1716.23 1261.91 Q1718.22 1259.23 1718.22 1254.6 Q1718.22 1249.99 1716.23 1247.3 Q1714.24 1244.6 1710.83 1244.6 M1710.83 1240.99 Q1716.39 1240.99 1719.56 1244.6 Q1722.73 1248.21 1722.73 1254.6 Q1722.73 1260.96 1719.56 1264.6 Q1716.39 1268.21 1710.83 1268.21 Q1705.25 1268.21 1702.08 1264.6 Q1698.94 1260.96 1698.94 1254.6 Q1698.94 1248.21 1702.08 1244.6 Q1705.25 1240.99 1710.83 1240.99 Z" fill="#000000" fill-rule="nonzero" fill-opacity="1" /><path clip-path="url(#clip420)" d="M1729.79 1231.52 L1734.05 1231.52 L1734.05 1267.54 L1729.79 1267.54 L1729.79 1231.52 Z" fill="#000000" fill-rule="nonzero" fill-opacity="1" /><path clip-path="url(#clip420)" d="M1742.52 1257.3 L1742.52 1241.61 L1746.78 1241.61 L1746.78 1257.14 Q1746.78 1260.82 1748.22 1262.68 Q1749.65 1264.5 1752.52 1264.5 Q1755.97 1264.5 1757.96 1262.3 Q1759.98 1260.11 1759.98 1256.31 L1759.98 1241.61 L1764.24 1241.61 L1764.24 1267.54 L1759.98 1267.54 L1759.98 1263.55 Q1758.43 1265.92 1756.37 1267.07 Q1754.33 1268.21 1751.62 1268.21 Q1747.15 1268.21 1744.84 1265.43 Q1742.52 1262.65 1742.52 1257.3 M1753.24 1240.99 L1753.24 1240.99 Z" fill="#000000" fill-rule="nonzero" fill-opacity="1" /><path clip-path="url(#clip420)" d="M1777.22 1234.25 L1777.22 1241.61 L1786 1241.61 L1786 1244.92 L1777.22 1244.92 L1777.22 1258.99 Q1777.22 1262.17 1778.08 1263.07 Q1778.96 1263.97 1781.62 1263.97 L1786 1263.97 L1786 1267.54 L1781.62 1267.54 Q1776.69 1267.54 1774.81 1265.71 Q1772.94 1263.86 1772.94 1258.99 L1772.94 1244.92 L1769.81 1244.92 L1769.81 1241.61 L1772.94 1241.61 L1772.94 1234.25 L1777.22 1234.25 Z" fill="#000000" fill-rule="nonzero" fill-opacity="1" /><path clip-path="url(#clip420)" d="M1791.6 1241.61 L1795.86 1241.61 L1795.86 1267.54 L1791.6 1267.54 L1791.6 1241.61 M1791.6 1231.52 L1795.86 1231.52 L1795.86 1236.91 L1791.6 1236.91 L1791.6 1231.52 Z" fill="#000000" fill-rule="nonzero" fill-opacity="1" /><path clip-path="url(#clip420)" d="M1814.81 1244.6 Q1811.39 1244.6 1809.4 1247.28 Q1807.41 1249.94 1807.41 1254.6 Q1807.41 1259.25 1809.37 1261.93 Q1811.37 1264.6 1814.81 1264.6 Q1818.22 1264.6 1820.21 1261.91 Q1822.2 1259.23 1822.2 1254.6 Q1822.2 1249.99 1820.21 1247.3 Q1818.22 1244.6 1814.81 1244.6 M1814.81 1240.99 Q1820.37 1240.99 1823.54 1244.6 Q1826.71 1248.21 1826.71 1254.6 Q1826.71 1260.96 1823.54 1264.6 Q1820.37 1268.21 1814.81 1268.21 Q1809.24 1268.21 1806.06 1264.6 Q1802.92 1260.96 1802.92 1254.6 Q1802.92 1248.21 1806.06 1244.6 Q1809.24 1240.99 1814.81 1240.99 Z" fill="#000000" fill-rule="nonzero" fill-opacity="1" /><path clip-path="url(#clip420)" d="M1855.32 1251.89 L1855.32 1267.54 L1851.06 1267.54 L1851.06 1252.03 Q1851.06 1248.35 1849.63 1246.52 Q1848.19 1244.69 1845.32 1244.69 Q1841.87 1244.69 1839.88 1246.89 Q1837.89 1249.09 1837.89 1252.88 L1837.89 1267.54 L1833.61 1267.54 L1833.61 1241.61 L1837.89 1241.61 L1837.89 1245.64 Q1839.42 1243.3 1841.48 1242.14 Q1843.56 1240.99 1846.27 1240.99 Q1850.74 1240.99 1853.03 1243.76 Q1855.32 1246.52 1855.32 1251.89 Z" fill="#000000" fill-rule="nonzero" fill-opacity="1" /><path clip-path="url(#clip420)" d="M1876.41 1241.61 L1880.67 1241.61 L1885.99 1261.84 L1891.3 1241.61 L1896.32 1241.61 L1901.64 1261.84 L1906.94 1241.61 L1911.2 1241.61 L1904.42 1267.54 L1899.4 1267.54 L1893.82 1246.29 L1888.22 1267.54 L1883.19 1267.54 L1876.41 1241.61 Z" fill="#000000" fill-rule="nonzero" fill-opacity="1" /><path clip-path="url(#clip420)" d="M1917.66 1241.61 L1921.92 1241.61 L1921.92 1267.54 L1917.66 1267.54 L1917.66 1241.61 M1917.66 1231.52 L1921.92 1231.52 L1921.92 1236.91 L1917.66 1236.91 L1917.66 1231.52 Z" fill="#000000" fill-rule="nonzero" fill-opacity="1" /><path clip-path="url(#clip420)" d="M1935.05 1234.25 L1935.05 1241.61 L1943.82 1241.61 L1943.82 1244.92 L1935.05 1244.92 L1935.05 1258.99 Q1935.05 1262.17 1935.9 1263.07 Q1936.78 1263.97 1939.44 1263.97 L1943.82 1263.97 L1943.82 1267.54 L1939.44 1267.54 Q1934.51 1267.54 1932.64 1265.71 Q1930.76 1263.86 1930.76 1258.99 L1930.76 1244.92 L1927.64 1244.92 L1927.64 1241.61 L1930.76 1241.61 L1930.76 1234.25 L1935.05 1234.25 Z" fill="#000000" fill-rule="nonzero" fill-opacity="1" /><path clip-path="url(#clip420)" d="M1970.97 1251.89 L1970.97 1267.54 L1966.71 1267.54 L1966.71 1252.03 Q1966.71 1248.35 1965.28 1246.52 Q1963.84 1244.69 1960.97 1244.69 Q1957.52 1244.69 1955.53 1246.89 Q1953.54 1249.09 1953.54 1252.88 L1953.54 1267.54 L1949.26 1267.54 L1949.26 1231.52 L1953.54 1231.52 L1953.54 1245.64 Q1955.07 1243.3 1957.13 1242.14 Q1959.21 1240.99 1961.92 1240.99 Q1966.39 1240.99 1968.68 1243.76 Q1970.97 1246.52 1970.97 1251.89 Z" fill="#000000" fill-rule="nonzero" fill-opacity="1" /><path clip-path="url(#clip420)" d="M1999.4 1236.82 L1999.4 1263.69 L2005.04 1263.69 Q2012.2 1263.69 2015.51 1260.45 Q2018.84 1257.21 2018.84 1250.22 Q2018.84 1243.28 2015.51 1240.06 Q2012.2 1236.82 2005.04 1236.82 L1999.4 1236.82 M1994.72 1232.98 L2004.33 1232.98 Q2014.37 1232.98 2019.07 1237.17 Q2023.77 1241.33 2023.77 1250.22 Q2023.77 1259.16 2019.05 1263.35 Q2014.33 1267.54 2004.33 1267.54 L1994.72 1267.54 L1994.72 1232.98 Z" fill="#000000" fill-rule="nonzero" fill-opacity="1" /><path clip-path="url(#clip420)" d="M2046.67 1246.01 L2076.34 1246.01 L2076.34 1249.9 L2046.67 1249.9 L2046.67 1246.01 M2046.67 1255.45 L2076.34 1255.45 L2076.34 1259.39 L2046.67 1259.39 L2046.67 1255.45 Z" fill="#000000" fill-rule="nonzero" fill-opacity="1" /><path clip-path="url(#clip420)" d="M2102.31 1263.6 L2109.95 1263.6 L2109.95 1237.24 L2101.64 1238.9 L2101.64 1234.64 L2109.91 1232.98 L2114.58 1232.98 L2114.58 1263.6 L2122.22 1263.6 L2122.22 1267.54 L2102.31 1267.54 L2102.31 1263.6 Z" fill="#000000" fill-rule="nonzero" fill-opacity="1" /><path clip-path="url(#clip420)" d="M2138.63 1232.98 L2142.57 1232.98 L2130.53 1271.93 L2126.6 1271.93 L2138.63 1232.98 Z" fill="#000000" fill-rule="nonzero" fill-opacity="1" /><path clip-path="url(#clip420)" d="M2159.74 1262.81 Q2160.58 1263.93 2163.08 1263.93 L2165.14 1263.93 L2165.14 1267.54 L2162.57 1267.54 Q2158.4 1267.54 2156.5 1265.31 Q2154.6 1263.05 2154.6 1258.14 L2154.6 1245.87 L2144.88 1245.87 L2144.88 1241.61 L2168.79 1241.61 L2168.79 1245.87 L2158.96 1245.87 L2158.96 1258.39 Q2158.96 1261.75 2159.74 1262.81 Z" fill="#000000" fill-rule="nonzero" fill-opacity="1" /><path clip-path="url(#clip420)" d="M2195.28 1275.41 L2195.28 1278.72 L2170.65 1278.72 L2170.65 1275.41 L2195.28 1275.41 Z" fill="#000000" fill-rule="nonzero" fill-opacity="1" /><path clip-path="url(#clip420)" d="M2215.81 1242.37 L2215.81 1246.4 Q2214 1245.48 2212.06 1245.01 Q2210.11 1244.55 2208.03 1244.55 Q2204.86 1244.55 2203.26 1245.52 Q2201.69 1246.49 2201.69 1248.44 Q2201.69 1249.92 2202.82 1250.78 Q2203.96 1251.61 2207.38 1252.37 L2208.84 1252.7 Q2213.38 1253.67 2215.28 1255.45 Q2217.2 1257.21 2217.2 1260.38 Q2217.2 1263.99 2214.33 1266.1 Q2211.48 1268.21 2206.48 1268.21 Q2204.4 1268.21 2202.13 1267.79 Q2199.88 1267.4 2197.38 1266.59 L2197.38 1262.19 Q2199.74 1263.42 2202.03 1264.04 Q2204.33 1264.64 2206.57 1264.64 Q2209.58 1264.64 2211.2 1263.62 Q2212.82 1262.58 2212.82 1260.71 Q2212.82 1258.97 2211.64 1258.05 Q2210.48 1257.12 2206.53 1256.26 L2205.04 1255.92 Q2201.09 1255.08 2199.33 1253.37 Q2197.57 1251.63 2197.57 1248.62 Q2197.57 1244.97 2200.16 1242.98 Q2202.75 1240.99 2207.52 1240.99 Q2209.88 1240.99 2211.97 1241.33 Q2214.05 1241.68 2215.81 1242.37 Z" fill="#000000" fill-rule="nonzero" fill-opacity="1" /><path clip-path="url(#clip420)" d="M2240.51 1242.37 L2240.51 1246.4 Q2238.7 1245.48 2236.76 1245.01 Q2234.81 1244.55 2232.73 1244.55 Q2229.56 1244.55 2227.96 1245.52 Q2226.39 1246.49 2226.39 1248.44 Q2226.39 1249.92 2227.52 1250.78 Q2228.65 1251.61 2232.08 1252.37 L2233.54 1252.7 Q2238.08 1253.67 2239.97 1255.45 Q2241.9 1257.21 2241.9 1260.38 Q2241.9 1263.99 2239.03 1266.1 Q2236.18 1268.21 2231.18 1268.21 Q2229.09 1268.21 2226.83 1267.79 Q2224.58 1267.4 2222.08 1266.59 L2222.08 1262.19 Q2224.44 1263.42 2226.73 1264.04 Q2229.03 1264.64 2231.27 1264.64 Q2234.28 1264.64 2235.9 1263.62 Q2237.52 1262.58 2237.52 1260.71 Q2237.52 1258.97 2236.34 1258.05 Q2235.18 1257.12 2231.22 1256.26 L2229.74 1255.92 Q2225.78 1255.08 2224.03 1253.37 Q2222.27 1251.63 2222.27 1248.62 Q2222.27 1244.97 2224.86 1242.98 Q2227.45 1240.99 2232.22 1240.99 Q2234.58 1240.99 2236.66 1241.33 Q2238.75 1241.68 2240.51 1242.37 Z" fill="#000000" fill-rule="nonzero" fill-opacity="1" /><path clip-path="url(#clip420)" d="M1385.81 1314.65 Q1386.65 1315.77 1389.15 1315.77 L1391.21 1315.77 L1391.21 1319.38 L1388.64 1319.38 Q1384.47 1319.38 1382.57 1317.15 Q1380.67 1314.89 1380.67 1309.98 L1380.67 1297.71 L1370.95 1297.71 L1370.95 1293.45 L1394.86 1293.45 L1394.86 1297.71 L1385.03 1297.71 L1385.03 1310.23 Q1385.03 1313.59 1385.81 1314.65 Z" fill="#000000" fill-rule="nonzero" fill-opacity="1" /><path clip-path="url(#clip420)" d="M1421.34 1327.25 L1421.34 1330.56 L1396.71 1330.56 L1396.71 1327.25 L1421.34 1327.25 Z" fill="#000000" fill-rule="nonzero" fill-opacity="1" /><path clip-path="url(#clip420)" d="M1441.88 1294.21 L1441.88 1298.24 Q1440.07 1297.32 1438.13 1296.85 Q1436.18 1296.39 1434.1 1296.39 Q1430.93 1296.39 1429.33 1297.36 Q1427.76 1298.33 1427.76 1300.28 Q1427.76 1301.76 1428.89 1302.62 Q1430.02 1303.45 1433.45 1304.21 L1434.91 1304.54 Q1439.45 1305.51 1441.34 1307.29 Q1443.27 1309.05 1443.27 1312.22 Q1443.27 1315.83 1440.4 1317.94 Q1437.55 1320.05 1432.55 1320.05 Q1430.46 1320.05 1428.2 1319.63 Q1425.95 1319.24 1423.45 1318.43 L1423.45 1314.03 Q1425.81 1315.26 1428.1 1315.88 Q1430.4 1316.48 1432.64 1316.48 Q1435.65 1316.48 1437.27 1315.46 Q1438.89 1314.42 1438.89 1312.55 Q1438.89 1310.81 1437.71 1309.89 Q1436.55 1308.96 1432.59 1308.1 L1431.11 1307.76 Q1427.15 1306.92 1425.4 1305.21 Q1423.64 1303.47 1423.64 1300.46 Q1423.64 1296.81 1426.23 1294.82 Q1428.82 1292.83 1433.59 1292.83 Q1435.95 1292.83 1438.03 1293.17 Q1440.12 1293.52 1441.88 1294.21 Z" fill="#000000" fill-rule="nonzero" fill-opacity="1" /><path clip-path="url(#clip420)" d="M1466.58 1294.21 L1466.58 1298.24 Q1464.77 1297.32 1462.83 1296.85 Q1460.88 1296.39 1458.8 1296.39 Q1455.63 1296.39 1454.03 1297.36 Q1452.46 1298.33 1452.46 1300.28 Q1452.46 1301.76 1453.59 1302.62 Q1454.72 1303.45 1458.15 1304.21 L1459.61 1304.54 Q1464.15 1305.51 1466.04 1307.29 Q1467.96 1309.05 1467.96 1312.22 Q1467.96 1315.83 1465.09 1317.94 Q1462.25 1320.05 1457.25 1320.05 Q1455.16 1320.05 1452.9 1319.63 Q1450.65 1319.24 1448.15 1318.43 L1448.15 1314.03 Q1450.51 1315.26 1452.8 1315.88 Q1455.09 1316.48 1457.34 1316.48 Q1460.35 1316.48 1461.97 1315.46 Q1463.59 1314.42 1463.59 1312.55 Q1463.59 1310.81 1462.41 1309.89 Q1461.25 1308.96 1457.29 1308.1 L1455.81 1307.76 Q1451.85 1306.92 1450.09 1305.21 Q1448.34 1303.47 1448.34 1300.46 Q1448.34 1296.81 1450.93 1294.82 Q1453.52 1292.83 1458.29 1292.83 Q1460.65 1292.83 1462.73 1293.17 Q1464.82 1293.52 1466.58 1294.21 Z" fill="#000000" fill-rule="nonzero" fill-opacity="1" /><path clip-path="url(#clip420)" d="M1490.37 1297.85 L1520.05 1297.85 L1520.05 1301.74 L1490.37 1301.74 L1490.37 1297.85 M1490.37 1307.29 L1520.05 1307.29 L1520.05 1311.23 L1490.37 1311.23 L1490.37 1307.29 Z" fill="#000000" fill-rule="nonzero" fill-opacity="1" /><path clip-path="url(#clip420)" d="M1559.38 1300.74 Q1562.73 1301.46 1564.61 1303.73 Q1566.51 1306 1566.51 1309.33 Q1566.51 1314.45 1562.99 1317.25 Q1559.47 1320.05 1552.99 1320.05 Q1550.81 1320.05 1548.5 1319.61 Q1546.2 1319.19 1543.75 1318.33 L1543.75 1313.82 Q1545.7 1314.95 1548.01 1315.53 Q1550.33 1316.11 1552.85 1316.11 Q1557.25 1316.11 1559.54 1314.38 Q1561.85 1312.64 1561.85 1309.33 Q1561.85 1306.27 1559.7 1304.56 Q1557.57 1302.83 1553.75 1302.83 L1549.72 1302.83 L1549.72 1298.98 L1553.94 1298.98 Q1557.39 1298.98 1559.21 1297.62 Q1561.04 1296.23 1561.04 1293.64 Q1561.04 1290.97 1559.14 1289.56 Q1557.27 1288.13 1553.75 1288.13 Q1551.83 1288.13 1549.63 1288.54 Q1547.43 1288.96 1544.79 1289.84 L1544.79 1285.67 Q1547.45 1284.93 1549.77 1284.56 Q1552.11 1284.19 1554.17 1284.19 Q1559.49 1284.19 1562.59 1286.62 Q1565.7 1289.03 1565.7 1293.15 Q1565.7 1296.02 1564.05 1298.01 Q1562.41 1299.98 1559.38 1300.74 Z" fill="#000000" fill-rule="nonzero" fill-opacity="1" /><path clip-path="url(#clip420)" d="M1575.37 1313.5 L1580.26 1313.5 L1580.26 1319.38 L1575.37 1319.38 L1575.37 1313.5 Z" fill="#000000" fill-rule="nonzero" fill-opacity="1" /><path clip-path="url(#clip420)" d="M1603.29 1288.89 L1591.48 1307.34 L1603.29 1307.34 L1603.29 1288.89 M1602.06 1284.82 L1607.94 1284.82 L1607.94 1307.34 L1612.87 1307.34 L1612.87 1311.23 L1607.94 1311.23 L1607.94 1319.38 L1603.29 1319.38 L1603.29 1311.23 L1587.69 1311.23 L1587.69 1306.71 L1602.06 1284.82 Z" fill="#000000" fill-rule="nonzero" fill-opacity="1" /><path clip-path="url(#clip420)" d="M1633.45 1288.89 L1621.64 1307.34 L1633.45 1307.34 L1633.45 1288.89 M1632.22 1284.82 L1638.1 1284.82 L1638.1 1307.34 L1643.03 1307.34 L1643.03 1311.23 L1638.1 1311.23 L1638.1 1319.38 L1633.45 1319.38 L1633.45 1311.23 L1617.85 1311.23 L1617.85 1306.71 L1632.22 1284.82 Z" fill="#000000" fill-rule="nonzero" fill-opacity="1" /></svg>
