<?xml version="1.0" encoding="utf-8"?>
<svg xmlns="http://www.w3.org/2000/svg" xmlns:xlink="http://www.w3.org/1999/xlink" width="600" height="400" viewBox="0 0 2400 1600">
<defs>
  <clipPath id="clip530">
    <rect x="0" y="0" width="2400" height="1600"/>
  </clipPath>
</defs>
<path clip-path="url(#clip530)" d="M0 1600 L2400 1600 L2400 0 L0 0  Z" fill="#ffffff" fill-rule="evenodd" fill-opacity="1"/>
<defs>
  <clipPath id="clip531">
    <rect x="141" y="125" width="1972" height="1284"/>
  </clipPath>
</defs>
<path clip-path="url(#clip530)" d="M249.542 1423.18 L2352.76 1423.18 L2352.76 123.472 L249.542 123.472  Z" fill="#ffffff" fill-rule="evenodd" fill-opacity="1"/>
<defs>
  <clipPath id="clip532">
    <rect x="249" y="123" width="2104" height="1301"/>
  </clipPath>
</defs>
<polyline clip-path="url(#clip532)" style="stroke:#000000; stroke-linecap:round; stroke-linejoin:round; stroke-width:2; stroke-opacity:0.1; fill:none" points="309.067,1423.18 309.067,123.472 "/>
<polyline clip-path="url(#clip532)" style="stroke:#000000; stroke-linecap:round; stroke-linejoin:round; stroke-width:2; stroke-opacity:0.1; fill:none" points="620.308,1423.18 620.308,123.472 "/>
<polyline clip-path="url(#clip532)" style="stroke:#000000; stroke-linecap:round; stroke-linejoin:round; stroke-width:2; stroke-opacity:0.1; fill:none" points="931.55,1423.18 931.55,123.472 "/>
<polyline clip-path="url(#clip532)" style="stroke:#000000; stroke-linecap:round; stroke-linejoin:round; stroke-width:2; stroke-opacity:0.1; fill:none" points="1242.79,1423.18 1242.79,123.472 "/>
<polyline clip-path="url(#clip532)" style="stroke:#000000; stroke-linecap:round; stroke-linejoin:round; stroke-width:2; stroke-opacity:0.1; fill:none" points="1554.03,1423.18 1554.03,123.472 "/>
<polyline clip-path="url(#clip532)" style="stroke:#000000; stroke-linecap:round; stroke-linejoin:round; stroke-width:2; stroke-opacity:0.1; fill:none" points="1865.27,1423.18 1865.27,123.472 "/>
<polyline clip-path="url(#clip532)" style="stroke:#000000; stroke-linecap:round; stroke-linejoin:round; stroke-width:2; stroke-opacity:0.1; fill:none" points="2176.52,1423.18 2176.52,123.472 "/>
<polyline clip-path="url(#clip532)" style="stroke:#000000; stroke-linecap:round; stroke-linejoin:round; stroke-width:2; stroke-opacity:0.1; fill:none" points="249.542,1386.4 2352.76,1386.4 "/>
<polyline clip-path="url(#clip532)" style="stroke:#000000; stroke-linecap:round; stroke-linejoin:round; stroke-width:2; stroke-opacity:0.1; fill:none" points="249.542,1050.5 2352.76,1050.5 "/>
<polyline clip-path="url(#clip532)" style="stroke:#000000; stroke-linecap:round; stroke-linejoin:round; stroke-width:2; stroke-opacity:0.1; fill:none" points="249.542,714.595 2352.76,714.595 "/>
<polyline clip-path="url(#clip532)" style="stroke:#000000; stroke-linecap:round; stroke-linejoin:round; stroke-width:2; stroke-opacity:0.1; fill:none" points="249.542,378.694 2352.76,378.694 "/>
<polyline clip-path="url(#clip530)" style="stroke:#000000; stroke-linecap:round; stroke-linejoin:round; stroke-width:4; stroke-opacity:1; fill:none" points="249.542,1423.18 2352.76,1423.18 "/>
<polyline clip-path="url(#clip530)" style="stroke:#000000; stroke-linecap:round; stroke-linejoin:round; stroke-width:4; stroke-opacity:1; fill:none" points="309.067,1423.18 309.067,1404.28 "/>
<polyline clip-path="url(#clip530)" style="stroke:#000000; stroke-linecap:round; stroke-linejoin:round; stroke-width:4; stroke-opacity:1; fill:none" points="620.308,1423.18 620.308,1404.28 "/>
<polyline clip-path="url(#clip530)" style="stroke:#000000; stroke-linecap:round; stroke-linejoin:round; stroke-width:4; stroke-opacity:1; fill:none" points="931.55,1423.18 931.55,1404.28 "/>
<polyline clip-path="url(#clip530)" style="stroke:#000000; stroke-linecap:round; stroke-linejoin:round; stroke-width:4; stroke-opacity:1; fill:none" points="1242.79,1423.18 1242.79,1404.28 "/>
<polyline clip-path="url(#clip530)" style="stroke:#000000; stroke-linecap:round; stroke-linejoin:round; stroke-width:4; stroke-opacity:1; fill:none" points="1554.03,1423.18 1554.03,1404.28 "/>
<polyline clip-path="url(#clip530)" style="stroke:#000000; stroke-linecap:round; stroke-linejoin:round; stroke-width:4; stroke-opacity:1; fill:none" points="1865.27,1423.18 1865.27,1404.28 "/>
<polyline clip-path="url(#clip530)" style="stroke:#000000; stroke-linecap:round; stroke-linejoin:round; stroke-width:4; stroke-opacity:1; fill:none" points="2176.52,1423.18 2176.52,1404.28 "/>
<path clip-path="url(#clip530)" d="M286.451 1454.1 Q282.84 1454.1 281.012 1457.66 Q279.206 1461.2 279.206 1468.33 Q279.206 1475.44 281.012 1479.01 Q282.84 1482.55 286.451 1482.55 Q290.086 1482.55 291.891 1479.01 Q293.72 1475.44 293.72 1468.33 Q293.72 1461.2 291.891 1457.66 Q290.086 1454.1 286.451 1454.1 M286.451 1450.39 Q292.261 1450.39 295.317 1455 Q298.396 1459.58 298.396 1468.33 Q298.396 1477.06 295.317 1481.67 Q292.261 1486.25 286.451 1486.25 Q280.641 1486.25 277.562 1481.67 Q274.507 1477.06 274.507 1468.33 Q274.507 1459.58 277.562 1455 Q280.641 1450.39 286.451 1450.39 Z" fill="#000000" fill-rule="nonzero" fill-opacity="1" /><path clip-path="url(#clip530)" d="M306.613 1479.7 L311.497 1479.7 L311.497 1485.58 L306.613 1485.58 L306.613 1479.7 Z" fill="#000000" fill-rule="nonzero" fill-opacity="1" /><path clip-path="url(#clip530)" d="M331.683 1454.1 Q328.071 1454.1 326.243 1457.66 Q324.437 1461.2 324.437 1468.33 Q324.437 1475.44 326.243 1479.01 Q328.071 1482.55 331.683 1482.55 Q335.317 1482.55 337.122 1479.01 Q338.951 1475.44 338.951 1468.33 Q338.951 1461.2 337.122 1457.66 Q335.317 1454.1 331.683 1454.1 M331.683 1450.39 Q337.493 1450.39 340.548 1455 Q343.627 1459.58 343.627 1468.33 Q343.627 1477.06 340.548 1481.67 Q337.493 1486.25 331.683 1486.25 Q325.872 1486.25 322.794 1481.67 Q319.738 1477.06 319.738 1468.33 Q319.738 1459.58 322.794 1455 Q325.872 1450.39 331.683 1450.39 Z" fill="#000000" fill-rule="nonzero" fill-opacity="1" /><path clip-path="url(#clip530)" d="M598.491 1454.1 Q594.88 1454.1 593.052 1457.66 Q591.246 1461.2 591.246 1468.33 Q591.246 1475.44 593.052 1479.01 Q594.88 1482.55 598.491 1482.55 Q602.126 1482.55 603.931 1479.01 Q605.76 1475.44 605.76 1468.33 Q605.76 1461.2 603.931 1457.66 Q602.126 1454.1 598.491 1454.1 M598.491 1450.39 Q604.302 1450.39 607.357 1455 Q610.436 1459.58 610.436 1468.33 Q610.436 1477.06 607.357 1481.67 Q604.302 1486.25 598.491 1486.25 Q592.681 1486.25 589.603 1481.67 Q586.547 1477.06 586.547 1468.33 Q586.547 1459.58 589.603 1455 Q592.681 1450.39 598.491 1450.39 Z" fill="#000000" fill-rule="nonzero" fill-opacity="1" /><path clip-path="url(#clip530)" d="M618.653 1479.7 L623.538 1479.7 L623.538 1485.58 L618.653 1485.58 L618.653 1479.7 Z" fill="#000000" fill-rule="nonzero" fill-opacity="1" /><path clip-path="url(#clip530)" d="M637.75 1481.64 L654.07 1481.64 L654.07 1485.58 L632.125 1485.58 L632.125 1481.64 Q634.787 1478.89 639.371 1474.26 Q643.977 1469.61 645.158 1468.27 Q647.403 1465.74 648.283 1464.01 Q649.186 1462.25 649.186 1460.56 Q649.186 1457.8 647.241 1456.07 Q645.32 1454.33 642.218 1454.33 Q640.019 1454.33 637.565 1455.09 Q635.135 1455.86 632.357 1457.41 L632.357 1452.69 Q635.181 1451.55 637.635 1450.97 Q640.088 1450.39 642.125 1450.39 Q647.496 1450.39 650.69 1453.08 Q653.885 1455.77 653.885 1460.26 Q653.885 1462.39 653.074 1464.31 Q652.287 1466.2 650.181 1468.8 Q649.602 1469.47 646.5 1472.69 Q643.399 1475.88 637.75 1481.64 Z" fill="#000000" fill-rule="nonzero" fill-opacity="1" /><path clip-path="url(#clip530)" d="M908.691 1454.1 Q905.08 1454.1 903.251 1457.66 Q901.446 1461.2 901.446 1468.33 Q901.446 1475.44 903.251 1479.01 Q905.08 1482.55 908.691 1482.55 Q912.325 1482.55 914.131 1479.01 Q915.96 1475.44 915.96 1468.33 Q915.96 1461.2 914.131 1457.66 Q912.325 1454.1 908.691 1454.1 M908.691 1450.39 Q914.501 1450.39 917.557 1455 Q920.635 1459.58 920.635 1468.33 Q920.635 1477.06 917.557 1481.67 Q914.501 1486.25 908.691 1486.25 Q902.881 1486.25 899.802 1481.67 Q896.747 1477.06 896.747 1468.33 Q896.747 1459.58 899.802 1455 Q902.881 1450.39 908.691 1450.39 Z" fill="#000000" fill-rule="nonzero" fill-opacity="1" /><path clip-path="url(#clip530)" d="M928.853 1479.7 L933.737 1479.7 L933.737 1485.58 L928.853 1485.58 L928.853 1479.7 Z" fill="#000000" fill-rule="nonzero" fill-opacity="1" /><path clip-path="url(#clip530)" d="M956.77 1455.09 L944.964 1473.54 L956.77 1473.54 L956.77 1455.09 M955.543 1451.02 L961.422 1451.02 L961.422 1473.54 L966.353 1473.54 L966.353 1477.43 L961.422 1477.43 L961.422 1485.58 L956.77 1485.58 L956.77 1477.43 L941.168 1477.43 L941.168 1472.92 L955.543 1451.02 Z" fill="#000000" fill-rule="nonzero" fill-opacity="1" /><path clip-path="url(#clip530)" d="M1220.09 1454.1 Q1216.48 1454.1 1214.65 1457.66 Q1212.85 1461.2 1212.85 1468.33 Q1212.85 1475.44 1214.65 1479.01 Q1216.48 1482.55 1220.09 1482.55 Q1223.73 1482.55 1225.53 1479.01 Q1227.36 1475.44 1227.36 1468.33 Q1227.36 1461.2 1225.53 1457.66 Q1223.73 1454.1 1220.09 1454.1 M1220.09 1450.39 Q1225.9 1450.39 1228.96 1455 Q1232.04 1459.58 1232.04 1468.33 Q1232.04 1477.06 1228.96 1481.67 Q1225.9 1486.25 1220.09 1486.25 Q1214.28 1486.25 1211.21 1481.67 Q1208.15 1477.06 1208.15 1468.33 Q1208.15 1459.58 1211.21 1455 Q1214.28 1450.39 1220.09 1450.39 Z" fill="#000000" fill-rule="nonzero" fill-opacity="1" /><path clip-path="url(#clip530)" d="M1240.26 1479.7 L1245.14 1479.7 L1245.14 1485.58 L1240.26 1485.58 L1240.26 1479.7 Z" fill="#000000" fill-rule="nonzero" fill-opacity="1" /><path clip-path="url(#clip530)" d="M1265.9 1466.44 Q1262.76 1466.44 1260.9 1468.59 Q1259.08 1470.74 1259.08 1474.49 Q1259.08 1478.22 1260.9 1480.39 Q1262.76 1482.55 1265.9 1482.55 Q1269.05 1482.55 1270.88 1480.39 Q1272.73 1478.22 1272.73 1474.49 Q1272.73 1470.74 1270.88 1468.59 Q1269.05 1466.44 1265.9 1466.44 M1275.19 1451.78 L1275.19 1456.04 Q1273.43 1455.21 1271.62 1454.77 Q1269.84 1454.33 1268.08 1454.33 Q1263.45 1454.33 1261 1457.45 Q1258.57 1460.58 1258.22 1466.9 Q1259.59 1464.89 1261.65 1463.82 Q1263.71 1462.73 1266.18 1462.73 Q1271.39 1462.73 1274.4 1465.9 Q1277.43 1469.05 1277.43 1474.49 Q1277.43 1479.82 1274.28 1483.03 Q1271.14 1486.25 1265.9 1486.25 Q1259.91 1486.25 1256.74 1481.67 Q1253.57 1477.06 1253.57 1468.33 Q1253.57 1460.14 1257.46 1455.28 Q1261.34 1450.39 1267.9 1450.39 Q1269.65 1450.39 1271.44 1450.74 Q1273.24 1451.09 1275.19 1451.78 Z" fill="#000000" fill-rule="nonzero" fill-opacity="1" /><path clip-path="url(#clip530)" d="M1531.46 1454.1 Q1527.85 1454.1 1526.02 1457.66 Q1524.22 1461.2 1524.22 1468.33 Q1524.22 1475.44 1526.02 1479.01 Q1527.85 1482.55 1531.46 1482.55 Q1535.1 1482.55 1536.9 1479.01 Q1538.73 1475.44 1538.73 1468.33 Q1538.73 1461.2 1536.9 1457.66 Q1535.1 1454.1 1531.46 1454.1 M1531.46 1450.39 Q1537.27 1450.39 1540.33 1455 Q1543.41 1459.58 1543.41 1468.33 Q1543.41 1477.06 1540.33 1481.67 Q1537.27 1486.25 1531.46 1486.25 Q1525.65 1486.25 1522.57 1481.67 Q1519.52 1477.06 1519.52 1468.33 Q1519.52 1459.58 1522.57 1455 Q1525.65 1450.39 1531.46 1450.39 Z" fill="#000000" fill-rule="nonzero" fill-opacity="1" /><path clip-path="url(#clip530)" d="M1551.63 1479.7 L1556.51 1479.7 L1556.51 1485.58 L1551.63 1485.58 L1551.63 1479.7 Z" fill="#000000" fill-rule="nonzero" fill-opacity="1" /><path clip-path="url(#clip530)" d="M1576.69 1469.17 Q1573.36 1469.17 1571.44 1470.95 Q1569.54 1472.73 1569.54 1475.86 Q1569.54 1478.98 1571.44 1480.77 Q1573.36 1482.55 1576.69 1482.55 Q1580.03 1482.55 1581.95 1480.77 Q1583.87 1478.96 1583.87 1475.86 Q1583.87 1472.73 1581.95 1470.95 Q1580.05 1469.17 1576.69 1469.17 M1572.02 1467.18 Q1569.01 1466.44 1567.32 1464.38 Q1565.65 1462.32 1565.65 1459.35 Q1565.65 1455.21 1568.59 1452.8 Q1571.56 1450.39 1576.69 1450.39 Q1581.86 1450.39 1584.8 1452.8 Q1587.74 1455.21 1587.74 1459.35 Q1587.74 1462.32 1586.05 1464.38 Q1584.38 1466.44 1581.39 1467.18 Q1584.77 1467.96 1586.65 1470.26 Q1588.55 1472.55 1588.55 1475.86 Q1588.55 1480.88 1585.47 1483.57 Q1582.41 1486.25 1576.69 1486.25 Q1570.98 1486.25 1567.9 1483.57 Q1564.84 1480.88 1564.84 1475.86 Q1564.84 1472.55 1566.74 1470.26 Q1568.64 1467.96 1572.02 1467.18 M1570.31 1459.79 Q1570.31 1462.48 1571.97 1463.98 Q1573.66 1465.49 1576.69 1465.49 Q1579.7 1465.49 1581.39 1463.98 Q1583.11 1462.48 1583.11 1459.79 Q1583.11 1457.11 1581.39 1455.6 Q1579.7 1454.1 1576.69 1454.1 Q1573.66 1454.1 1571.97 1455.6 Q1570.31 1457.11 1570.31 1459.79 Z" fill="#000000" fill-rule="nonzero" fill-opacity="1" /><path clip-path="url(#clip530)" d="M1832.43 1481.64 L1840.07 1481.64 L1840.07 1455.28 L1831.76 1456.95 L1831.76 1452.69 L1840.02 1451.02 L1844.7 1451.02 L1844.7 1481.64 L1852.33 1481.64 L1852.33 1485.58 L1832.43 1485.58 L1832.43 1481.64 Z" fill="#000000" fill-rule="nonzero" fill-opacity="1" /><path clip-path="url(#clip530)" d="M1861.78 1479.7 L1866.66 1479.7 L1866.66 1485.58 L1861.78 1485.58 L1861.78 1479.7 Z" fill="#000000" fill-rule="nonzero" fill-opacity="1" /><path clip-path="url(#clip530)" d="M1886.85 1454.1 Q1883.24 1454.1 1881.41 1457.66 Q1879.6 1461.2 1879.6 1468.33 Q1879.6 1475.44 1881.41 1479.01 Q1883.24 1482.55 1886.85 1482.55 Q1890.48 1482.55 1892.29 1479.01 Q1894.12 1475.44 1894.12 1468.33 Q1894.12 1461.2 1892.29 1457.66 Q1890.48 1454.1 1886.85 1454.1 M1886.85 1450.39 Q1892.66 1450.39 1895.71 1455 Q1898.79 1459.58 1898.79 1468.33 Q1898.79 1477.06 1895.71 1481.67 Q1892.66 1486.25 1886.85 1486.25 Q1881.04 1486.25 1877.96 1481.67 Q1874.9 1477.06 1874.9 1468.33 Q1874.9 1459.58 1877.96 1455 Q1881.04 1450.39 1886.85 1450.39 Z" fill="#000000" fill-rule="nonzero" fill-opacity="1" /><path clip-path="url(#clip530)" d="M2144.47 1481.64 L2152.11 1481.64 L2152.11 1455.28 L2143.8 1456.95 L2143.8 1452.69 L2152.06 1451.02 L2156.74 1451.02 L2156.74 1481.64 L2164.37 1481.64 L2164.37 1485.58 L2144.47 1485.58 L2144.47 1481.64 Z" fill="#000000" fill-rule="nonzero" fill-opacity="1" /><path clip-path="url(#clip530)" d="M2173.82 1479.7 L2178.7 1479.7 L2178.7 1485.58 L2173.82 1485.58 L2173.82 1479.7 Z" fill="#000000" fill-rule="nonzero" fill-opacity="1" /><path clip-path="url(#clip530)" d="M2192.92 1481.64 L2209.24 1481.64 L2209.24 1485.58 L2187.29 1485.58 L2187.29 1481.64 Q2189.95 1478.89 2194.54 1474.26 Q2199.14 1469.61 2200.32 1468.27 Q2202.57 1465.74 2203.45 1464.01 Q2204.35 1462.25 2204.35 1460.56 Q2204.35 1457.8 2202.41 1456.07 Q2200.49 1454.33 2197.38 1454.33 Q2195.18 1454.33 2192.73 1455.09 Q2190.3 1455.86 2187.52 1457.41 L2187.52 1452.69 Q2190.35 1451.55 2192.8 1450.97 Q2195.25 1450.39 2197.29 1450.39 Q2202.66 1450.39 2205.86 1453.08 Q2209.05 1455.77 2209.05 1460.26 Q2209.05 1462.39 2208.24 1464.31 Q2207.45 1466.2 2205.35 1468.8 Q2204.77 1469.47 2201.67 1472.69 Q2198.56 1475.88 2192.92 1481.64 Z" fill="#000000" fill-rule="nonzero" fill-opacity="1" /><path clip-path="url(#clip530)" d="M1240.31 1522.27 L1240.31 1532.4 L1252.37 1532.4 L1252.37 1536.95 L1240.31 1536.95 L1240.31 1556.3 Q1240.31 1560.66 1241.49 1561.9 Q1242.7 1563.14 1246.36 1563.14 L1252.37 1563.14 L1252.37 1568.04 L1246.36 1568.04 Q1239.58 1568.04 1237 1565.53 Q1234.42 1562.98 1234.42 1556.3 L1234.42 1536.95 L1230.12 1536.95 L1230.12 1532.4 L1234.42 1532.4 L1234.42 1522.27 L1240.31 1522.27 Z" fill="#000000" fill-rule="nonzero" fill-opacity="1" /><path clip-path="url(#clip530)" d="M1260.07 1532.4 L1265.93 1532.4 L1265.93 1568.04 L1260.07 1568.04 L1260.07 1532.4 M1260.07 1518.52 L1265.93 1518.52 L1265.93 1525.93 L1260.07 1525.93 L1260.07 1518.52 Z" fill="#000000" fill-rule="nonzero" fill-opacity="1" /><path clip-path="url(#clip530)" d="M1305.94 1539.24 Q1308.14 1535.29 1311.19 1533.41 Q1314.25 1531.54 1318.38 1531.54 Q1323.95 1531.54 1326.98 1535.45 Q1330 1539.33 1330 1546.53 L1330 1568.04 L1324.11 1568.04 L1324.11 1546.72 Q1324.11 1541.59 1322.3 1539.11 Q1320.48 1536.63 1316.76 1536.63 Q1312.21 1536.63 1309.57 1539.65 Q1306.93 1542.68 1306.93 1547.9 L1306.93 1568.04 L1301.04 1568.04 L1301.04 1546.72 Q1301.04 1541.56 1299.22 1539.11 Q1297.41 1536.63 1293.62 1536.63 Q1289.13 1536.63 1286.49 1539.68 Q1283.85 1542.71 1283.85 1547.9 L1283.85 1568.04 L1277.96 1568.04 L1277.96 1532.4 L1283.85 1532.4 L1283.85 1537.93 Q1285.86 1534.66 1288.66 1533.1 Q1291.46 1531.54 1295.31 1531.54 Q1299.19 1531.54 1301.9 1533.51 Q1304.63 1535.48 1305.94 1539.24 Z" fill="#000000" fill-rule="nonzero" fill-opacity="1" /><path clip-path="url(#clip530)" d="M1372.17 1548.76 L1372.17 1551.62 L1345.25 1551.62 Q1345.63 1557.67 1348.88 1560.85 Q1352.15 1564 1357.98 1564 Q1361.35 1564 1364.5 1563.17 Q1367.69 1562.35 1370.81 1560.69 L1370.81 1566.23 Q1367.65 1567.57 1364.34 1568.27 Q1361.03 1568.97 1357.63 1568.97 Q1349.1 1568.97 1344.1 1564 Q1339.14 1559.04 1339.14 1550.57 Q1339.14 1541.82 1343.85 1536.69 Q1348.59 1531.54 1356.61 1531.54 Q1363.8 1531.54 1367.97 1536.18 Q1372.17 1540.8 1372.17 1548.76 M1366.32 1547.04 Q1366.25 1542.23 1363.61 1539.37 Q1361 1536.5 1356.67 1536.5 Q1351.77 1536.5 1348.81 1539.27 Q1345.88 1542.04 1345.44 1547.07 L1366.32 1547.04 Z" fill="#000000" fill-rule="nonzero" fill-opacity="1" /><polyline clip-path="url(#clip530)" style="stroke:#000000; stroke-linecap:round; stroke-linejoin:round; stroke-width:4; stroke-opacity:1; fill:none" points="249.542,1423.18 249.542,123.472 "/>
<polyline clip-path="url(#clip530)" style="stroke:#000000; stroke-linecap:round; stroke-linejoin:round; stroke-width:4; stroke-opacity:1; fill:none" points="249.542,1386.4 268.44,1386.4 "/>
<polyline clip-path="url(#clip530)" style="stroke:#000000; stroke-linecap:round; stroke-linejoin:round; stroke-width:4; stroke-opacity:1; fill:none" points="249.542,1050.5 268.44,1050.5 "/>
<polyline clip-path="url(#clip530)" style="stroke:#000000; stroke-linecap:round; stroke-linejoin:round; stroke-width:4; stroke-opacity:1; fill:none" points="249.542,714.595 268.44,714.595 "/>
<polyline clip-path="url(#clip530)" style="stroke:#000000; stroke-linecap:round; stroke-linejoin:round; stroke-width:4; stroke-opacity:1; fill:none" points="249.542,378.694 268.44,378.694 "/>
<path clip-path="url(#clip530)" d="M126.205 1372.19 Q122.593 1372.19 120.765 1375.76 Q118.959 1379.3 118.959 1386.43 Q118.959 1393.54 120.765 1397.1 Q122.593 1400.64 126.205 1400.64 Q129.839 1400.64 131.644 1397.1 Q133.473 1393.54 133.473 1386.43 Q133.473 1379.3 131.644 1375.76 Q129.839 1372.19 126.205 1372.19 M126.205 1368.49 Q132.015 1368.49 135.07 1373.1 Q138.149 1377.68 138.149 1386.43 Q138.149 1395.16 135.07 1399.76 Q132.015 1404.35 126.205 1404.35 Q120.394 1404.35 117.316 1399.76 Q114.26 1395.16 114.26 1386.43 Q114.26 1377.68 117.316 1373.1 Q120.394 1368.49 126.205 1368.49 Z" fill="#000000" fill-rule="nonzero" fill-opacity="1" /><path clip-path="url(#clip530)" d="M146.366 1397.8 L151.251 1397.8 L151.251 1403.68 L146.366 1403.68 L146.366 1397.8 Z" fill="#000000" fill-rule="nonzero" fill-opacity="1" /><path clip-path="url(#clip530)" d="M171.436 1372.19 Q167.825 1372.19 165.996 1375.76 Q164.19 1379.3 164.19 1386.43 Q164.19 1393.54 165.996 1397.1 Q167.825 1400.64 171.436 1400.64 Q175.07 1400.64 176.876 1397.1 Q178.704 1393.54 178.704 1386.43 Q178.704 1379.3 176.876 1375.76 Q175.07 1372.19 171.436 1372.19 M171.436 1368.49 Q177.246 1368.49 180.301 1373.1 Q183.38 1377.68 183.38 1386.43 Q183.38 1395.16 180.301 1399.76 Q177.246 1404.35 171.436 1404.35 Q165.626 1404.35 162.547 1399.76 Q159.491 1395.16 159.491 1386.43 Q159.491 1377.68 162.547 1373.1 Q165.626 1368.49 171.436 1368.49 Z" fill="#000000" fill-rule="nonzero" fill-opacity="1" /><path clip-path="url(#clip530)" d="M201.598 1372.19 Q197.987 1372.19 196.158 1375.76 Q194.352 1379.3 194.352 1386.43 Q194.352 1393.54 196.158 1397.1 Q197.987 1400.64 201.598 1400.64 Q205.232 1400.64 207.037 1397.1 Q208.866 1393.54 208.866 1386.43 Q208.866 1379.3 207.037 1375.76 Q205.232 1372.19 201.598 1372.19 M201.598 1368.49 Q207.408 1368.49 210.463 1373.1 Q213.542 1377.68 213.542 1386.43 Q213.542 1395.16 210.463 1399.76 Q207.408 1404.35 201.598 1404.35 Q195.787 1404.35 192.709 1399.76 Q189.653 1395.16 189.653 1386.43 Q189.653 1377.68 192.709 1373.1 Q195.787 1368.49 201.598 1368.49 Z" fill="#000000" fill-rule="nonzero" fill-opacity="1" /><path clip-path="url(#clip530)" d="M127.2 1036.29 Q123.589 1036.29 121.76 1039.86 Q119.955 1043.4 119.955 1050.53 Q119.955 1057.64 121.76 1061.2 Q123.589 1064.74 127.2 1064.74 Q130.834 1064.74 132.64 1061.2 Q134.468 1057.64 134.468 1050.53 Q134.468 1043.4 132.64 1039.86 Q130.834 1036.29 127.2 1036.29 M127.2 1032.59 Q133.01 1032.59 136.066 1037.2 Q139.144 1041.78 139.144 1050.53 Q139.144 1059.26 136.066 1063.86 Q133.01 1068.45 127.2 1068.45 Q121.39 1068.45 118.311 1063.86 Q115.256 1059.26 115.256 1050.53 Q115.256 1041.78 118.311 1037.2 Q121.39 1032.59 127.2 1032.59 Z" fill="#000000" fill-rule="nonzero" fill-opacity="1" /><path clip-path="url(#clip530)" d="M147.362 1061.9 L152.246 1061.9 L152.246 1067.78 L147.362 1067.78 L147.362 1061.9 Z" fill="#000000" fill-rule="nonzero" fill-opacity="1" /><path clip-path="url(#clip530)" d="M172.431 1036.29 Q168.82 1036.29 166.991 1039.86 Q165.186 1043.4 165.186 1050.53 Q165.186 1057.64 166.991 1061.2 Q168.82 1064.74 172.431 1064.74 Q176.065 1064.74 177.871 1061.2 Q179.7 1057.64 179.7 1050.53 Q179.7 1043.4 177.871 1039.86 Q176.065 1036.29 172.431 1036.29 M172.431 1032.59 Q178.241 1032.59 181.297 1037.2 Q184.376 1041.78 184.376 1050.53 Q184.376 1059.26 181.297 1063.86 Q178.241 1068.45 172.431 1068.45 Q166.621 1068.45 163.542 1063.86 Q160.487 1059.26 160.487 1050.53 Q160.487 1041.78 163.542 1037.2 Q166.621 1032.59 172.431 1032.59 Z" fill="#000000" fill-rule="nonzero" fill-opacity="1" /><path clip-path="url(#clip530)" d="M192.639 1033.22 L210.996 1033.22 L210.996 1037.15 L196.922 1037.15 L196.922 1045.62 Q197.94 1045.28 198.959 1045.11 Q199.977 1044.93 200.996 1044.93 Q206.783 1044.93 210.162 1048.1 Q213.542 1051.27 213.542 1056.69 Q213.542 1062.27 210.07 1065.37 Q206.598 1068.45 200.278 1068.45 Q198.102 1068.45 195.834 1068.08 Q193.588 1067.71 191.181 1066.96 L191.181 1062.27 Q193.264 1063.4 195.487 1063.96 Q197.709 1064.51 200.186 1064.51 Q204.19 1064.51 206.528 1062.4 Q208.866 1060.3 208.866 1056.69 Q208.866 1053.08 206.528 1050.97 Q204.19 1048.86 200.186 1048.86 Q198.311 1048.86 196.436 1049.28 Q194.584 1049.7 192.639 1050.58 L192.639 1033.22 Z" fill="#000000" fill-rule="nonzero" fill-opacity="1" /><path clip-path="url(#clip530)" d="M126.205 700.393 Q122.593 700.393 120.765 703.958 Q118.959 707.5 118.959 714.629 Q118.959 721.736 120.765 725.301 Q122.593 728.842 126.205 728.842 Q129.839 728.842 131.644 725.301 Q133.473 721.736 133.473 714.629 Q133.473 707.5 131.644 703.958 Q129.839 700.393 126.205 700.393 M126.205 696.69 Q132.015 696.69 135.07 701.296 Q138.149 705.879 138.149 714.629 Q138.149 723.356 135.07 727.963 Q132.015 732.546 126.205 732.546 Q120.394 732.546 117.316 727.963 Q114.26 723.356 114.26 714.629 Q114.26 705.879 117.316 701.296 Q120.394 696.69 126.205 696.69 Z" fill="#000000" fill-rule="nonzero" fill-opacity="1" /><path clip-path="url(#clip530)" d="M146.366 725.995 L151.251 725.995 L151.251 731.875 L146.366 731.875 L146.366 725.995 Z" fill="#000000" fill-rule="nonzero" fill-opacity="1" /><path clip-path="url(#clip530)" d="M162.246 727.939 L169.885 727.939 L169.885 701.574 L161.575 703.24 L161.575 698.981 L169.839 697.315 L174.514 697.315 L174.514 727.939 L182.153 727.939 L182.153 731.875 L162.246 731.875 L162.246 727.939 Z" fill="#000000" fill-rule="nonzero" fill-opacity="1" /><path clip-path="url(#clip530)" d="M201.598 700.393 Q197.987 700.393 196.158 703.958 Q194.352 707.5 194.352 714.629 Q194.352 721.736 196.158 725.301 Q197.987 728.842 201.598 728.842 Q205.232 728.842 207.037 725.301 Q208.866 721.736 208.866 714.629 Q208.866 707.5 207.037 703.958 Q205.232 700.393 201.598 700.393 M201.598 696.69 Q207.408 696.69 210.463 701.296 Q213.542 705.879 213.542 714.629 Q213.542 723.356 210.463 727.963 Q207.408 732.546 201.598 732.546 Q195.787 732.546 192.709 727.963 Q189.653 723.356 189.653 714.629 Q189.653 705.879 192.709 701.296 Q195.787 696.69 201.598 696.69 Z" fill="#000000" fill-rule="nonzero" fill-opacity="1" /><path clip-path="url(#clip530)" d="M127.2 364.493 Q123.589 364.493 121.76 368.058 Q119.955 371.599 119.955 378.729 Q119.955 385.835 121.76 389.4 Q123.589 392.942 127.2 392.942 Q130.834 392.942 132.64 389.4 Q134.468 385.835 134.468 378.729 Q134.468 371.599 132.64 368.058 Q130.834 364.493 127.2 364.493 M127.2 360.789 Q133.01 360.789 136.066 365.396 Q139.144 369.979 139.144 378.729 Q139.144 387.456 136.066 392.062 Q133.01 396.645 127.2 396.645 Q121.39 396.645 118.311 392.062 Q115.256 387.456 115.256 378.729 Q115.256 369.979 118.311 365.396 Q121.39 360.789 127.2 360.789 Z" fill="#000000" fill-rule="nonzero" fill-opacity="1" /><path clip-path="url(#clip530)" d="M147.362 390.094 L152.246 390.094 L152.246 395.974 L147.362 395.974 L147.362 390.094 Z" fill="#000000" fill-rule="nonzero" fill-opacity="1" /><path clip-path="url(#clip530)" d="M163.241 392.039 L170.88 392.039 L170.88 365.673 L162.57 367.34 L162.57 363.081 L170.834 361.414 L175.51 361.414 L175.51 392.039 L183.149 392.039 L183.149 395.974 L163.241 395.974 L163.241 392.039 Z" fill="#000000" fill-rule="nonzero" fill-opacity="1" /><path clip-path="url(#clip530)" d="M192.639 361.414 L210.996 361.414 L210.996 365.349 L196.922 365.349 L196.922 373.821 Q197.94 373.474 198.959 373.312 Q199.977 373.127 200.996 373.127 Q206.783 373.127 210.162 376.298 Q213.542 379.47 213.542 384.886 Q213.542 390.465 210.07 393.567 Q206.598 396.645 200.278 396.645 Q198.102 396.645 195.834 396.275 Q193.588 395.905 191.181 395.164 L191.181 390.465 Q193.264 391.599 195.487 392.155 Q197.709 392.71 200.186 392.71 Q204.19 392.71 206.528 390.604 Q208.866 388.497 208.866 384.886 Q208.866 381.275 206.528 379.169 Q204.19 377.062 200.186 377.062 Q198.311 377.062 196.436 377.479 Q194.584 377.895 192.639 378.775 L192.639 361.414 Z" fill="#000000" fill-rule="nonzero" fill-opacity="1" /><path clip-path="url(#clip530)" d="M14.479 809.292 L19.3487 809.292 L19.3487 814.894 Q19.3487 818.045 20.6219 819.286 Q21.895 820.496 25.2052 820.496 L28.3562 820.496 L28.3562 810.852 L32.9077 810.852 L32.9077 820.496 L64.0042 820.496 L64.0042 826.384 L32.9077 826.384 L32.9077 831.986 L28.3562 831.986 L28.3562 826.384 L25.8736 826.384 Q19.9216 826.384 17.2162 823.615 Q14.479 820.846 14.479 814.83 L14.479 809.292 Z" fill="#000000" fill-rule="nonzero" fill-opacity="1" /><path clip-path="url(#clip530)" d="M14.479 804.391 L14.479 798.534 L64.0042 798.534 L64.0042 804.391 L14.479 804.391 Z" fill="#000000" fill-rule="nonzero" fill-opacity="1" /><path clip-path="url(#clip530)" d="M49.9359 786.885 L28.3562 786.885 L28.3562 781.028 L49.7131 781.028 Q54.7739 781.028 57.3202 779.055 Q59.8346 777.082 59.8346 773.135 Q59.8346 768.393 56.8109 765.655 Q53.7872 762.886 48.5673 762.886 L28.3562 762.886 L28.3562 757.03 L64.0042 757.03 L64.0042 762.886 L58.5296 762.886 Q61.7762 765.019 63.3676 767.851 Q64.9272 770.652 64.9272 774.376 Q64.9272 780.519 61.1078 783.702 Q57.2883 786.885 49.9359 786.885 M27.4968 772.148 L27.4968 772.148 Z" fill="#000000" fill-rule="nonzero" fill-opacity="1" /><path clip-path="url(#clip530)" d="M28.3562 715.334 L45.7028 728.225 L64.0042 714.666 L64.0042 721.573 L49.9996 731.949 L64.0042 742.325 L64.0042 749.232 L45.3526 735.386 L28.3562 748.054 L28.3562 741.147 L41.0558 731.694 L28.3562 722.241 L28.3562 715.334 Z" fill="#000000" fill-rule="nonzero" fill-opacity="1" /><path clip-path="url(#clip530)" d="M885.405 17.6457 Q876.493 17.6457 871.227 24.2892 Q866.001 30.9327 866.001 42.3968 Q866.001 53.8203 871.227 60.4638 Q876.493 67.1073 885.405 67.1073 Q894.317 67.1073 899.502 60.4638 Q904.727 53.8203 904.727 42.3968 Q904.727 30.9327 899.502 24.2892 Q894.317 17.6457 885.405 17.6457 M885.405 11.0023 Q898.125 11.0023 905.74 19.5497 Q913.356 28.0566 913.356 42.3968 Q913.356 56.6965 905.74 65.2439 Q898.125 73.7508 885.405 73.7508 Q872.644 73.7508 864.988 65.2439 Q857.372 56.737 857.372 42.3968 Q857.372 28.0566 864.988 19.5497 Q872.644 11.0023 885.405 11.0023 Z" fill="#000000" fill-rule="nonzero" fill-opacity="1" /><path clip-path="url(#clip530)" d="M925.063 54.671 L925.063 27.2059 L932.517 27.2059 L932.517 54.3874 Q932.517 60.8284 935.028 64.0691 Q937.54 67.2693 942.563 67.2693 Q948.599 67.2693 952.083 63.421 Q955.607 59.5726 955.607 52.9291 L955.607 27.2059 L963.061 27.2059 L963.061 72.576 L955.607 72.576 L955.607 65.6084 Q952.893 69.7404 949.287 71.7658 Q945.723 73.7508 940.983 73.7508 Q933.165 73.7508 929.114 68.8897 Q925.063 64.0286 925.063 54.671 M943.819 26.1121 L943.819 26.1121 Z" fill="#000000" fill-rule="nonzero" fill-opacity="1" /><path clip-path="url(#clip530)" d="M985.786 14.324 L985.786 27.2059 L1001.14 27.2059 L1001.14 32.9987 L985.786 32.9987 L985.786 57.6282 Q985.786 63.1779 987.285 64.7578 Q988.824 66.3376 993.483 66.3376 L1001.14 66.3376 L1001.14 72.576 L993.483 72.576 Q984.854 72.576 981.573 69.3758 Q978.292 66.1351 978.292 57.6282 L978.292 32.9987 L972.823 32.9987 L972.823 27.2059 L978.292 27.2059 L978.292 14.324 L985.786 14.324 Z" fill="#000000" fill-rule="nonzero" fill-opacity="1" /><path clip-path="url(#clip530)" d="M1010.94 9.54393 L1018.4 9.54393 L1018.4 72.576 L1010.94 72.576 L1010.94 9.54393 Z" fill="#000000" fill-rule="nonzero" fill-opacity="1" /><path clip-path="url(#clip530)" d="M1072.8 48.0275 L1072.8 51.6733 L1038.53 51.6733 Q1039.01 59.3701 1043.15 63.421 Q1047.32 67.4314 1054.73 67.4314 Q1059.03 67.4314 1063.04 66.3781 Q1067.09 65.3249 1071.06 63.2184 L1071.06 70.267 Q1067.05 71.9684 1062.83 72.8596 Q1058.62 73.7508 1054.29 73.7508 Q1043.43 73.7508 1037.07 67.4314 Q1030.75 61.1119 1030.75 50.3365 Q1030.75 39.1965 1036.75 32.6746 Q1042.78 26.1121 1052.99 26.1121 Q1062.15 26.1121 1067.45 32.0264 Q1072.8 37.9003 1072.8 48.0275 M1065.35 45.84 Q1065.26 39.7232 1061.9 36.0774 Q1058.58 32.4315 1053.07 32.4315 Q1046.83 32.4315 1043.07 35.9558 Q1039.34 39.4801 1038.77 45.8805 L1065.35 45.84 Z" fill="#000000" fill-rule="nonzero" fill-opacity="1" /><path clip-path="url(#clip530)" d="M1092.41 14.324 L1092.41 27.2059 L1107.76 27.2059 L1107.76 32.9987 L1092.41 32.9987 L1092.41 57.6282 Q1092.41 63.1779 1093.9 64.7578 Q1095.44 66.3376 1100.1 66.3376 L1107.76 66.3376 L1107.76 72.576 L1100.1 72.576 Q1091.47 72.576 1088.19 69.3758 Q1084.91 66.1351 1084.91 57.6282 L1084.91 32.9987 L1079.44 32.9987 L1079.44 27.2059 L1084.91 27.2059 L1084.91 14.324 L1092.41 14.324 Z" fill="#000000" fill-rule="nonzero" fill-opacity="1" /><path clip-path="url(#clip530)" d="M1144.26 12.096 L1179.01 12.096 L1179.01 18.9825 L1152.44 18.9825 L1152.44 36.8065 L1176.42 36.8065 L1176.42 43.6931 L1152.44 43.6931 L1152.44 72.576 L1144.26 72.576 L1144.26 12.096 Z" fill="#000000" fill-rule="nonzero" fill-opacity="1" /><path clip-path="url(#clip530)" d="M1191.65 9.54393 L1199.11 9.54393 L1199.11 72.576 L1191.65 72.576 L1191.65 9.54393 Z" fill="#000000" fill-rule="nonzero" fill-opacity="1" /><path clip-path="url(#clip530)" d="M1213.93 54.671 L1213.93 27.2059 L1221.39 27.2059 L1221.39 54.3874 Q1221.39 60.8284 1223.9 64.0691 Q1226.41 67.2693 1231.43 67.2693 Q1237.47 67.2693 1240.95 63.421 Q1244.48 59.5726 1244.48 52.9291 L1244.48 27.2059 L1251.93 27.2059 L1251.93 72.576 L1244.48 72.576 L1244.48 65.6084 Q1241.76 69.7404 1238.16 71.7658 Q1234.59 73.7508 1229.85 73.7508 Q1222.03 73.7508 1217.98 68.8897 Q1213.93 64.0286 1213.93 54.671 M1232.69 26.1121 L1232.69 26.1121 Z" fill="#000000" fill-rule="nonzero" fill-opacity="1" /><path clip-path="url(#clip530)" d="M1305 27.2059 L1288.59 49.2833 L1305.85 72.576 L1297.06 72.576 L1283.85 54.752 L1270.65 72.576 L1261.86 72.576 L1279.48 48.8377 L1263.35 27.2059 L1272.14 27.2059 L1284.18 43.369 L1296.21 27.2059 L1305 27.2059 Z" fill="#000000" fill-rule="nonzero" fill-opacity="1" /><path clip-path="url(#clip530)" d="M1360.33 32.4315 Q1354.34 32.4315 1350.85 37.1306 Q1347.37 41.7891 1347.37 49.9314 Q1347.37 58.0738 1350.81 62.7728 Q1354.3 67.4314 1360.33 67.4314 Q1366.29 67.4314 1369.77 62.7323 Q1373.26 58.0333 1373.26 49.9314 Q1373.26 41.8701 1369.77 37.1711 Q1366.29 32.4315 1360.33 32.4315 M1360.33 26.1121 Q1370.05 26.1121 1375.6 32.4315 Q1381.15 38.7509 1381.15 49.9314 Q1381.15 61.0714 1375.6 67.4314 Q1370.05 73.7508 1360.33 73.7508 Q1350.57 73.7508 1345.02 67.4314 Q1339.51 61.0714 1339.51 49.9314 Q1339.51 38.7509 1345.02 32.4315 Q1350.57 26.1121 1360.33 26.1121 Z" fill="#000000" fill-rule="nonzero" fill-opacity="1" /><path clip-path="url(#clip530)" d="M1388.16 27.2059 L1396.06 27.2059 L1410.24 65.2844 L1424.42 27.2059 L1432.32 27.2059 L1415.3 72.576 L1405.18 72.576 L1388.16 27.2059 Z" fill="#000000" fill-rule="nonzero" fill-opacity="1" /><path clip-path="url(#clip530)" d="M1481.41 48.0275 L1481.41 51.6733 L1447.14 51.6733 Q1447.63 59.3701 1451.76 63.421 Q1455.93 67.4314 1463.35 67.4314 Q1467.64 67.4314 1471.65 66.3781 Q1475.7 65.3249 1479.67 63.2184 L1479.67 70.267 Q1475.66 71.9684 1471.45 72.8596 Q1467.24 73.7508 1462.9 73.7508 Q1452.05 73.7508 1445.69 67.4314 Q1439.37 61.1119 1439.37 50.3365 Q1439.37 39.1965 1445.36 32.6746 Q1451.4 26.1121 1461.61 26.1121 Q1470.76 26.1121 1476.07 32.0264 Q1481.41 37.9003 1481.41 48.0275 M1473.96 45.84 Q1473.88 39.7232 1470.52 36.0774 Q1467.2 32.4315 1461.69 32.4315 Q1455.45 32.4315 1451.68 35.9558 Q1447.95 39.4801 1447.39 45.8805 L1473.96 45.84 Z" fill="#000000" fill-rule="nonzero" fill-opacity="1" /><path clip-path="url(#clip530)" d="M1519.94 34.1734 Q1518.68 33.4443 1517.18 33.1202 Q1515.73 32.7556 1513.94 32.7556 Q1507.62 32.7556 1504.22 36.8875 Q1500.86 40.9789 1500.86 48.6757 L1500.86 72.576 L1493.36 72.576 L1493.36 27.2059 L1500.86 27.2059 L1500.86 34.2544 Q1503.21 30.1225 1506.98 28.1376 Q1510.74 26.1121 1516.13 26.1121 Q1516.9 26.1121 1517.83 26.2337 Q1518.76 26.3147 1519.9 26.5172 L1519.94 34.1734 Z" fill="#000000" fill-rule="nonzero" fill-opacity="1" /><path clip-path="url(#clip530)" d="M1546.07 12.096 L1597.23 12.096 L1597.23 18.9825 L1575.76 18.9825 L1575.76 72.576 L1567.54 72.576 L1567.54 18.9825 L1546.07 18.9825 L1546.07 12.096 Z" fill="#000000" fill-rule="nonzero" fill-opacity="1" /><path clip-path="url(#clip530)" d="M1602.25 27.2059 L1609.71 27.2059 L1609.71 72.576 L1602.25 72.576 L1602.25 27.2059 M1602.25 9.54393 L1609.71 9.54393 L1609.71 18.9825 L1602.25 18.9825 L1602.25 9.54393 Z" fill="#000000" fill-rule="nonzero" fill-opacity="1" /><path clip-path="url(#clip530)" d="M1660.63 35.9153 Q1663.42 30.8922 1667.31 28.5022 Q1671.2 26.1121 1676.47 26.1121 Q1683.55 26.1121 1687.4 31.0947 Q1691.25 36.0368 1691.25 45.1919 L1691.25 72.576 L1683.76 72.576 L1683.76 45.4349 Q1683.76 38.913 1681.45 35.7533 Q1679.14 32.5936 1674.4 32.5936 Q1668.61 32.5936 1665.24 36.4419 Q1661.88 40.2903 1661.88 46.9338 L1661.88 72.576 L1654.39 72.576 L1654.39 45.4349 Q1654.39 38.8725 1652.08 35.7533 Q1649.77 32.5936 1644.95 32.5936 Q1639.24 32.5936 1635.88 36.4824 Q1632.51 40.3308 1632.51 46.9338 L1632.51 72.576 L1625.02 72.576 L1625.02 27.2059 L1632.51 27.2059 L1632.51 34.2544 Q1635.07 30.082 1638.63 28.0971 Q1642.19 26.1121 1647.1 26.1121 Q1652.04 26.1121 1655.48 28.6237 Q1658.97 31.1352 1660.63 35.9153 Z" fill="#000000" fill-rule="nonzero" fill-opacity="1" /><path clip-path="url(#clip530)" d="M1744.93 48.0275 L1744.93 51.6733 L1710.65 51.6733 Q1711.14 59.3701 1715.27 63.421 Q1719.45 67.4314 1726.86 67.4314 Q1731.15 67.4314 1735.16 66.3781 Q1739.21 65.3249 1743.18 63.2184 L1743.18 70.267 Q1739.17 71.9684 1734.96 72.8596 Q1730.75 73.7508 1726.41 73.7508 Q1715.56 73.7508 1709.2 67.4314 Q1702.88 61.1119 1702.88 50.3365 Q1702.88 39.1965 1708.87 32.6746 Q1714.91 26.1121 1725.12 26.1121 Q1734.27 26.1121 1739.58 32.0264 Q1744.93 37.9003 1744.93 48.0275 M1737.47 45.84 Q1737.39 39.7232 1734.03 36.0774 Q1730.71 32.4315 1725.2 32.4315 Q1718.96 32.4315 1715.19 35.9558 Q1711.47 39.4801 1710.9 45.8805 L1737.47 45.84 Z" fill="#000000" fill-rule="nonzero" fill-opacity="1" /><circle clip-path="url(#clip532)" cx="309.067" cy="1386.4" r="14.4" fill="#009af9" fill-rule="evenodd" fill-opacity="1" stroke="#000000" stroke-opacity="1" stroke-width="3.2"/>
<circle clip-path="url(#clip532)" cx="386.877" cy="1374.74" r="14.4" fill="#009af9" fill-rule="evenodd" fill-opacity="1" stroke="#000000" stroke-opacity="1" stroke-width="3.2"/>
<circle clip-path="url(#clip532)" cx="464.688" cy="1224.42" r="14.4" fill="#009af9" fill-rule="evenodd" fill-opacity="1" stroke="#000000" stroke-opacity="1" stroke-width="3.2"/>
<circle clip-path="url(#clip532)" cx="542.498" cy="993.403" r="14.4" fill="#009af9" fill-rule="evenodd" fill-opacity="1" stroke="#000000" stroke-opacity="1" stroke-width="3.2"/>
<circle clip-path="url(#clip532)" cx="620.308" cy="782.744" r="14.4" fill="#009af9" fill-rule="evenodd" fill-opacity="1" stroke="#000000" stroke-opacity="1" stroke-width="3.2"/>
<circle clip-path="url(#clip532)" cx="698.119" cy="616.971" r="14.4" fill="#009af9" fill-rule="evenodd" fill-opacity="1" stroke="#000000" stroke-opacity="1" stroke-width="3.2"/>
<circle clip-path="url(#clip532)" cx="775.929" cy="493.001" r="14.4" fill="#009af9" fill-rule="evenodd" fill-opacity="1" stroke="#000000" stroke-opacity="1" stroke-width="3.2"/>
<circle clip-path="url(#clip532)" cx="853.739" cy="401.91" r="14.4" fill="#009af9" fill-rule="evenodd" fill-opacity="1" stroke="#000000" stroke-opacity="1" stroke-width="3.2"/>
<circle clip-path="url(#clip532)" cx="931.55" cy="335.39" r="14.4" fill="#009af9" fill-rule="evenodd" fill-opacity="1" stroke="#000000" stroke-opacity="1" stroke-width="3.2"/>
<circle clip-path="url(#clip532)" cx="1009.36" cy="286.762" r="14.4" fill="#009af9" fill-rule="evenodd" fill-opacity="1" stroke="#000000" stroke-opacity="1" stroke-width="3.2"/>
<circle clip-path="url(#clip532)" cx="1087.17" cy="251.089" r="14.4" fill="#009af9" fill-rule="evenodd" fill-opacity="1" stroke="#000000" stroke-opacity="1" stroke-width="3.2"/>
<circle clip-path="url(#clip532)" cx="1164.98" cy="224.829" r="14.4" fill="#009af9" fill-rule="evenodd" fill-opacity="1" stroke="#000000" stroke-opacity="1" stroke-width="3.2"/>
<circle clip-path="url(#clip532)" cx="1242.79" cy="205.371" r="14.4" fill="#009af9" fill-rule="evenodd" fill-opacity="1" stroke="#000000" stroke-opacity="1" stroke-width="3.2"/>
<circle clip-path="url(#clip532)" cx="1320.6" cy="190.846" r="14.4" fill="#009af9" fill-rule="evenodd" fill-opacity="1" stroke="#000000" stroke-opacity="1" stroke-width="3.2"/>
<circle clip-path="url(#clip532)" cx="1398.41" cy="179.909" r="14.4" fill="#009af9" fill-rule="evenodd" fill-opacity="1" stroke="#000000" stroke-opacity="1" stroke-width="3.2"/>
<circle clip-path="url(#clip532)" cx="1476.22" cy="171.589" r="14.4" fill="#009af9" fill-rule="evenodd" fill-opacity="1" stroke="#000000" stroke-opacity="1" stroke-width="3.2"/>
<circle clip-path="url(#clip532)" cx="1554.03" cy="165.213" r="14.4" fill="#009af9" fill-rule="evenodd" fill-opacity="1" stroke="#000000" stroke-opacity="1" stroke-width="3.2"/>
<circle clip-path="url(#clip532)" cx="1631.84" cy="160.256" r="14.4" fill="#009af9" fill-rule="evenodd" fill-opacity="1" stroke="#000000" stroke-opacity="1" stroke-width="3.2"/>
<polyline clip-path="url(#clip532)" style="stroke:#e26f46; stroke-linecap:round; stroke-linejoin:round; stroke-width:4; stroke-opacity:1; fill:none" points="319.038,1386.4 329.008,1386.4 338.979,1386.4 348.95,1386.4 358.92,1386.4 368.891,1386.4 378.862,1386.4 388.832,1386.4 398.803,1386.39 408.774,1386.38 418.744,1386.35 428.715,1386.26 438.686,1386.1 448.656,1385.8 458.627,1385.3 468.598,1384.54 478.568,1383.44 488.539,1381.95 498.51,1379.99 508.48,1377.5 518.451,1374.45 528.422,1370.79 538.392,1366.5 548.363,1361.56 558.334,1355.96 568.304,1349.71 578.275,1342.81 588.246,1335.28 598.216,1327.15 608.187,1318.43 618.158,1309.15 628.129,1299.36 638.099,1289.07 648.07,1278.33 658.041,1267.17 668.011,1255.63 677.982,1243.73 687.953,1231.52 697.923,1219.03 707.894,1206.29 717.865,1193.34 727.835,1180.19 737.806,1166.88 747.777,1153.44 757.747,1139.89 767.718,1126.25 777.689,1112.55 787.659,1098.81 797.63,1085.05 807.601,1071.28 817.571,1057.53 827.542,1043.8 837.513,1030.11 847.483,1016.48 857.454,1002.92 867.425,989.434 877.395,976.037 887.366,962.737 897.337,949.543 907.307,936.461 917.278,923.499 927.249,910.663 937.219,897.958 947.19,885.388 957.161,872.958 967.131,860.672 977.102,848.532 987.073,836.542 997.043,824.703 1007.01,813.018 1016.98,801.488 1026.96,790.114 1036.93,778.898 1046.9,767.84 1056.87,756.94 1066.84,746.198 1076.81,735.615 1086.78,725.19 1096.75,714.922 1106.72,704.812 1116.69,694.858 1126.66,685.06 1136.63,675.416 1146.6,665.925 1156.57,656.586 1166.54,647.399 1176.52,638.36 1186.49,629.47 1196.46,620.726 1206.43,612.127 1216.4,603.672 1226.37,595.358 1236.34,587.184 1246.31,579.148 1256.28,571.249 1266.25,563.484 1276.22,555.852 1286.19,548.351 1296.16,540.979 1306.13,533.735 1316.1,526.616 1326.08,519.621 1336.05,512.748 1346.02,505.995 1355.99,499.36 1365.96,492.842 1375.93,486.438 1385.9,480.147 1395.87,473.968 1405.84,467.897 1415.81,461.934 1425.78,456.077 1435.75,450.323 1445.72,444.673 1455.69,439.122 1465.67,433.671 1475.64,428.317 1485.61,423.059 1495.58,417.895 1505.55,412.823 1515.52,407.843 1525.49,402.951 1535.46,398.148 1545.43,393.431 1555.4,388.798 1565.37,384.249 1575.34,379.782 1585.31,375.396 1595.28,371.088 1605.25,366.859 1615.23,362.705 1625.2,358.627 1635.17,354.622 1645.14,350.69 1655.11,346.829 1665.08,343.038 1675.05,339.315 1685.02,335.66 1694.99,332.071 1704.96,328.547 1714.93,325.086 1724.9,321.689 1734.87,318.353 1744.84,315.078 1754.81,311.862 1764.79,308.704 1774.76,305.604 1784.73,302.56 1794.7,299.571 1804.67,296.637 1814.64,293.755 1824.61,290.927 1834.58,288.149 1844.55,285.422 1854.52,282.745 1864.49,280.116 1874.46,277.535 1884.43,275.001 1894.4,272.513 1904.37,270.07 1914.35,267.672 1924.32,265.318 1934.29,263.006 1944.26,260.736 1954.23,258.507 1964.2,256.319 1974.17,254.171 1984.14,252.062 1994.11,249.992 2004.08,247.959 2014.05,245.963 2024.02,244.003 2033.99,242.079 2043.96,240.19 2053.93,238.336 2063.91,236.515 2073.88,234.727 2083.85,232.972 2093.82,231.249 2103.79,229.557 2113.76,227.896 2123.73,226.265 2133.7,224.664 2143.67,223.092 2153.64,221.549 2163.61,220.034 2173.58,218.546 2183.55,217.086 2193.52,215.652 2203.49,214.244 2213.47,212.862 2223.44,211.505 2233.41,210.173 2243.38,208.865 2253.35,207.581 2263.32,206.32 2273.29,205.082 2283.26,203.867 2293.23,202.674 "/>
<path clip-path="url(#clip530)" d="M1137.45 1379.86 L2282.65 1379.86 L2282.65 1068.82 L1137.45 1068.82  Z" fill="#ffffff" fill-rule="evenodd" fill-opacity="1"/>
<polyline clip-path="url(#clip530)" style="stroke:#000000; stroke-linecap:round; stroke-linejoin:round; stroke-width:4; stroke-opacity:1; fill:none" points="1137.45,1379.86 2282.65,1379.86 2282.65,1068.82 1137.45,1068.82 1137.45,1379.86 "/>
<circle clip-path="url(#clip530)" cx="1230.92" cy="1172.5" r="20.48" fill="#009af9" fill-rule="evenodd" fill-opacity="1" stroke="#000000" stroke-opacity="1" stroke-width="4.55111"/>
<path clip-path="url(#clip530)" d="M1331.81 1156.49 L1331.81 1163.85 L1340.58 1163.85 L1340.58 1167.16 L1331.81 1167.16 L1331.81 1181.23 Q1331.81 1184.41 1332.66 1185.31 Q1333.54 1186.21 1336.21 1186.21 L1340.58 1186.21 L1340.58 1189.78 L1336.21 1189.78 Q1331.28 1189.78 1329.4 1187.95 Q1327.53 1186.1 1327.53 1181.23 L1327.53 1167.16 L1324.4 1167.16 L1324.4 1163.85 L1327.53 1163.85 L1327.53 1156.49 L1331.81 1156.49 Z" fill="#000000" fill-rule="nonzero" fill-opacity="1" /><path clip-path="url(#clip530)" d="M1361.21 1167.83 Q1360.49 1167.42 1359.63 1167.23 Q1358.8 1167.02 1357.78 1167.02 Q1354.17 1167.02 1352.22 1169.38 Q1350.3 1171.72 1350.3 1176.12 L1350.3 1189.78 L1346.02 1189.78 L1346.02 1163.85 L1350.3 1163.85 L1350.3 1167.88 Q1351.65 1165.52 1353.8 1164.38 Q1355.95 1163.23 1359.03 1163.23 Q1359.47 1163.23 1360 1163.29 Q1360.53 1163.34 1361.18 1163.46 L1361.21 1167.83 Z" fill="#000000" fill-rule="nonzero" fill-opacity="1" /><path clip-path="url(#clip530)" d="M1377.46 1176.74 Q1372.29 1176.74 1370.3 1177.92 Q1368.31 1179.11 1368.31 1181.95 Q1368.31 1184.22 1369.79 1185.56 Q1371.3 1186.88 1373.87 1186.88 Q1377.41 1186.88 1379.54 1184.38 Q1381.69 1181.86 1381.69 1177.69 L1381.69 1176.74 L1377.46 1176.74 M1385.95 1174.98 L1385.95 1189.78 L1381.69 1189.78 L1381.69 1185.84 Q1380.23 1188.2 1378.06 1189.34 Q1375.88 1190.45 1372.73 1190.45 Q1368.75 1190.45 1366.39 1188.23 Q1364.05 1185.98 1364.05 1182.23 Q1364.05 1177.86 1366.97 1175.63 Q1369.91 1173.41 1375.72 1173.41 L1381.69 1173.41 L1381.69 1172.99 Q1381.69 1170.05 1379.75 1168.46 Q1377.83 1166.84 1374.33 1166.84 Q1372.11 1166.84 1370 1167.37 Q1367.9 1167.9 1365.95 1168.97 L1365.95 1165.03 Q1368.29 1164.13 1370.49 1163.69 Q1372.69 1163.23 1374.77 1163.23 Q1380.4 1163.23 1383.17 1166.14 Q1385.95 1169.06 1385.95 1174.98 Z" fill="#000000" fill-rule="nonzero" fill-opacity="1" /><path clip-path="url(#clip530)" d="M1416.27 1174.13 L1416.27 1189.78 L1412.02 1189.78 L1412.02 1174.27 Q1412.02 1170.59 1410.58 1168.76 Q1409.15 1166.93 1406.28 1166.93 Q1402.83 1166.93 1400.84 1169.13 Q1398.84 1171.33 1398.84 1175.12 L1398.84 1189.78 L1394.56 1189.78 L1394.56 1163.85 L1398.84 1163.85 L1398.84 1167.88 Q1400.37 1165.54 1402.43 1164.38 Q1404.52 1163.23 1407.22 1163.23 Q1411.69 1163.23 1413.98 1166 Q1416.27 1168.76 1416.27 1174.13 Z" fill="#000000" fill-rule="nonzero" fill-opacity="1" /><path clip-path="url(#clip530)" d="M1441.3 1164.61 L1441.3 1168.64 Q1439.49 1167.72 1437.55 1167.25 Q1435.6 1166.79 1433.52 1166.79 Q1430.35 1166.79 1428.75 1167.76 Q1427.18 1168.73 1427.18 1170.68 Q1427.18 1172.16 1428.31 1173.02 Q1429.45 1173.85 1432.87 1174.61 L1434.33 1174.94 Q1438.87 1175.91 1440.77 1177.69 Q1442.69 1179.45 1442.69 1182.62 Q1442.69 1186.23 1439.82 1188.34 Q1436.97 1190.45 1431.97 1190.45 Q1429.89 1190.45 1427.62 1190.03 Q1425.37 1189.64 1422.87 1188.83 L1422.87 1184.43 Q1425.23 1185.66 1427.52 1186.28 Q1429.82 1186.88 1432.06 1186.88 Q1435.07 1186.88 1436.69 1185.86 Q1438.31 1184.82 1438.31 1182.95 Q1438.31 1181.21 1437.13 1180.29 Q1435.97 1179.36 1432.02 1178.5 L1430.53 1178.16 Q1426.58 1177.32 1424.82 1175.61 Q1423.06 1173.87 1423.06 1170.86 Q1423.06 1167.21 1425.65 1165.22 Q1428.24 1163.23 1433.01 1163.23 Q1435.37 1163.23 1437.46 1163.57 Q1439.54 1163.92 1441.3 1164.61 Z" fill="#000000" fill-rule="nonzero" fill-opacity="1" /><path clip-path="url(#clip530)" d="M1449.47 1163.85 L1453.73 1163.85 L1453.73 1189.78 L1449.47 1189.78 L1449.47 1163.85 M1449.47 1153.76 L1453.73 1153.76 L1453.73 1159.15 L1449.47 1159.15 L1449.47 1153.76 Z" fill="#000000" fill-rule="nonzero" fill-opacity="1" /><path clip-path="url(#clip530)" d="M1484.82 1175.75 L1484.82 1177.83 L1465.23 1177.83 Q1465.51 1182.23 1467.87 1184.54 Q1470.26 1186.84 1474.49 1186.84 Q1476.95 1186.84 1479.24 1186.23 Q1481.55 1185.63 1483.82 1184.43 L1483.82 1188.46 Q1481.53 1189.43 1479.12 1189.94 Q1476.71 1190.45 1474.24 1190.45 Q1468.03 1190.45 1464.4 1186.84 Q1460.79 1183.23 1460.79 1177.07 Q1460.79 1170.7 1464.21 1166.98 Q1467.66 1163.23 1473.5 1163.23 Q1478.73 1163.23 1481.76 1166.61 Q1484.82 1169.96 1484.82 1175.75 M1480.56 1174.5 Q1480.51 1171 1478.59 1168.92 Q1476.69 1166.84 1473.54 1166.84 Q1469.98 1166.84 1467.83 1168.85 Q1465.7 1170.86 1465.37 1174.52 L1480.56 1174.5 Z" fill="#000000" fill-rule="nonzero" fill-opacity="1" /><path clip-path="url(#clip530)" d="M1513.36 1174.13 L1513.36 1189.78 L1509.1 1189.78 L1509.1 1174.27 Q1509.1 1170.59 1507.66 1168.76 Q1506.23 1166.93 1503.36 1166.93 Q1499.91 1166.93 1497.92 1169.13 Q1495.93 1171.33 1495.93 1175.12 L1495.93 1189.78 L1491.64 1189.78 L1491.64 1163.85 L1495.93 1163.85 L1495.93 1167.88 Q1497.46 1165.54 1499.52 1164.38 Q1501.6 1163.23 1504.31 1163.23 Q1508.77 1163.23 1511.07 1166 Q1513.36 1168.76 1513.36 1174.13 Z" fill="#000000" fill-rule="nonzero" fill-opacity="1" /><path clip-path="url(#clip530)" d="M1526.07 1156.49 L1526.07 1163.85 L1534.84 1163.85 L1534.84 1167.16 L1526.07 1167.16 L1526.07 1181.23 Q1526.07 1184.41 1526.92 1185.31 Q1527.8 1186.21 1530.46 1186.21 L1534.84 1186.21 L1534.84 1189.78 L1530.46 1189.78 Q1525.53 1189.78 1523.66 1187.95 Q1521.78 1186.1 1521.78 1181.23 L1521.78 1167.16 L1518.66 1167.16 L1518.66 1163.85 L1521.78 1163.85 L1521.78 1156.49 L1526.07 1156.49 Z" fill="#000000" fill-rule="nonzero" fill-opacity="1" /><path clip-path="url(#clip530)" d="M1572.57 1167.79 L1572.57 1153.76 L1576.83 1153.76 L1576.83 1189.78 L1572.57 1189.78 L1572.57 1185.89 Q1571.23 1188.2 1569.17 1189.34 Q1567.13 1190.45 1564.26 1190.45 Q1559.56 1190.45 1556.6 1186.7 Q1553.66 1182.95 1553.66 1176.84 Q1553.66 1170.73 1556.6 1166.98 Q1559.56 1163.23 1564.26 1163.23 Q1567.13 1163.23 1569.17 1164.36 Q1571.23 1165.47 1572.57 1167.79 M1558.06 1176.84 Q1558.06 1181.54 1559.98 1184.22 Q1561.92 1186.88 1565.3 1186.88 Q1568.68 1186.88 1570.63 1184.22 Q1572.57 1181.54 1572.57 1176.84 Q1572.57 1172.14 1570.63 1169.48 Q1568.68 1166.79 1565.3 1166.79 Q1561.92 1166.79 1559.98 1169.48 Q1558.06 1172.14 1558.06 1176.84 Z" fill="#000000" fill-rule="nonzero" fill-opacity="1" /><path clip-path="url(#clip530)" d="M1597.39 1176.74 Q1592.22 1176.74 1590.23 1177.92 Q1588.24 1179.11 1588.24 1181.95 Q1588.24 1184.22 1589.72 1185.56 Q1591.23 1186.88 1593.8 1186.88 Q1597.34 1186.88 1599.47 1184.38 Q1601.62 1181.86 1601.62 1177.69 L1601.62 1176.74 L1597.39 1176.74 M1605.88 1174.98 L1605.88 1189.78 L1601.62 1189.78 L1601.62 1185.84 Q1600.16 1188.2 1597.99 1189.34 Q1595.81 1190.45 1592.66 1190.45 Q1588.68 1190.45 1586.32 1188.23 Q1583.98 1185.98 1583.98 1182.23 Q1583.98 1177.86 1586.9 1175.63 Q1589.84 1173.41 1595.65 1173.41 L1601.62 1173.41 L1601.62 1172.99 Q1601.62 1170.05 1599.68 1168.46 Q1597.76 1166.84 1594.26 1166.84 Q1592.04 1166.84 1589.93 1167.37 Q1587.82 1167.9 1585.88 1168.97 L1585.88 1165.03 Q1588.22 1164.13 1590.42 1163.69 Q1592.62 1163.23 1594.7 1163.23 Q1600.32 1163.23 1603.1 1166.14 Q1605.88 1169.06 1605.88 1174.98 Z" fill="#000000" fill-rule="nonzero" fill-opacity="1" /><path clip-path="url(#clip530)" d="M1618.87 1156.49 L1618.87 1163.85 L1627.64 1163.85 L1627.64 1167.16 L1618.87 1167.16 L1618.87 1181.23 Q1618.87 1184.41 1619.72 1185.31 Q1620.6 1186.21 1623.26 1186.21 L1627.64 1186.21 L1627.64 1189.78 L1623.26 1189.78 Q1618.33 1189.78 1616.46 1187.95 Q1614.58 1186.1 1614.58 1181.23 L1614.58 1167.16 L1611.46 1167.16 L1611.46 1163.85 L1614.58 1163.85 L1614.58 1156.49 L1618.87 1156.49 Z" fill="#000000" fill-rule="nonzero" fill-opacity="1" /><path clip-path="url(#clip530)" d="M1645.02 1176.74 Q1639.86 1176.74 1637.87 1177.92 Q1635.88 1179.11 1635.88 1181.95 Q1635.88 1184.22 1637.36 1185.56 Q1638.87 1186.88 1641.44 1186.88 Q1644.98 1186.88 1647.11 1184.38 Q1649.26 1181.86 1649.26 1177.69 L1649.26 1176.74 L1645.02 1176.74 M1653.52 1174.98 L1653.52 1189.78 L1649.26 1189.78 L1649.26 1185.84 Q1647.8 1188.2 1645.63 1189.34 Q1643.45 1190.45 1640.3 1190.45 Q1636.32 1190.45 1633.96 1188.23 Q1631.62 1185.98 1631.62 1182.23 Q1631.62 1177.86 1634.54 1175.63 Q1637.48 1173.41 1643.29 1173.41 L1649.26 1173.41 L1649.26 1172.99 Q1649.26 1170.05 1647.32 1168.46 Q1645.39 1166.84 1641.9 1166.84 Q1639.68 1166.84 1637.57 1167.37 Q1635.46 1167.9 1633.52 1168.97 L1633.52 1165.03 Q1635.86 1164.13 1638.06 1163.69 Q1640.26 1163.23 1642.34 1163.23 Q1647.96 1163.23 1650.74 1166.14 Q1653.52 1169.06 1653.52 1174.98 Z" fill="#000000" fill-rule="nonzero" fill-opacity="1" /><path clip-path="url(#clip530)" d="M1690.49 1153.76 L1690.49 1157.3 L1686.41 1157.3 Q1684.12 1157.3 1683.22 1158.23 Q1682.34 1159.15 1682.34 1161.56 L1682.34 1163.85 L1689.35 1163.85 L1689.35 1167.16 L1682.34 1167.16 L1682.34 1189.78 L1678.06 1189.78 L1678.06 1167.16 L1673.98 1167.16 L1673.98 1163.85 L1678.06 1163.85 L1678.06 1162.04 Q1678.06 1157.72 1680.07 1155.75 Q1682.08 1153.76 1686.46 1153.76 L1690.49 1153.76 Z" fill="#000000" fill-rule="nonzero" fill-opacity="1" /><path clip-path="url(#clip530)" d="M1704.1 1166.84 Q1700.67 1166.84 1698.68 1169.52 Q1696.69 1172.18 1696.69 1176.84 Q1696.69 1181.49 1698.66 1184.17 Q1700.65 1186.84 1704.1 1186.84 Q1707.5 1186.84 1709.49 1184.15 Q1711.48 1181.47 1711.48 1176.84 Q1711.48 1172.23 1709.49 1169.54 Q1707.5 1166.84 1704.1 1166.84 M1704.1 1163.23 Q1709.65 1163.23 1712.82 1166.84 Q1716 1170.45 1716 1176.84 Q1716 1183.2 1712.82 1186.84 Q1709.65 1190.45 1704.1 1190.45 Q1698.52 1190.45 1695.35 1186.84 Q1692.2 1183.2 1692.2 1176.84 Q1692.2 1170.45 1695.35 1166.84 Q1698.52 1163.23 1704.1 1163.23 Z" fill="#000000" fill-rule="nonzero" fill-opacity="1" /><path clip-path="url(#clip530)" d="M1738.08 1167.83 Q1737.36 1167.42 1736.5 1167.23 Q1735.67 1167.02 1734.65 1167.02 Q1731.04 1167.02 1729.1 1169.38 Q1727.18 1171.72 1727.18 1176.12 L1727.18 1189.78 L1722.89 1189.78 L1722.89 1163.85 L1727.18 1163.85 L1727.18 1167.88 Q1728.52 1165.52 1730.67 1164.38 Q1732.82 1163.23 1735.9 1163.23 Q1736.34 1163.23 1736.88 1163.29 Q1737.41 1163.34 1738.06 1163.46 L1738.08 1167.83 Z" fill="#000000" fill-rule="nonzero" fill-opacity="1" /><path clip-path="url(#clip530)" d="M1757.62 1163.85 L1761.87 1163.85 L1761.87 1189.78 L1757.62 1189.78 L1757.62 1163.85 M1757.62 1153.76 L1761.87 1153.76 L1761.87 1159.15 L1757.62 1159.15 L1757.62 1153.76 Z" fill="#000000" fill-rule="nonzero" fill-opacity="1" /><path clip-path="url(#clip530)" d="M1790.97 1168.83 Q1792.57 1165.96 1794.79 1164.59 Q1797.01 1163.23 1800.02 1163.23 Q1804.07 1163.23 1806.27 1166.07 Q1808.47 1168.9 1808.47 1174.13 L1808.47 1189.78 L1804.19 1189.78 L1804.19 1174.27 Q1804.19 1170.54 1802.87 1168.73 Q1801.55 1166.93 1798.84 1166.93 Q1795.53 1166.93 1793.61 1169.13 Q1791.69 1171.33 1791.69 1175.12 L1791.69 1189.78 L1787.41 1189.78 L1787.41 1174.27 Q1787.41 1170.52 1786.09 1168.73 Q1784.77 1166.93 1782.01 1166.93 Q1778.75 1166.93 1776.83 1169.15 Q1774.91 1171.35 1774.91 1175.12 L1774.91 1189.78 L1770.62 1189.78 L1770.62 1163.85 L1774.91 1163.85 L1774.91 1167.88 Q1776.37 1165.49 1778.4 1164.36 Q1780.44 1163.23 1783.24 1163.23 Q1786.06 1163.23 1788.03 1164.66 Q1790.02 1166.1 1790.97 1168.83 Z" fill="#000000" fill-rule="nonzero" fill-opacity="1" /><path clip-path="url(#clip530)" d="M1828.75 1176.74 Q1823.59 1176.74 1821.6 1177.92 Q1819.61 1179.11 1819.61 1181.95 Q1819.61 1184.22 1821.09 1185.56 Q1822.59 1186.88 1825.16 1186.88 Q1828.7 1186.88 1830.83 1184.38 Q1832.99 1181.86 1832.99 1177.69 L1832.99 1176.74 L1828.75 1176.74 M1837.24 1174.98 L1837.24 1189.78 L1832.99 1189.78 L1832.99 1185.84 Q1831.53 1188.2 1829.35 1189.34 Q1827.18 1190.45 1824.03 1190.45 Q1820.05 1190.45 1817.68 1188.23 Q1815.35 1185.98 1815.35 1182.23 Q1815.35 1177.86 1818.26 1175.63 Q1821.2 1173.41 1827.01 1173.41 L1832.99 1173.41 L1832.99 1172.99 Q1832.99 1170.05 1831.04 1168.46 Q1829.12 1166.84 1825.62 1166.84 Q1823.4 1166.84 1821.3 1167.37 Q1819.19 1167.9 1817.25 1168.97 L1817.25 1165.03 Q1819.58 1164.13 1821.78 1163.69 Q1823.98 1163.23 1826.06 1163.23 Q1831.69 1163.23 1834.47 1166.14 Q1837.24 1169.06 1837.24 1174.98 Z" fill="#000000" fill-rule="nonzero" fill-opacity="1" /><path clip-path="url(#clip530)" d="M1863.08 1176.51 Q1863.08 1171.88 1861.16 1169.34 Q1859.26 1166.79 1855.81 1166.79 Q1852.38 1166.79 1850.46 1169.34 Q1848.56 1171.88 1848.56 1176.51 Q1848.56 1181.12 1850.46 1183.67 Q1852.38 1186.21 1855.81 1186.21 Q1859.26 1186.21 1861.16 1183.67 Q1863.08 1181.12 1863.08 1176.51 M1867.34 1186.56 Q1867.34 1193.18 1864.4 1196.4 Q1861.46 1199.64 1855.39 1199.64 Q1853.15 1199.64 1851.16 1199.29 Q1849.17 1198.97 1847.29 1198.27 L1847.29 1194.13 Q1849.17 1195.15 1850.99 1195.63 Q1852.82 1196.12 1854.72 1196.12 Q1858.91 1196.12 1860.99 1193.92 Q1863.08 1191.74 1863.08 1187.32 L1863.08 1185.22 Q1861.76 1187.51 1859.7 1188.64 Q1857.64 1189.78 1854.77 1189.78 Q1850 1189.78 1847.08 1186.14 Q1844.17 1182.51 1844.17 1176.51 Q1844.17 1170.49 1847.08 1166.86 Q1850 1163.23 1854.77 1163.23 Q1857.64 1163.23 1859.7 1164.36 Q1861.76 1165.49 1863.08 1167.79 L1863.08 1163.85 L1867.34 1163.85 L1867.34 1186.56 Z" fill="#000000" fill-rule="nonzero" fill-opacity="1" /><path clip-path="url(#clip530)" d="M1898.29 1175.75 L1898.29 1177.83 L1878.7 1177.83 Q1878.98 1182.23 1881.34 1184.54 Q1883.73 1186.84 1887.96 1186.84 Q1890.42 1186.84 1892.71 1186.23 Q1895.02 1185.63 1897.29 1184.43 L1897.29 1188.46 Q1895 1189.43 1892.59 1189.94 Q1890.18 1190.45 1887.71 1190.45 Q1881.5 1190.45 1877.87 1186.84 Q1874.26 1183.23 1874.26 1177.07 Q1874.26 1170.7 1877.68 1166.98 Q1881.13 1163.23 1886.97 1163.23 Q1892.2 1163.23 1895.23 1166.61 Q1898.29 1169.96 1898.29 1175.75 M1894.03 1174.5 Q1893.98 1171 1892.06 1168.92 Q1890.16 1166.84 1887.01 1166.84 Q1883.45 1166.84 1881.3 1168.85 Q1879.17 1170.86 1878.84 1174.52 L1894.03 1174.5 Z" fill="#000000" fill-rule="nonzero" fill-opacity="1" /><polyline clip-path="url(#clip530)" style="stroke:#e26f46; stroke-linecap:round; stroke-linejoin:round; stroke-width:4; stroke-opacity:1; fill:none" points="1160.82,1276.18 1301.03,1276.18 "/>
<path clip-path="url(#clip530)" d="M1346.11 1251.89 L1346.11 1267.54 L1341.85 1267.54 L1341.85 1252.03 Q1341.85 1248.35 1340.42 1246.52 Q1338.98 1244.69 1336.11 1244.69 Q1332.66 1244.69 1330.67 1246.89 Q1328.68 1249.09 1328.68 1252.88 L1328.68 1267.54 L1324.4 1267.54 L1324.4 1231.52 L1328.68 1231.52 L1328.68 1245.64 Q1330.21 1243.3 1332.27 1242.14 Q1334.35 1240.99 1337.06 1240.99 Q1341.53 1240.99 1343.82 1243.76 Q1346.11 1246.52 1346.11 1251.89 Z" fill="#000000" fill-rule="nonzero" fill-opacity="1" /><path clip-path="url(#clip530)" d="M1364.65 1244.6 Q1361.23 1244.6 1359.24 1247.28 Q1357.25 1249.94 1357.25 1254.6 Q1357.25 1259.25 1359.22 1261.93 Q1361.21 1264.6 1364.65 1264.6 Q1368.06 1264.6 1370.05 1261.91 Q1372.04 1259.23 1372.04 1254.6 Q1372.04 1249.99 1370.05 1247.3 Q1368.06 1244.6 1364.65 1244.6 M1364.65 1240.99 Q1370.21 1240.99 1373.38 1244.6 Q1376.55 1248.21 1376.55 1254.6 Q1376.55 1260.96 1373.38 1264.6 Q1370.21 1268.21 1364.65 1268.21 Q1359.08 1268.21 1355.9 1264.6 Q1352.76 1260.96 1352.76 1254.6 Q1352.76 1248.21 1355.9 1244.6 Q1359.08 1240.99 1364.65 1240.99 Z" fill="#000000" fill-rule="nonzero" fill-opacity="1" /><path clip-path="url(#clip530)" d="M1403.8 1246.59 Q1405.4 1243.72 1407.62 1242.35 Q1409.84 1240.99 1412.85 1240.99 Q1416.9 1240.99 1419.1 1243.83 Q1421.3 1246.66 1421.3 1251.89 L1421.3 1267.54 L1417.02 1267.54 L1417.02 1252.03 Q1417.02 1248.3 1415.7 1246.49 Q1414.38 1244.69 1411.67 1244.69 Q1408.36 1244.69 1406.44 1246.89 Q1404.52 1249.09 1404.52 1252.88 L1404.52 1267.54 L1400.23 1267.54 L1400.23 1252.03 Q1400.23 1248.28 1398.91 1246.49 Q1397.59 1244.69 1394.84 1244.69 Q1391.58 1244.69 1389.65 1246.91 Q1387.73 1249.11 1387.73 1252.88 L1387.73 1267.54 L1383.45 1267.54 L1383.45 1241.61 L1387.73 1241.61 L1387.73 1245.64 Q1389.19 1243.25 1391.23 1242.12 Q1393.27 1240.99 1396.07 1240.99 Q1398.89 1240.99 1400.86 1242.42 Q1402.85 1243.86 1403.8 1246.59 Z" fill="#000000" fill-rule="nonzero" fill-opacity="1" /><path clip-path="url(#clip530)" d="M1439.84 1244.6 Q1436.41 1244.6 1434.42 1247.28 Q1432.43 1249.94 1432.43 1254.6 Q1432.43 1259.25 1434.4 1261.93 Q1436.39 1264.6 1439.84 1264.6 Q1443.24 1264.6 1445.23 1261.91 Q1447.22 1259.23 1447.22 1254.6 Q1447.22 1249.99 1445.23 1247.3 Q1443.24 1244.6 1439.84 1244.6 M1439.84 1240.99 Q1445.4 1240.99 1448.57 1244.6 Q1451.74 1248.21 1451.74 1254.6 Q1451.74 1260.96 1448.57 1264.6 Q1445.4 1268.21 1439.84 1268.21 Q1434.26 1268.21 1431.09 1264.6 Q1427.94 1260.96 1427.94 1254.6 Q1427.94 1248.21 1431.09 1244.6 Q1434.26 1240.99 1439.84 1240.99 Z" fill="#000000" fill-rule="nonzero" fill-opacity="1" /><path clip-path="url(#clip530)" d="M1475.86 1254.27 Q1475.86 1249.64 1473.94 1247.1 Q1472.04 1244.55 1468.59 1244.55 Q1465.16 1244.55 1463.24 1247.1 Q1461.34 1249.64 1461.34 1254.27 Q1461.34 1258.88 1463.24 1261.43 Q1465.16 1263.97 1468.59 1263.97 Q1472.04 1263.97 1473.94 1261.43 Q1475.86 1258.88 1475.86 1254.27 M1480.12 1264.32 Q1480.12 1270.94 1477.18 1274.16 Q1474.24 1277.4 1468.17 1277.4 Q1465.93 1277.4 1463.94 1277.05 Q1461.95 1276.73 1460.07 1276.03 L1460.07 1271.89 Q1461.95 1272.91 1463.77 1273.39 Q1465.6 1273.88 1467.5 1273.88 Q1471.69 1273.88 1473.77 1271.68 Q1475.86 1269.5 1475.86 1265.08 L1475.86 1262.98 Q1474.54 1265.27 1472.48 1266.4 Q1470.42 1267.54 1467.55 1267.54 Q1462.78 1267.54 1459.86 1263.9 Q1456.95 1260.27 1456.95 1254.27 Q1456.95 1248.25 1459.86 1244.62 Q1462.78 1240.99 1467.55 1240.99 Q1470.42 1240.99 1472.48 1242.12 Q1474.54 1243.25 1475.86 1245.55 L1475.86 1241.61 L1480.12 1241.61 L1480.12 1264.32 Z" fill="#000000" fill-rule="nonzero" fill-opacity="1" /><path clip-path="url(#clip530)" d="M1511.07 1253.51 L1511.07 1255.59 L1491.48 1255.59 Q1491.76 1259.99 1494.12 1262.3 Q1496.51 1264.6 1500.74 1264.6 Q1503.2 1264.6 1505.49 1263.99 Q1507.8 1263.39 1510.07 1262.19 L1510.07 1266.22 Q1507.78 1267.19 1505.37 1267.7 Q1502.96 1268.21 1500.49 1268.21 Q1494.28 1268.21 1490.65 1264.6 Q1487.04 1260.99 1487.04 1254.83 Q1487.04 1248.46 1490.46 1244.74 Q1493.91 1240.99 1499.75 1240.99 Q1504.98 1240.99 1508.01 1244.37 Q1511.07 1247.72 1511.07 1253.51 M1506.81 1252.26 Q1506.76 1248.76 1504.84 1246.68 Q1502.94 1244.6 1499.79 1244.6 Q1496.23 1244.6 1494.08 1246.61 Q1491.95 1248.62 1491.62 1252.28 L1506.81 1252.26 Z" fill="#000000" fill-rule="nonzero" fill-opacity="1" /><path clip-path="url(#clip530)" d="M1539.61 1251.89 L1539.61 1267.54 L1535.35 1267.54 L1535.35 1252.03 Q1535.35 1248.35 1533.91 1246.52 Q1532.48 1244.69 1529.61 1244.69 Q1526.16 1244.69 1524.17 1246.89 Q1522.18 1249.09 1522.18 1252.88 L1522.18 1267.54 L1517.89 1267.54 L1517.89 1241.61 L1522.18 1241.61 L1522.18 1245.64 Q1523.7 1243.3 1525.77 1242.14 Q1527.85 1240.99 1530.56 1240.99 Q1535.02 1240.99 1537.32 1243.76 Q1539.61 1246.52 1539.61 1251.89 Z" fill="#000000" fill-rule="nonzero" fill-opacity="1" /><path clip-path="url(#clip530)" d="M1570.28 1253.51 L1570.28 1255.59 L1550.7 1255.59 Q1550.97 1259.99 1553.33 1262.3 Q1555.72 1264.6 1559.95 1264.6 Q1562.41 1264.6 1564.7 1263.99 Q1567.01 1263.39 1569.28 1262.19 L1569.28 1266.22 Q1566.99 1267.19 1564.58 1267.7 Q1562.18 1268.21 1559.7 1268.21 Q1553.5 1268.21 1549.86 1264.6 Q1546.25 1260.99 1546.25 1254.83 Q1546.25 1248.46 1549.68 1244.74 Q1553.13 1240.99 1558.96 1240.99 Q1564.19 1240.99 1567.22 1244.37 Q1570.28 1247.72 1570.28 1253.51 M1566.02 1252.26 Q1565.97 1248.76 1564.05 1246.68 Q1562.15 1244.6 1559.01 1244.6 Q1555.44 1244.6 1553.29 1246.61 Q1551.16 1248.62 1550.83 1252.28 L1566.02 1252.26 Z" fill="#000000" fill-rule="nonzero" fill-opacity="1" /><path clip-path="url(#clip530)" d="M1587.32 1244.6 Q1583.89 1244.6 1581.9 1247.28 Q1579.91 1249.94 1579.91 1254.6 Q1579.91 1259.25 1581.88 1261.93 Q1583.87 1264.6 1587.32 1264.6 Q1590.72 1264.6 1592.71 1261.91 Q1594.7 1259.23 1594.7 1254.6 Q1594.7 1249.99 1592.71 1247.3 Q1590.72 1244.6 1587.32 1244.6 M1587.32 1240.99 Q1592.87 1240.99 1596.04 1244.6 Q1599.21 1248.21 1599.21 1254.6 Q1599.21 1260.96 1596.04 1264.6 Q1592.87 1268.21 1587.32 1268.21 Q1581.74 1268.21 1578.57 1264.6 Q1575.42 1260.96 1575.42 1254.6 Q1575.42 1248.21 1578.57 1244.6 Q1581.74 1240.99 1587.32 1240.99 Z" fill="#000000" fill-rule="nonzero" fill-opacity="1" /><path clip-path="url(#clip530)" d="M1605.83 1257.3 L1605.83 1241.61 L1610.09 1241.61 L1610.09 1257.14 Q1610.09 1260.82 1611.53 1262.68 Q1612.96 1264.5 1615.83 1264.5 Q1619.28 1264.5 1621.27 1262.3 Q1623.29 1260.11 1623.29 1256.31 L1623.29 1241.61 L1627.55 1241.61 L1627.55 1267.54 L1623.29 1267.54 L1623.29 1263.55 Q1621.74 1265.92 1619.68 1267.07 Q1617.64 1268.21 1614.93 1268.21 Q1610.46 1268.21 1608.15 1265.43 Q1605.83 1262.65 1605.83 1257.3 M1616.55 1240.99 L1616.55 1240.99 Z" fill="#000000" fill-rule="nonzero" fill-opacity="1" /><path clip-path="url(#clip530)" d="M1652.85 1242.37 L1652.85 1246.4 Q1651.04 1245.48 1649.1 1245.01 Q1647.15 1244.55 1645.07 1244.55 Q1641.9 1244.55 1640.3 1245.52 Q1638.73 1246.49 1638.73 1248.44 Q1638.73 1249.92 1639.86 1250.78 Q1641 1251.61 1644.42 1252.37 L1645.88 1252.7 Q1650.42 1253.67 1652.32 1255.45 Q1654.24 1257.21 1654.24 1260.38 Q1654.24 1263.99 1651.37 1266.1 Q1648.52 1268.21 1643.52 1268.21 Q1641.44 1268.21 1639.17 1267.79 Q1636.92 1267.4 1634.42 1266.59 L1634.42 1262.19 Q1636.78 1263.42 1639.07 1264.04 Q1641.37 1264.64 1643.61 1264.64 Q1646.62 1264.64 1648.24 1263.62 Q1649.86 1262.58 1649.86 1260.71 Q1649.86 1258.97 1648.68 1258.05 Q1647.52 1257.12 1643.57 1256.26 L1642.08 1255.92 Q1638.13 1255.08 1636.37 1253.37 Q1634.61 1251.63 1634.61 1248.62 Q1634.61 1244.97 1637.2 1242.98 Q1639.79 1240.99 1644.56 1240.99 Q1646.92 1240.99 1649.01 1241.33 Q1651.09 1241.68 1652.85 1242.37 Z" fill="#000000" fill-rule="nonzero" fill-opacity="1" /><path clip-path="url(#clip530)" d="M1692.62 1242.37 L1692.62 1246.4 Q1690.81 1245.48 1688.87 1245.01 Q1686.92 1244.55 1684.84 1244.55 Q1681.67 1244.55 1680.07 1245.52 Q1678.5 1246.49 1678.5 1248.44 Q1678.5 1249.92 1679.63 1250.78 Q1680.76 1251.61 1684.19 1252.37 L1685.65 1252.7 Q1690.19 1253.67 1692.08 1255.45 Q1694 1257.21 1694 1260.38 Q1694 1263.99 1691.13 1266.1 Q1688.29 1268.21 1683.29 1268.21 Q1681.2 1268.21 1678.94 1267.79 Q1676.69 1267.4 1674.19 1266.59 L1674.19 1262.19 Q1676.55 1263.42 1678.84 1264.04 Q1681.13 1264.64 1683.38 1264.64 Q1686.39 1264.64 1688.01 1263.62 Q1689.63 1262.58 1689.63 1260.71 Q1689.63 1258.97 1688.45 1258.05 Q1687.29 1257.12 1683.33 1256.26 L1681.85 1255.92 Q1677.89 1255.08 1676.13 1253.37 Q1674.38 1251.63 1674.38 1248.62 Q1674.38 1244.97 1676.97 1242.98 Q1679.56 1240.99 1684.33 1240.99 Q1686.69 1240.99 1688.77 1241.33 Q1690.86 1241.68 1692.62 1242.37 Z" fill="#000000" fill-rule="nonzero" fill-opacity="1" /><path clip-path="url(#clip530)" d="M1710.83 1244.6 Q1707.41 1244.6 1705.42 1247.28 Q1703.43 1249.94 1703.43 1254.6 Q1703.43 1259.25 1705.39 1261.93 Q1707.38 1264.6 1710.83 1264.6 Q1714.24 1264.6 1716.23 1261.91 Q1718.22 1259.23 1718.22 1254.6 Q1718.22 1249.99 1716.23 1247.3 Q1714.24 1244.6 1710.83 1244.6 M1710.83 1240.99 Q1716.39 1240.99 1719.56 1244.6 Q1722.73 1248.21 1722.73 1254.6 Q1722.73 1260.96 1719.56 1264.6 Q1716.39 1268.21 1710.83 1268.21 Q1705.25 1268.21 1702.08 1264.6 Q1698.94 1260.96 1698.94 1254.6 Q1698.94 1248.21 1702.08 1244.6 Q1705.25 1240.99 1710.83 1240.99 Z" fill="#000000" fill-rule="nonzero" fill-opacity="1" /><path clip-path="url(#clip530)" d="M1729.79 1231.52 L1734.05 1231.52 L1734.05 1267.54 L1729.79 1267.54 L1729.79 1231.52 Z" fill="#000000" fill-rule="nonzero" fill-opacity="1" /><path clip-path="url(#clip530)" d="M1742.52 1257.3 L1742.52 1241.61 L1746.78 1241.61 L1746.78 1257.14 Q1746.78 1260.82 1748.22 1262.68 Q1749.65 1264.5 1752.52 1264.5 Q1755.97 1264.5 1757.96 1262.3 Q1759.98 1260.11 1759.98 1256.31 L1759.98 1241.61 L1764.24 1241.61 L1764.24 1267.54 L1759.98 1267.54 L1759.98 1263.55 Q1758.43 1265.92 1756.37 1267.07 Q1754.33 1268.21 1751.62 1268.21 Q1747.15 1268.21 1744.84 1265.43 Q1742.52 1262.65 1742.52 1257.3 M1753.24 1240.99 L1753.24 1240.99 Z" fill="#000000" fill-rule="nonzero" fill-opacity="1" /><path clip-path="url(#clip530)" d="M1777.22 1234.25 L1777.22 1241.61 L1786 1241.61 L1786 1244.92 L1777.22 1244.92 L1777.22 1258.99 Q1777.22 1262.17 1778.08 1263.07 Q1778.96 1263.97 1781.62 1263.97 L1786 1263.97 L1786 1267.54 L1781.62 1267.54 Q1776.69 1267.54 1774.81 1265.71 Q1772.94 1263.86 1772.94 1258.99 L1772.94 1244.92 L1769.81 1244.92 L1769.81 1241.61 L1772.94 1241.61 L1772.94 1234.25 L1777.22 1234.25 Z" fill="#000000" fill-rule="nonzero" fill-opacity="1" /><path clip-path="url(#clip530)" d="M1791.6 1241.61 L1795.86 1241.61 L1795.86 1267.54 L1791.6 1267.54 L1791.6 1241.61 M1791.6 1231.52 L1795.86 1231.52 L1795.86 1236.91 L1791.6 1236.91 L1791.6 1231.52 Z" fill="#000000" fill-rule="nonzero" fill-opacity="1" /><path clip-path="url(#clip530)" d="M1814.81 1244.6 Q1811.39 1244.6 1809.4 1247.28 Q1807.41 1249.94 1807.41 1254.6 Q1807.41 1259.25 1809.37 1261.93 Q1811.37 1264.6 1814.81 1264.6 Q1818.22 1264.6 1820.21 1261.91 Q1822.2 1259.23 1822.2 1254.6 Q1822.2 1249.99 1820.21 1247.3 Q1818.22 1244.6 1814.81 1244.6 M1814.81 1240.99 Q1820.37 1240.99 1823.54 1244.6 Q1826.71 1248.21 1826.71 1254.6 Q1826.71 1260.96 1823.54 1264.6 Q1820.37 1268.21 1814.81 1268.21 Q1809.24 1268.21 1806.06 1264.6 Q1802.92 1260.96 1802.92 1254.6 Q1802.92 1248.21 1806.06 1244.6 Q1809.24 1240.99 1814.81 1240.99 Z" fill="#000000" fill-rule="nonzero" fill-opacity="1" /><path clip-path="url(#clip530)" d="M1855.32 1251.89 L1855.32 1267.54 L1851.06 1267.54 L1851.06 1252.03 Q1851.06 1248.35 1849.63 1246.52 Q1848.19 1244.69 1845.32 1244.69 Q1841.87 1244.69 1839.88 1246.89 Q1837.89 1249.09 1837.89 1252.88 L1837.89 1267.54 L1833.61 1267.54 L1833.61 1241.61 L1837.89 1241.61 L1837.89 1245.64 Q1839.42 1243.3 1841.48 1242.14 Q1843.56 1240.99 1846.27 1240.99 Q1850.74 1240.99 1853.03 1243.76 Q1855.32 1246.52 1855.32 1251.89 Z" fill="#000000" fill-rule="nonzero" fill-opacity="1" /><path clip-path="url(#clip530)" d="M1876.41 1241.61 L1880.67 1241.61 L1885.99 1261.84 L1891.3 1241.61 L1896.32 1241.61 L1901.64 1261.84 L1906.94 1241.61 L1911.2 1241.61 L1904.42 1267.54 L1899.4 1267.54 L1893.82 1246.29 L1888.22 1267.54 L1883.19 1267.54 L1876.41 1241.61 Z" fill="#000000" fill-rule="nonzero" fill-opacity="1" /><path clip-path="url(#clip530)" d="M1917.66 1241.61 L1921.92 1241.61 L1921.92 1267.54 L1917.66 1267.54 L1917.66 1241.61 M1917.66 1231.52 L1921.92 1231.52 L1921.92 1236.91 L1917.66 1236.91 L1917.66 1231.52 Z" fill="#000000" fill-rule="nonzero" fill-opacity="1" /><path clip-path="url(#clip530)" d="M1935.05 1234.25 L1935.05 1241.61 L1943.82 1241.61 L1943.82 1244.92 L1935.05 1244.92 L1935.05 1258.99 Q1935.05 1262.17 1935.9 1263.07 Q1936.78 1263.97 1939.44 1263.97 L1943.82 1263.97 L1943.82 1267.54 L1939.44 1267.54 Q1934.51 1267.54 1932.64 1265.71 Q1930.76 1263.86 1930.76 1258.99 L1930.76 1244.92 L1927.64 1244.92 L1927.64 1241.61 L1930.76 1241.61 L1930.76 1234.25 L1935.05 1234.25 Z" fill="#000000" fill-rule="nonzero" fill-opacity="1" /><path clip-path="url(#clip530)" d="M1970.97 1251.89 L1970.97 1267.54 L1966.71 1267.54 L1966.71 1252.03 Q1966.71 1248.35 1965.28 1246.52 Q1963.84 1244.69 1960.97 1244.69 Q1957.52 1244.69 1955.53 1246.89 Q1953.54 1249.09 1953.54 1252.88 L1953.54 1267.54 L1949.26 1267.54 L1949.26 1231.52 L1953.54 1231.52 L1953.54 1245.64 Q1955.07 1243.3 1957.13 1242.14 Q1959.21 1240.99 1961.92 1240.99 Q1966.39 1240.99 1968.68 1243.76 Q1970.97 1246.52 1970.97 1251.89 Z" fill="#000000" fill-rule="nonzero" fill-opacity="1" /><path clip-path="url(#clip530)" d="M1999.4 1236.82 L1999.4 1263.69 L2005.04 1263.69 Q2012.2 1263.69 2015.51 1260.45 Q2018.84 1257.21 2018.84 1250.22 Q2018.84 1243.28 2015.51 1240.06 Q2012.2 1236.82 2005.04 1236.82 L1999.4 1236.82 M1994.72 1232.98 L2004.33 1232.98 Q2014.37 1232.98 2019.07 1237.17 Q2023.77 1241.33 2023.77 1250.22 Q2023.77 1259.16 2019.05 1263.35 Q2014.33 1267.54 2004.33 1267.54 L1994.72 1267.54 L1994.72 1232.98 Z" fill="#000000" fill-rule="nonzero" fill-opacity="1" /><path clip-path="url(#clip530)" d="M2046.67 1246.01 L2076.34 1246.01 L2076.34 1249.9 L2046.67 1249.9 L2046.67 1246.01 M2046.67 1255.45 L2076.34 1255.45 L2076.34 1259.39 L2046.67 1259.39 L2046.67 1255.45 Z" fill="#000000" fill-rule="nonzero" fill-opacity="1" /><path clip-path="url(#clip530)" d="M2102.31 1263.6 L2109.95 1263.6 L2109.95 1237.24 L2101.64 1238.9 L2101.64 1234.64 L2109.91 1232.98 L2114.58 1232.98 L2114.58 1263.6 L2122.22 1263.6 L2122.22 1267.54 L2102.31 1267.54 L2102.31 1263.6 Z" fill="#000000" fill-rule="nonzero" fill-opacity="1" /><path clip-path="url(#clip530)" d="M2138.63 1232.98 L2142.57 1232.98 L2130.53 1271.93 L2126.6 1271.93 L2138.63 1232.98 Z" fill="#000000" fill-rule="nonzero" fill-opacity="1" /><path clip-path="url(#clip530)" d="M2159.74 1262.81 Q2160.58 1263.93 2163.08 1263.93 L2165.14 1263.93 L2165.14 1267.54 L2162.57 1267.54 Q2158.4 1267.54 2156.5 1265.31 Q2154.6 1263.05 2154.6 1258.14 L2154.6 1245.87 L2144.88 1245.87 L2144.88 1241.61 L2168.79 1241.61 L2168.79 1245.87 L2158.96 1245.87 L2158.96 1258.39 Q2158.96 1261.75 2159.74 1262.81 Z" fill="#000000" fill-rule="nonzero" fill-opacity="1" /><path clip-path="url(#clip530)" d="M2195.28 1275.41 L2195.28 1278.72 L2170.65 1278.72 L2170.65 1275.41 L2195.28 1275.41 Z" fill="#000000" fill-rule="nonzero" fill-opacity="1" /><path clip-path="url(#clip530)" d="M2215.81 1242.37 L2215.81 1246.4 Q2214 1245.48 2212.06 1245.01 Q2210.11 1244.55 2208.03 1244.55 Q2204.86 1244.55 2203.26 1245.52 Q2201.69 1246.49 2201.69 1248.44 Q2201.69 1249.92 2202.82 1250.78 Q2203.96 1251.61 2207.38 1252.37 L2208.84 1252.7 Q2213.38 1253.67 2215.28 1255.45 Q2217.2 1257.21 2217.2 1260.38 Q2217.2 1263.99 2214.33 1266.1 Q2211.48 1268.21 2206.48 1268.21 Q2204.4 1268.21 2202.13 1267.79 Q2199.88 1267.4 2197.38 1266.59 L2197.38 1262.19 Q2199.74 1263.42 2202.03 1264.04 Q2204.33 1264.64 2206.57 1264.64 Q2209.58 1264.64 2211.2 1263.62 Q2212.82 1262.58 2212.82 1260.71 Q2212.82 1258.97 2211.64 1258.05 Q2210.48 1257.12 2206.53 1256.26 L2205.04 1255.92 Q2201.09 1255.08 2199.33 1253.37 Q2197.57 1251.63 2197.57 1248.62 Q2197.57 1244.97 2200.16 1242.98 Q2202.75 1240.99 2207.52 1240.99 Q2209.88 1240.99 2211.97 1241.33 Q2214.05 1241.68 2215.81 1242.37 Z" fill="#000000" fill-rule="nonzero" fill-opacity="1" /><path clip-path="url(#clip530)" d="M2240.51 1242.37 L2240.51 1246.4 Q2238.7 1245.48 2236.76 1245.01 Q2234.81 1244.55 2232.73 1244.55 Q2229.56 1244.55 2227.96 1245.52 Q2226.39 1246.49 2226.39 1248.44 Q2226.39 1249.92 2227.52 1250.78 Q2228.65 1251.61 2232.08 1252.37 L2233.54 1252.7 Q2238.08 1253.67 2239.97 1255.45 Q2241.9 1257.21 2241.9 1260.38 Q2241.9 1263.99 2239.03 1266.1 Q2236.18 1268.21 2231.18 1268.21 Q2229.09 1268.21 2226.83 1267.79 Q2224.58 1267.4 2222.08 1266.59 L2222.08 1262.19 Q2224.44 1263.42 2226.73 1264.04 Q2229.03 1264.64 2231.27 1264.64 Q2234.28 1264.64 2235.9 1263.62 Q2237.52 1262.58 2237.52 1260.71 Q2237.52 1258.97 2236.34 1258.05 Q2235.18 1257.12 2231.22 1256.26 L2229.74 1255.92 Q2225.78 1255.08 2224.03 1253.37 Q2222.27 1251.63 2222.27 1248.62 Q2222.27 1244.97 2224.86 1242.98 Q2227.45 1240.99 2232.22 1240.99 Q2234.58 1240.99 2236.66 1241.33 Q2238.75 1241.68 2240.51 1242.37 Z" fill="#000000" fill-rule="nonzero" fill-opacity="1" /><path clip-path="url(#clip530)" d="M1356.65 1314.65 Q1357.48 1315.77 1359.98 1315.77 L1362.04 1315.77 L1362.04 1319.38 L1359.47 1319.38 Q1355.3 1319.38 1353.4 1317.15 Q1351.51 1314.89 1351.51 1309.98 L1351.51 1297.71 L1341.78 1297.71 L1341.78 1293.45 L1365.7 1293.45 L1365.7 1297.71 L1355.86 1297.71 L1355.86 1310.23 Q1355.86 1313.59 1356.65 1314.65 Z" fill="#000000" fill-rule="nonzero" fill-opacity="1" /><path clip-path="url(#clip530)" d="M1392.18 1327.25 L1392.18 1330.56 L1367.55 1330.56 L1367.55 1327.25 L1392.18 1327.25 Z" fill="#000000" fill-rule="nonzero" fill-opacity="1" /><path clip-path="url(#clip530)" d="M1412.71 1294.21 L1412.71 1298.24 Q1410.9 1297.32 1408.96 1296.85 Q1407.02 1296.39 1404.93 1296.39 Q1401.76 1296.39 1400.16 1297.36 Q1398.59 1298.33 1398.59 1300.28 Q1398.59 1301.76 1399.72 1302.62 Q1400.86 1303.45 1404.28 1304.21 L1405.74 1304.54 Q1410.28 1305.51 1412.18 1307.29 Q1414.1 1309.05 1414.1 1312.22 Q1414.1 1315.83 1411.23 1317.94 Q1408.38 1320.05 1403.38 1320.05 Q1401.3 1320.05 1399.03 1319.63 Q1396.78 1319.24 1394.28 1318.43 L1394.28 1314.03 Q1396.65 1315.26 1398.94 1315.88 Q1401.23 1316.48 1403.47 1316.48 Q1406.48 1316.48 1408.1 1315.46 Q1409.72 1314.42 1409.72 1312.55 Q1409.72 1310.81 1408.54 1309.89 Q1407.39 1308.96 1403.43 1308.1 L1401.95 1307.76 Q1397.99 1306.92 1396.23 1305.21 Q1394.47 1303.47 1394.47 1300.46 Q1394.47 1296.81 1397.06 1294.82 Q1399.65 1292.83 1404.42 1292.83 Q1406.78 1292.83 1408.87 1293.17 Q1410.95 1293.52 1412.71 1294.21 Z" fill="#000000" fill-rule="nonzero" fill-opacity="1" /><path clip-path="url(#clip530)" d="M1437.41 1294.21 L1437.41 1298.24 Q1435.6 1297.32 1433.66 1296.85 Q1431.71 1296.39 1429.63 1296.39 Q1426.46 1296.39 1424.86 1297.36 Q1423.29 1298.33 1423.29 1300.28 Q1423.29 1301.76 1424.42 1302.62 Q1425.56 1303.45 1428.98 1304.21 L1430.44 1304.54 Q1434.98 1305.51 1436.88 1307.29 Q1438.8 1309.05 1438.8 1312.22 Q1438.8 1315.83 1435.93 1317.94 Q1433.08 1320.05 1428.08 1320.05 Q1426 1320.05 1423.73 1319.63 Q1421.48 1319.24 1418.98 1318.43 L1418.98 1314.03 Q1421.34 1315.26 1423.64 1315.88 Q1425.93 1316.48 1428.17 1316.48 Q1431.18 1316.48 1432.8 1315.46 Q1434.42 1314.42 1434.42 1312.55 Q1434.42 1310.81 1433.24 1309.89 Q1432.09 1308.96 1428.13 1308.1 L1426.65 1307.76 Q1422.69 1306.92 1420.93 1305.21 Q1419.17 1303.47 1419.17 1300.46 Q1419.17 1296.81 1421.76 1294.82 Q1424.35 1292.83 1429.12 1292.83 Q1431.48 1292.83 1433.57 1293.17 Q1435.65 1293.52 1437.41 1294.21 Z" fill="#000000" fill-rule="nonzero" fill-opacity="1" /><path clip-path="url(#clip530)" d="M1461.21 1297.85 L1490.88 1297.85 L1490.88 1301.74 L1461.21 1301.74 L1461.21 1297.85 M1461.21 1307.29 L1490.88 1307.29 L1490.88 1311.23 L1461.21 1311.23 L1461.21 1307.29 Z" fill="#000000" fill-rule="nonzero" fill-opacity="1" /><path clip-path="url(#clip530)" d="M1530.21 1300.74 Q1533.57 1301.46 1535.44 1303.73 Q1537.34 1306 1537.34 1309.33 Q1537.34 1314.45 1533.82 1317.25 Q1530.3 1320.05 1523.82 1320.05 Q1521.64 1320.05 1519.33 1319.61 Q1517.04 1319.19 1514.58 1318.33 L1514.58 1313.82 Q1516.53 1314.95 1518.84 1315.53 Q1521.16 1316.11 1523.68 1316.11 Q1528.08 1316.11 1530.37 1314.38 Q1532.69 1312.64 1532.69 1309.33 Q1532.69 1306.27 1530.53 1304.56 Q1528.4 1302.83 1524.58 1302.83 L1520.56 1302.83 L1520.56 1298.98 L1524.77 1298.98 Q1528.22 1298.98 1530.05 1297.62 Q1531.88 1296.23 1531.88 1293.64 Q1531.88 1290.97 1529.98 1289.56 Q1528.1 1288.13 1524.58 1288.13 Q1522.66 1288.13 1520.46 1288.54 Q1518.27 1288.96 1515.63 1289.84 L1515.63 1285.67 Q1518.29 1284.93 1520.6 1284.56 Q1522.94 1284.19 1525 1284.19 Q1530.33 1284.19 1533.43 1286.62 Q1536.53 1289.03 1536.53 1293.15 Q1536.53 1296.02 1534.89 1298.01 Q1533.24 1299.98 1530.21 1300.74 Z" fill="#000000" fill-rule="nonzero" fill-opacity="1" /><path clip-path="url(#clip530)" d="M1546.2 1313.5 L1551.09 1313.5 L1551.09 1319.38 L1546.2 1319.38 L1546.2 1313.5 Z" fill="#000000" fill-rule="nonzero" fill-opacity="1" /><path clip-path="url(#clip530)" d="M1574.12 1288.89 L1562.32 1307.34 L1574.12 1307.34 L1574.12 1288.89 M1572.89 1284.82 L1578.77 1284.82 L1578.77 1307.34 L1583.7 1307.34 L1583.7 1311.23 L1578.77 1311.23 L1578.77 1319.38 L1574.12 1319.38 L1574.12 1311.23 L1558.52 1311.23 L1558.52 1306.71 L1572.89 1284.82 Z" fill="#000000" fill-rule="nonzero" fill-opacity="1" /><path clip-path="url(#clip530)" d="M1604.28 1288.89 L1592.48 1307.34 L1604.28 1307.34 L1604.28 1288.89 M1603.06 1284.82 L1608.94 1284.82 L1608.94 1307.34 L1613.87 1307.34 L1613.87 1311.23 L1608.94 1311.23 L1608.94 1319.38 L1604.28 1319.38 L1604.28 1311.23 L1588.68 1311.23 L1588.68 1306.71 L1603.06 1284.82 Z" fill="#000000" fill-rule="nonzero" fill-opacity="1" /></svg>
