<?xml version="1.0" encoding="utf-8"?>
<svg xmlns="http://www.w3.org/2000/svg" xmlns:xlink="http://www.w3.org/1999/xlink" width="600" height="400" viewBox="0 0 2400 1600">
<defs>
  <clipPath id="clip940">
    <rect x="0" y="0" width="2400" height="1600"/>
  </clipPath>
</defs>
<path clip-path="url(#clip940)" d="M0 1600 L2400 1600 L2400 0 L0 0  Z" fill="#ffffff" fill-rule="evenodd" fill-opacity="1"/>
<defs>
  <clipPath id="clip941">
    <rect x="249" y="123" width="2104" height="1301"/>
  </clipPath>
</defs>
<path clip-path="url(#clip940)" d="M232.389 1423.18 L2352.76 1423.18 L2352.76 123.472 L232.389 123.472  Z" fill="#ffffff" fill-rule="evenodd" fill-opacity="1"/>
<defs>
  <clipPath id="clip942">
    <rect x="232" y="123" width="2121" height="1301"/>
  </clipPath>
</defs>
<polyline clip-path="url(#clip942)" style="stroke:#000000; stroke-linecap:round; stroke-linejoin:round; stroke-width:2; stroke-opacity:0.1; fill:none" points="558.693,1423.18 558.693,123.472 "/>
<polyline clip-path="url(#clip942)" style="stroke:#000000; stroke-linecap:round; stroke-linejoin:round; stroke-width:2; stroke-opacity:0.1; fill:none" points="1082.89,1423.18 1082.89,123.472 "/>
<polyline clip-path="url(#clip942)" style="stroke:#000000; stroke-linecap:round; stroke-linejoin:round; stroke-width:2; stroke-opacity:0.1; fill:none" points="1607.09,1423.18 1607.09,123.472 "/>
<polyline clip-path="url(#clip942)" style="stroke:#000000; stroke-linecap:round; stroke-linejoin:round; stroke-width:2; stroke-opacity:0.1; fill:none" points="2131.29,1423.18 2131.29,123.472 "/>
<polyline clip-path="url(#clip942)" style="stroke:#000000; stroke-linecap:round; stroke-linejoin:round; stroke-width:2; stroke-opacity:0.1; fill:none" points="232.389,1423.18 2352.76,1423.18 "/>
<polyline clip-path="url(#clip942)" style="stroke:#000000; stroke-linecap:round; stroke-linejoin:round; stroke-width:2; stroke-opacity:0.1; fill:none" points="232.389,1140.63 2352.76,1140.63 "/>
<polyline clip-path="url(#clip942)" style="stroke:#000000; stroke-linecap:round; stroke-linejoin:round; stroke-width:2; stroke-opacity:0.1; fill:none" points="232.389,858.09 2352.76,858.09 "/>
<polyline clip-path="url(#clip942)" style="stroke:#000000; stroke-linecap:round; stroke-linejoin:round; stroke-width:2; stroke-opacity:0.1; fill:none" points="232.389,575.544 2352.76,575.544 "/>
<polyline clip-path="url(#clip942)" style="stroke:#000000; stroke-linecap:round; stroke-linejoin:round; stroke-width:2; stroke-opacity:0.1; fill:none" points="232.389,292.999 2352.76,292.999 "/>
<polyline clip-path="url(#clip940)" style="stroke:#000000; stroke-linecap:round; stroke-linejoin:round; stroke-width:4; stroke-opacity:1; fill:none" points="232.389,1423.18 2352.76,1423.18 "/>
<polyline clip-path="url(#clip940)" style="stroke:#000000; stroke-linecap:round; stroke-linejoin:round; stroke-width:4; stroke-opacity:1; fill:none" points="558.693,1423.18 558.693,1404.28 "/>
<polyline clip-path="url(#clip940)" style="stroke:#000000; stroke-linecap:round; stroke-linejoin:round; stroke-width:4; stroke-opacity:1; fill:none" points="1082.89,1423.18 1082.89,1404.28 "/>
<polyline clip-path="url(#clip940)" style="stroke:#000000; stroke-linecap:round; stroke-linejoin:round; stroke-width:4; stroke-opacity:1; fill:none" points="1607.09,1423.18 1607.09,1404.28 "/>
<polyline clip-path="url(#clip940)" style="stroke:#000000; stroke-linecap:round; stroke-linejoin:round; stroke-width:4; stroke-opacity:1; fill:none" points="2131.29,1423.18 2131.29,1404.28 "/>
<path clip-path="url(#clip940)" d="M529.932 1481.64 L546.251 1481.64 L546.251 1485.58 L524.307 1485.58 L524.307 1481.64 Q526.969 1478.89 531.552 1474.26 Q536.159 1469.61 537.339 1468.27 Q539.584 1465.74 540.464 1464.01 Q541.367 1462.25 541.367 1460.56 Q541.367 1457.8 539.422 1456.07 Q537.501 1454.33 534.399 1454.33 Q532.2 1454.33 529.747 1455.09 Q527.316 1455.86 524.538 1457.41 L524.538 1452.69 Q527.362 1451.55 529.816 1450.97 Q532.27 1450.39 534.307 1450.39 Q539.677 1450.39 542.871 1453.08 Q546.066 1455.77 546.066 1460.26 Q546.066 1462.39 545.256 1464.31 Q544.469 1466.2 542.362 1468.8 Q541.784 1469.47 538.682 1472.69 Q535.58 1475.88 529.932 1481.64 Z" fill="#000000" fill-rule="nonzero" fill-opacity="1" /><path clip-path="url(#clip940)" d="M556.066 1479.7 L560.95 1479.7 L560.95 1485.58 L556.066 1485.58 L556.066 1479.7 Z" fill="#000000" fill-rule="nonzero" fill-opacity="1" /><path clip-path="url(#clip940)" d="M581.135 1454.1 Q577.524 1454.1 575.695 1457.66 Q573.89 1461.2 573.89 1468.33 Q573.89 1475.44 575.695 1479.01 Q577.524 1482.55 581.135 1482.55 Q584.769 1482.55 586.575 1479.01 Q588.404 1475.44 588.404 1468.33 Q588.404 1461.2 586.575 1457.66 Q584.769 1454.1 581.135 1454.1 M581.135 1450.39 Q586.945 1450.39 590.001 1455 Q593.08 1459.58 593.08 1468.33 Q593.08 1477.06 590.001 1481.67 Q586.945 1486.25 581.135 1486.25 Q575.325 1486.25 572.246 1481.67 Q569.191 1477.06 569.191 1468.33 Q569.191 1459.58 572.246 1455 Q575.325 1450.39 581.135 1450.39 Z" fill="#000000" fill-rule="nonzero" fill-opacity="1" /><path clip-path="url(#clip940)" d="M1054.63 1481.64 L1070.95 1481.64 L1070.95 1485.58 L1049 1485.58 L1049 1481.64 Q1051.67 1478.89 1056.25 1474.26 Q1060.86 1469.61 1062.04 1468.27 Q1064.28 1465.74 1065.16 1464.01 Q1066.06 1462.25 1066.06 1460.56 Q1066.06 1457.8 1064.12 1456.07 Q1062.2 1454.33 1059.1 1454.33 Q1056.9 1454.33 1054.44 1455.09 Q1052.01 1455.86 1049.24 1457.41 L1049.24 1452.69 Q1052.06 1451.55 1054.51 1450.97 Q1056.97 1450.39 1059 1450.39 Q1064.37 1450.39 1067.57 1453.08 Q1070.76 1455.77 1070.76 1460.26 Q1070.76 1462.39 1069.95 1464.31 Q1069.17 1466.2 1067.06 1468.8 Q1066.48 1469.47 1063.38 1472.69 Q1060.28 1475.88 1054.63 1481.64 Z" fill="#000000" fill-rule="nonzero" fill-opacity="1" /><path clip-path="url(#clip940)" d="M1080.76 1479.7 L1085.65 1479.7 L1085.65 1485.58 L1080.76 1485.58 L1080.76 1479.7 Z" fill="#000000" fill-rule="nonzero" fill-opacity="1" /><path clip-path="url(#clip940)" d="M1095.88 1451.02 L1114.24 1451.02 L1114.24 1454.96 L1100.16 1454.96 L1100.16 1463.43 Q1101.18 1463.08 1102.2 1462.92 Q1103.22 1462.73 1104.24 1462.73 Q1110.02 1462.73 1113.4 1465.9 Q1116.78 1469.08 1116.78 1474.49 Q1116.78 1480.07 1113.31 1483.17 Q1109.84 1486.25 1103.52 1486.25 Q1101.34 1486.25 1099.07 1485.88 Q1096.83 1485.51 1094.42 1484.77 L1094.42 1480.07 Q1096.5 1481.2 1098.73 1481.76 Q1100.95 1482.32 1103.43 1482.32 Q1107.43 1482.32 1109.77 1480.21 Q1112.11 1478.1 1112.11 1474.49 Q1112.11 1470.88 1109.77 1468.77 Q1107.43 1466.67 1103.43 1466.67 Q1101.55 1466.67 1099.68 1467.08 Q1097.82 1467.5 1095.88 1468.38 L1095.88 1451.02 Z" fill="#000000" fill-rule="nonzero" fill-opacity="1" /><path clip-path="url(#clip940)" d="M1588.4 1466.95 Q1591.76 1467.66 1593.63 1469.93 Q1595.53 1472.2 1595.53 1475.53 Q1595.53 1480.65 1592.01 1483.45 Q1588.49 1486.25 1582.01 1486.25 Q1579.84 1486.25 1577.52 1485.81 Q1575.23 1485.39 1572.78 1484.54 L1572.78 1480.02 Q1574.72 1481.16 1577.03 1481.74 Q1579.35 1482.32 1581.87 1482.32 Q1586.27 1482.32 1588.56 1480.58 Q1590.88 1478.84 1590.88 1475.53 Q1590.88 1472.48 1588.72 1470.77 Q1586.59 1469.03 1582.78 1469.03 L1578.75 1469.03 L1578.75 1465.19 L1582.96 1465.19 Q1586.41 1465.19 1588.24 1463.82 Q1590.07 1462.43 1590.07 1459.84 Q1590.07 1457.18 1588.17 1455.77 Q1586.29 1454.33 1582.78 1454.33 Q1580.85 1454.33 1578.66 1454.75 Q1576.46 1455.16 1573.82 1456.04 L1573.82 1451.88 Q1576.48 1451.14 1578.79 1450.77 Q1581.13 1450.39 1583.19 1450.39 Q1588.52 1450.39 1591.62 1452.83 Q1594.72 1455.23 1594.72 1459.35 Q1594.72 1462.22 1593.08 1464.21 Q1591.43 1466.18 1588.4 1466.95 Z" fill="#000000" fill-rule="nonzero" fill-opacity="1" /><path clip-path="url(#clip940)" d="M1604.4 1479.7 L1609.28 1479.7 L1609.28 1485.58 L1604.4 1485.58 L1604.4 1479.7 Z" fill="#000000" fill-rule="nonzero" fill-opacity="1" /><path clip-path="url(#clip940)" d="M1629.46 1454.1 Q1625.85 1454.1 1624.03 1457.66 Q1622.22 1461.2 1622.22 1468.33 Q1622.22 1475.44 1624.03 1479.01 Q1625.85 1482.55 1629.46 1482.55 Q1633.1 1482.55 1634.9 1479.01 Q1636.73 1475.44 1636.73 1468.33 Q1636.73 1461.2 1634.9 1457.66 Q1633.1 1454.1 1629.46 1454.1 M1629.46 1450.39 Q1635.28 1450.39 1638.33 1455 Q1641.41 1459.58 1641.41 1468.33 Q1641.41 1477.06 1638.33 1481.67 Q1635.28 1486.25 1629.46 1486.25 Q1623.65 1486.25 1620.58 1481.67 Q1617.52 1477.06 1617.52 1468.33 Q1617.52 1459.58 1620.58 1455 Q1623.65 1450.39 1629.46 1450.39 Z" fill="#000000" fill-rule="nonzero" fill-opacity="1" /><path clip-path="url(#clip940)" d="M2113.1 1466.95 Q2116.45 1467.66 2118.33 1469.93 Q2120.23 1472.2 2120.23 1475.53 Q2120.23 1480.65 2116.71 1483.45 Q2113.19 1486.25 2106.71 1486.25 Q2104.53 1486.25 2102.22 1485.81 Q2099.93 1485.39 2097.47 1484.54 L2097.47 1480.02 Q2099.42 1481.16 2101.73 1481.74 Q2104.05 1482.32 2106.57 1482.32 Q2110.97 1482.32 2113.26 1480.58 Q2115.57 1478.84 2115.57 1475.53 Q2115.57 1472.48 2113.42 1470.77 Q2111.29 1469.03 2107.47 1469.03 L2103.44 1469.03 L2103.44 1465.19 L2107.66 1465.19 Q2111.11 1465.19 2112.94 1463.82 Q2114.76 1462.43 2114.76 1459.84 Q2114.76 1457.18 2112.87 1455.77 Q2110.99 1454.33 2107.47 1454.33 Q2105.55 1454.33 2103.35 1454.75 Q2101.15 1455.16 2098.51 1456.04 L2098.51 1451.88 Q2101.18 1451.14 2103.49 1450.77 Q2105.83 1450.39 2107.89 1450.39 Q2113.21 1450.39 2116.32 1452.83 Q2119.42 1455.23 2119.42 1459.35 Q2119.42 1462.22 2117.77 1464.21 Q2116.13 1466.18 2113.1 1466.95 Z" fill="#000000" fill-rule="nonzero" fill-opacity="1" /><path clip-path="url(#clip940)" d="M2129.09 1479.7 L2133.98 1479.7 L2133.98 1485.58 L2129.09 1485.58 L2129.09 1479.7 Z" fill="#000000" fill-rule="nonzero" fill-opacity="1" /><path clip-path="url(#clip940)" d="M2144.21 1451.02 L2162.57 1451.02 L2162.57 1454.96 L2148.49 1454.96 L2148.49 1463.43 Q2149.51 1463.08 2150.53 1462.92 Q2151.55 1462.73 2152.57 1462.73 Q2158.35 1462.73 2161.73 1465.9 Q2165.11 1469.08 2165.11 1474.49 Q2165.11 1480.07 2161.64 1483.17 Q2158.17 1486.25 2151.85 1486.25 Q2149.67 1486.25 2147.4 1485.88 Q2145.16 1485.51 2142.75 1484.77 L2142.75 1480.07 Q2144.83 1481.2 2147.06 1481.76 Q2149.28 1482.32 2151.75 1482.32 Q2155.76 1482.32 2158.1 1480.21 Q2160.44 1478.1 2160.44 1474.49 Q2160.44 1470.88 2158.1 1468.77 Q2155.76 1466.67 2151.75 1466.67 Q2149.88 1466.67 2148 1467.08 Q2146.15 1467.5 2144.21 1468.38 L2144.21 1451.02 Z" fill="#000000" fill-rule="nonzero" fill-opacity="1" /><path clip-path="url(#clip940)" d="M1134.26 1520.52 L1174.46 1520.52 L1174.46 1525.93 L1157.59 1525.93 L1157.59 1568.04 L1151.13 1568.04 L1151.13 1525.93 L1134.26 1525.93 L1134.26 1520.52 Z" fill="#000000" fill-rule="nonzero" fill-opacity="1" /><path clip-path="url(#clip940)" d="M1183.15 1536.5 Q1178.44 1536.5 1175.7 1540.19 Q1172.96 1543.85 1172.96 1550.25 Q1172.96 1556.65 1175.67 1560.34 Q1178.4 1564 1183.15 1564 Q1187.82 1564 1190.56 1560.31 Q1193.3 1556.62 1193.3 1550.25 Q1193.3 1543.92 1190.56 1540.23 Q1187.82 1536.5 1183.15 1536.5 M1183.15 1531.54 Q1190.78 1531.54 1195.15 1536.5 Q1199.51 1541.47 1199.51 1550.25 Q1199.51 1559 1195.15 1564 Q1190.78 1568.97 1183.15 1568.97 Q1175.48 1568.97 1171.11 1564 Q1166.79 1559 1166.79 1550.25 Q1166.79 1541.47 1171.11 1536.5 Q1175.48 1531.54 1183.15 1531.54 Z" fill="#000000" fill-rule="nonzero" fill-opacity="1" /><path clip-path="url(#clip940)" d="M1229.87 1537.87 Q1228.88 1537.3 1227.71 1537.04 Q1226.56 1536.76 1225.16 1536.76 Q1220.19 1536.76 1217.52 1540 Q1214.88 1543.22 1214.88 1549.27 L1214.88 1568.04 L1208.99 1568.04 L1208.99 1532.4 L1214.88 1532.4 L1214.88 1537.93 Q1216.73 1534.69 1219.69 1533.13 Q1222.65 1531.54 1226.88 1531.54 Q1227.48 1531.54 1228.22 1531.63 Q1228.95 1531.7 1229.84 1531.85 L1229.87 1537.87 Z" fill="#000000" fill-rule="nonzero" fill-opacity="1" /><path clip-path="url(#clip940)" d="M1241.81 1522.27 L1241.81 1532.4 L1253.87 1532.4 L1253.87 1536.95 L1241.81 1536.95 L1241.81 1556.3 Q1241.81 1560.66 1242.98 1561.9 Q1244.19 1563.14 1247.85 1563.14 L1253.87 1563.14 L1253.87 1568.04 L1247.85 1568.04 Q1241.07 1568.04 1238.5 1565.53 Q1235.92 1562.98 1235.92 1556.3 L1235.92 1536.95 L1231.62 1536.95 L1231.62 1532.4 L1235.92 1532.4 L1235.92 1522.27 L1241.81 1522.27 Z" fill="#000000" fill-rule="nonzero" fill-opacity="1" /><path clip-path="url(#clip940)" d="M1260.97 1553.98 L1260.97 1532.4 L1266.82 1532.4 L1266.82 1553.75 Q1266.82 1558.81 1268.8 1561.36 Q1270.77 1563.87 1274.72 1563.87 Q1279.46 1563.87 1282.2 1560.85 Q1284.97 1557.83 1284.97 1552.61 L1284.97 1532.4 L1290.82 1532.4 L1290.82 1568.04 L1284.97 1568.04 L1284.97 1562.57 Q1282.83 1565.82 1280 1567.41 Q1277.2 1568.97 1273.48 1568.97 Q1267.33 1568.97 1264.15 1565.15 Q1260.97 1561.33 1260.97 1553.98 M1275.7 1531.54 L1275.7 1531.54 Z" fill="#000000" fill-rule="nonzero" fill-opacity="1" /><path clip-path="url(#clip940)" d="M1316.7 1536.5 Q1311.99 1536.5 1309.25 1540.19 Q1306.51 1543.85 1306.51 1550.25 Q1306.51 1556.65 1309.22 1560.34 Q1311.96 1564 1316.7 1564 Q1321.38 1564 1324.11 1560.31 Q1326.85 1556.62 1326.85 1550.25 Q1326.85 1543.92 1324.11 1540.23 Q1321.38 1536.5 1316.7 1536.5 M1316.7 1531.54 Q1324.34 1531.54 1328.7 1536.5 Q1333.06 1541.47 1333.06 1550.25 Q1333.06 1559 1328.7 1564 Q1324.34 1568.97 1316.7 1568.97 Q1309.03 1568.97 1304.67 1564 Q1300.34 1559 1300.34 1550.25 Q1300.34 1541.47 1304.67 1536.5 Q1309.03 1531.54 1316.7 1531.54 Z" fill="#000000" fill-rule="nonzero" fill-opacity="1" /><path clip-path="url(#clip940)" d="M1365.49 1533.45 L1365.49 1538.98 Q1363.01 1537.71 1360.34 1537.07 Q1357.66 1536.44 1354.8 1536.44 Q1350.44 1536.44 1348.24 1537.77 Q1346.08 1539.11 1346.08 1541.79 Q1346.08 1543.82 1347.64 1545 Q1349.2 1546.15 1353.91 1547.2 L1355.91 1547.64 Q1362.15 1548.98 1364.76 1551.43 Q1367.4 1553.85 1367.4 1558.21 Q1367.4 1563.17 1363.45 1566.07 Q1359.54 1568.97 1352.66 1568.97 Q1349.8 1568.97 1346.68 1568.39 Q1343.59 1567.85 1340.16 1566.74 L1340.16 1560.69 Q1343.4 1562.38 1346.55 1563.24 Q1349.7 1564.07 1352.79 1564.07 Q1356.93 1564.07 1359.16 1562.66 Q1361.39 1561.23 1361.39 1558.65 Q1361.39 1556.27 1359.76 1554.99 Q1358.17 1553.72 1352.73 1552.54 L1350.69 1552.07 Q1345.25 1550.92 1342.83 1548.56 Q1340.41 1546.18 1340.41 1542.04 Q1340.41 1537.01 1343.98 1534.27 Q1347.54 1531.54 1354.1 1531.54 Q1357.34 1531.54 1360.21 1532.01 Q1363.07 1532.49 1365.49 1533.45 Z" fill="#000000" fill-rule="nonzero" fill-opacity="1" /><path clip-path="url(#clip940)" d="M1376.73 1532.4 L1382.58 1532.4 L1382.58 1568.04 L1376.73 1568.04 L1376.73 1532.4 M1376.73 1518.52 L1382.58 1518.52 L1382.58 1525.93 L1376.73 1525.93 L1376.73 1518.52 Z" fill="#000000" fill-rule="nonzero" fill-opacity="1" /><path clip-path="url(#clip940)" d="M1400.63 1522.27 L1400.63 1532.4 L1412.69 1532.4 L1412.69 1536.95 L1400.63 1536.95 L1400.63 1556.3 Q1400.63 1560.66 1401.81 1561.9 Q1403.02 1563.14 1406.68 1563.14 L1412.69 1563.14 L1412.69 1568.04 L1406.68 1568.04 Q1399.9 1568.04 1397.32 1565.53 Q1394.74 1562.98 1394.74 1556.3 L1394.74 1536.95 L1390.45 1536.95 L1390.45 1532.4 L1394.74 1532.4 L1394.74 1522.27 L1400.63 1522.27 Z" fill="#000000" fill-rule="nonzero" fill-opacity="1" /><path clip-path="url(#clip940)" d="M1435.23 1571.35 Q1432.75 1577.72 1430.39 1579.66 Q1428.03 1581.6 1424.09 1581.6 L1419.41 1581.6 L1419.41 1576.7 L1422.85 1576.7 Q1425.27 1576.7 1426.6 1575.56 Q1427.94 1574.41 1429.56 1570.14 L1430.61 1567.47 L1416.19 1532.4 L1422.4 1532.4 L1433.54 1560.28 L1444.68 1532.4 L1450.89 1532.4 L1435.23 1571.35 Z" fill="#000000" fill-rule="nonzero" fill-opacity="1" /><polyline clip-path="url(#clip940)" style="stroke:#000000; stroke-linecap:round; stroke-linejoin:round; stroke-width:4; stroke-opacity:1; fill:none" points="232.389,1423.18 232.389,123.472 "/>
<polyline clip-path="url(#clip940)" style="stroke:#000000; stroke-linecap:round; stroke-linejoin:round; stroke-width:4; stroke-opacity:1; fill:none" points="232.389,1423.18 251.287,1423.18 "/>
<polyline clip-path="url(#clip940)" style="stroke:#000000; stroke-linecap:round; stroke-linejoin:round; stroke-width:4; stroke-opacity:1; fill:none" points="232.389,1140.63 251.287,1140.63 "/>
<polyline clip-path="url(#clip940)" style="stroke:#000000; stroke-linecap:round; stroke-linejoin:round; stroke-width:4; stroke-opacity:1; fill:none" points="232.389,858.09 251.287,858.09 "/>
<polyline clip-path="url(#clip940)" style="stroke:#000000; stroke-linecap:round; stroke-linejoin:round; stroke-width:4; stroke-opacity:1; fill:none" points="232.389,575.544 251.287,575.544 "/>
<polyline clip-path="url(#clip940)" style="stroke:#000000; stroke-linecap:round; stroke-linejoin:round; stroke-width:4; stroke-opacity:1; fill:none" points="232.389,292.999 251.287,292.999 "/>
<path clip-path="url(#clip940)" d="M184.445 1408.98 Q180.834 1408.98 179.005 1412.54 Q177.2 1416.08 177.2 1423.21 Q177.2 1430.32 179.005 1433.89 Q180.834 1437.43 184.445 1437.43 Q188.079 1437.43 189.885 1433.89 Q191.713 1430.32 191.713 1423.21 Q191.713 1416.08 189.885 1412.54 Q188.079 1408.98 184.445 1408.98 M184.445 1405.27 Q190.255 1405.27 193.311 1409.88 Q196.389 1414.46 196.389 1423.21 Q196.389 1431.94 193.311 1436.55 Q190.255 1441.13 184.445 1441.13 Q178.635 1441.13 175.556 1436.55 Q172.501 1431.94 172.501 1423.21 Q172.501 1414.46 175.556 1409.88 Q178.635 1405.27 184.445 1405.27 Z" fill="#000000" fill-rule="nonzero" fill-opacity="1" /><path clip-path="url(#clip940)" d="M149.306 1153.98 L165.626 1153.98 L165.626 1157.91 L143.681 1157.91 L143.681 1153.98 Q146.343 1151.22 150.927 1146.6 Q155.533 1141.94 156.714 1140.6 Q158.959 1138.08 159.839 1136.34 Q160.741 1134.58 160.741 1132.89 Q160.741 1130.14 158.797 1128.4 Q156.876 1126.66 153.774 1126.66 Q151.575 1126.66 149.121 1127.43 Q146.691 1128.19 143.913 1129.74 L143.913 1125.02 Q146.737 1123.89 149.191 1123.31 Q151.644 1122.73 153.681 1122.73 Q159.052 1122.73 162.246 1125.41 Q165.44 1128.1 165.44 1132.59 Q165.44 1134.72 164.63 1136.64 Q163.843 1138.54 161.737 1141.13 Q161.158 1141.8 158.056 1145.02 Q154.954 1148.22 149.306 1153.98 Z" fill="#000000" fill-rule="nonzero" fill-opacity="1" /><path clip-path="url(#clip940)" d="M175.487 1123.35 L193.843 1123.35 L193.843 1127.29 L179.769 1127.29 L179.769 1135.76 Q180.788 1135.41 181.806 1135.25 Q182.825 1135.07 183.843 1135.07 Q189.63 1135.07 193.01 1138.24 Q196.389 1141.41 196.389 1146.83 Q196.389 1152.41 192.917 1155.51 Q189.445 1158.59 183.126 1158.59 Q180.95 1158.59 178.681 1158.22 Q176.436 1157.85 174.028 1157.1 L174.028 1152.41 Q176.112 1153.54 178.334 1154.1 Q180.556 1154.65 183.033 1154.65 Q187.038 1154.65 189.375 1152.54 Q191.713 1150.44 191.713 1146.83 Q191.713 1143.22 189.375 1141.11 Q187.038 1139 183.033 1139 Q181.158 1139 179.283 1139.42 Q177.431 1139.84 175.487 1140.72 L175.487 1123.35 Z" fill="#000000" fill-rule="nonzero" fill-opacity="1" /><path clip-path="url(#clip940)" d="M144.329 840.81 L162.686 840.81 L162.686 844.745 L148.612 844.745 L148.612 853.217 Q149.63 852.87 150.649 852.708 Q151.667 852.522 152.686 852.522 Q158.473 852.522 161.852 855.694 Q165.232 858.865 165.232 864.282 Q165.232 869.86 161.76 872.962 Q158.288 876.041 151.968 876.041 Q149.792 876.041 147.524 875.67 Q145.279 875.3 142.871 874.559 L142.871 869.86 Q144.954 870.995 147.177 871.55 Q149.399 872.106 151.876 872.106 Q155.88 872.106 158.218 869.999 Q160.556 867.893 160.556 864.282 Q160.556 860.671 158.218 858.564 Q155.88 856.458 151.876 856.458 Q150.001 856.458 148.126 856.874 Q146.274 857.291 144.329 858.171 L144.329 840.81 Z" fill="#000000" fill-rule="nonzero" fill-opacity="1" /><path clip-path="url(#clip940)" d="M184.445 843.888 Q180.834 843.888 179.005 847.453 Q177.2 850.995 177.2 858.124 Q177.2 865.231 179.005 868.795 Q180.834 872.337 184.445 872.337 Q188.079 872.337 189.885 868.795 Q191.713 865.231 191.713 858.124 Q191.713 850.995 189.885 847.453 Q188.079 843.888 184.445 843.888 M184.445 840.185 Q190.255 840.185 193.311 844.791 Q196.389 849.374 196.389 858.124 Q196.389 866.851 193.311 871.458 Q190.255 876.041 184.445 876.041 Q178.635 876.041 175.556 871.458 Q172.501 866.851 172.501 858.124 Q172.501 849.374 175.556 844.791 Q178.635 840.185 184.445 840.185 Z" fill="#000000" fill-rule="nonzero" fill-opacity="1" /><path clip-path="url(#clip940)" d="M144.098 558.264 L166.32 558.264 L166.32 560.255 L153.774 592.824 L148.89 592.824 L160.695 562.2 L144.098 562.2 L144.098 558.264 Z" fill="#000000" fill-rule="nonzero" fill-opacity="1" /><path clip-path="url(#clip940)" d="M175.487 558.264 L193.843 558.264 L193.843 562.2 L179.769 562.2 L179.769 570.672 Q180.788 570.324 181.806 570.162 Q182.825 569.977 183.843 569.977 Q189.63 569.977 193.01 573.149 Q196.389 576.32 196.389 581.736 Q196.389 587.315 192.917 590.417 Q189.445 593.496 183.126 593.496 Q180.95 593.496 178.681 593.125 Q176.436 592.755 174.028 592.014 L174.028 587.315 Q176.112 588.449 178.334 589.005 Q180.556 589.561 183.033 589.561 Q187.038 589.561 189.375 587.454 Q191.713 585.348 191.713 581.736 Q191.713 578.125 189.375 576.019 Q187.038 573.912 183.033 573.912 Q181.158 573.912 179.283 574.329 Q177.431 574.746 175.487 575.625 L175.487 558.264 Z" fill="#000000" fill-rule="nonzero" fill-opacity="1" /><path clip-path="url(#clip940)" d="M114.931 306.344 L122.57 306.344 L122.57 279.978 L114.26 281.645 L114.26 277.386 L122.524 275.719 L127.2 275.719 L127.2 306.344 L134.839 306.344 L134.839 310.279 L114.931 310.279 L114.931 306.344 Z" fill="#000000" fill-rule="nonzero" fill-opacity="1" /><path clip-path="url(#clip940)" d="M154.283 278.798 Q150.672 278.798 148.843 282.363 Q147.038 285.904 147.038 293.034 Q147.038 300.14 148.843 303.705 Q150.672 307.247 154.283 307.247 Q157.917 307.247 159.723 303.705 Q161.552 300.14 161.552 293.034 Q161.552 285.904 159.723 282.363 Q157.917 278.798 154.283 278.798 M154.283 275.094 Q160.093 275.094 163.149 279.701 Q166.227 284.284 166.227 293.034 Q166.227 301.761 163.149 306.367 Q160.093 310.951 154.283 310.951 Q148.473 310.951 145.394 306.367 Q142.339 301.761 142.339 293.034 Q142.339 284.284 145.394 279.701 Q148.473 275.094 154.283 275.094 Z" fill="#000000" fill-rule="nonzero" fill-opacity="1" /><path clip-path="url(#clip940)" d="M184.445 278.798 Q180.834 278.798 179.005 282.363 Q177.2 285.904 177.2 293.034 Q177.2 300.14 179.005 303.705 Q180.834 307.247 184.445 307.247 Q188.079 307.247 189.885 303.705 Q191.713 300.14 191.713 293.034 Q191.713 285.904 189.885 282.363 Q188.079 278.798 184.445 278.798 M184.445 275.094 Q190.255 275.094 193.311 279.701 Q196.389 284.284 196.389 293.034 Q196.389 301.761 193.311 306.367 Q190.255 310.951 184.445 310.951 Q178.635 310.951 175.556 306.367 Q172.501 301.761 172.501 293.034 Q172.501 284.284 175.556 279.701 Q178.635 275.094 184.445 275.094 Z" fill="#000000" fill-rule="nonzero" fill-opacity="1" /><path clip-path="url(#clip940)" d="M41.3104 922.14 L58.7206 922.14 L58.7206 911.828 Q58.7206 906.64 56.5881 904.157 Q54.4238 901.643 49.9996 901.643 Q45.5436 901.643 43.4429 904.157 Q41.3104 906.64 41.3104 911.828 L41.3104 922.14 M21.7677 922.14 L36.0905 922.14 L36.0905 912.624 Q36.0905 907.913 34.34 905.621 Q32.5576 903.298 28.9291 903.298 Q25.3325 903.298 23.5501 905.621 Q21.7677 907.913 21.7677 912.624 L21.7677 922.14 M16.4842 928.57 L16.4842 912.146 Q16.4842 904.794 19.5397 900.815 Q22.5952 896.837 28.2289 896.837 Q32.5894 896.837 35.1675 898.874 Q37.7456 900.911 38.3822 904.857 Q39.4007 900.115 42.6472 897.505 Q45.8619 894.863 50.6998 894.863 Q57.0655 894.863 60.5348 899.192 Q64.0042 903.521 64.0042 911.51 L64.0042 928.57 L16.4842 928.57 Z" fill="#000000" fill-rule="nonzero" fill-opacity="1" /><path clip-path="url(#clip940)" d="M28.3562 884.105 L28.3562 878.249 L64.0042 878.249 L64.0042 884.105 L28.3562 884.105 M14.479 884.105 L14.479 878.249 L21.895 878.249 L21.895 884.105 L14.479 884.105 Z" fill="#000000" fill-rule="nonzero" fill-opacity="1" /><path clip-path="url(#clip940)" d="M42.4881 836.362 L64.0042 836.362 L64.0042 842.219 L42.679 842.219 Q37.6183 842.219 35.1038 844.192 Q32.5894 846.166 32.5894 850.112 Q32.5894 854.855 35.6131 857.592 Q38.6368 860.329 43.8567 860.329 L64.0042 860.329 L64.0042 866.218 L28.3562 866.218 L28.3562 860.329 L33.8944 860.329 Q30.6797 858.229 29.0883 855.396 Q27.4968 852.531 27.4968 848.807 Q27.4968 842.664 31.3163 839.513 Q35.1038 836.362 42.4881 836.362 Z" fill="#000000" fill-rule="nonzero" fill-opacity="1" /><path clip-path="url(#clip940)" d="M20.1444 768.122 L26.9239 768.122 Q23.9002 771.369 22.4043 775.061 Q20.9083 778.721 20.9083 782.859 Q20.9083 791.007 25.9054 795.335 Q30.8707 799.664 40.2919 799.664 Q49.6813 799.664 54.6784 795.335 Q59.6436 791.007 59.6436 782.859 Q59.6436 778.721 58.1477 775.061 Q56.6518 771.369 53.6281 768.122 L60.3439 768.122 Q62.6355 771.496 63.7814 775.283 Q64.9272 779.039 64.9272 783.241 Q64.9272 794.03 58.3387 800.237 Q51.7183 806.444 40.2919 806.444 Q28.8336 806.444 22.2451 800.237 Q15.6248 794.03 15.6248 783.241 Q15.6248 778.976 16.7706 775.22 Q17.8846 771.432 20.1444 768.122 Z" fill="#000000" fill-rule="nonzero" fill-opacity="1" /><path clip-path="url(#clip940)" d="M32.4621 744.633 Q32.4621 749.343 36.1542 752.08 Q39.8145 754.818 46.212 754.818 Q52.6095 754.818 56.3017 752.112 Q59.9619 749.375 59.9619 744.633 Q59.9619 739.954 56.2698 737.217 Q52.5777 734.479 46.212 734.479 Q39.8781 734.479 36.186 737.217 Q32.4621 739.954 32.4621 744.633 M27.4968 744.633 Q27.4968 736.994 32.4621 732.633 Q37.4273 728.273 46.212 728.273 Q54.9649 728.273 59.9619 732.633 Q64.9272 736.994 64.9272 744.633 Q64.9272 752.303 59.9619 756.664 Q54.9649 760.992 46.212 760.992 Q37.4273 760.992 32.4621 756.664 Q27.4968 752.303 27.4968 744.633 Z" fill="#000000" fill-rule="nonzero" fill-opacity="1" /><path clip-path="url(#clip940)" d="M49.9359 719.17 L28.3562 719.17 L28.3562 713.313 L49.7131 713.313 Q54.7739 713.313 57.3202 711.34 Q59.8346 709.367 59.8346 705.42 Q59.8346 700.677 56.8109 697.94 Q53.7872 695.171 48.5673 695.171 L28.3562 695.171 L28.3562 689.315 L64.0042 689.315 L64.0042 695.171 L58.5296 695.171 Q61.7762 697.304 63.3676 700.136 Q64.9272 702.937 64.9272 706.661 Q64.9272 712.804 61.1078 715.987 Q57.2883 719.17 49.9359 719.17 M27.4968 704.433 L27.4968 704.433 Z" fill="#000000" fill-rule="nonzero" fill-opacity="1" /><path clip-path="url(#clip940)" d="M42.4881 647.619 L64.0042 647.619 L64.0042 653.476 L42.679 653.476 Q37.6183 653.476 35.1038 655.449 Q32.5894 657.422 32.5894 661.369 Q32.5894 666.112 35.6131 668.849 Q38.6368 671.586 43.8567 671.586 L64.0042 671.586 L64.0042 677.474 L28.3562 677.474 L28.3562 671.586 L33.8944 671.586 Q30.6797 669.485 29.0883 666.653 Q27.4968 663.788 27.4968 660.064 Q27.4968 653.921 31.3163 650.77 Q35.1038 647.619 42.4881 647.619 Z" fill="#000000" fill-rule="nonzero" fill-opacity="1" /><path clip-path="url(#clip940)" d="M18.2347 630.145 L28.3562 630.145 L28.3562 618.082 L32.9077 618.082 L32.9077 630.145 L52.2594 630.145 Q56.6199 630.145 57.8613 628.968 Q59.1026 627.758 59.1026 624.098 L59.1026 618.082 L64.0042 618.082 L64.0042 624.098 Q64.0042 630.877 61.4897 633.455 Q58.9434 636.034 52.2594 636.034 L32.9077 636.034 L32.9077 640.33 L28.3562 640.33 L28.3562 636.034 L18.2347 636.034 L18.2347 630.145 Z" fill="#000000" fill-rule="nonzero" fill-opacity="1" /><path clip-path="url(#clip940)" d="M838.183 12.096 L889.346 12.096 L889.346 18.9825 L867.876 18.9825 L867.876 72.576 L859.652 72.576 L859.652 18.9825 L838.183 18.9825 L838.183 12.096 Z" fill="#000000" fill-rule="nonzero" fill-opacity="1" /><path clip-path="url(#clip940)" d="M900.405 32.4315 Q894.409 32.4315 890.925 37.1306 Q887.442 41.7891 887.442 49.9314 Q887.442 58.0738 890.885 62.7728 Q894.369 67.4314 900.405 67.4314 Q906.359 67.4314 909.843 62.7323 Q913.327 58.0333 913.327 49.9314 Q913.327 41.8701 909.843 37.1711 Q906.359 32.4315 900.405 32.4315 M900.405 26.1121 Q910.127 26.1121 915.676 32.4315 Q921.226 38.7509 921.226 49.9314 Q921.226 61.0714 915.676 67.4314 Q910.127 73.7508 900.405 73.7508 Q890.642 73.7508 885.092 67.4314 Q879.583 61.0714 879.583 49.9314 Q879.583 38.7509 885.092 32.4315 Q890.642 26.1121 900.405 26.1121 Z" fill="#000000" fill-rule="nonzero" fill-opacity="1" /><path clip-path="url(#clip940)" d="M959.872 34.1734 Q958.616 33.4443 957.117 33.1202 Q955.659 32.7556 953.877 32.7556 Q947.557 32.7556 944.154 36.8875 Q940.792 40.9789 940.792 48.6757 L940.792 72.576 L933.298 72.576 L933.298 27.2059 L940.792 27.2059 L940.792 34.2544 Q943.142 30.1225 946.909 28.1376 Q950.676 26.1121 956.064 26.1121 Q956.834 26.1121 957.765 26.2337 Q958.697 26.3147 959.831 26.5172 L959.872 34.1734 Z" fill="#000000" fill-rule="nonzero" fill-opacity="1" /><path clip-path="url(#clip940)" d="M975.063 14.324 L975.063 27.2059 L990.416 27.2059 L990.416 32.9987 L975.063 32.9987 L975.063 57.6282 Q975.063 63.1779 976.562 64.7578 Q978.101 66.3376 982.759 66.3376 L990.416 66.3376 L990.416 72.576 L982.759 72.576 Q974.131 72.576 970.85 69.3758 Q967.569 66.1351 967.569 57.6282 L967.569 32.9987 L962.1 32.9987 L962.1 27.2059 L967.569 27.2059 L967.569 14.324 L975.063 14.324 Z" fill="#000000" fill-rule="nonzero" fill-opacity="1" /><path clip-path="url(#clip940)" d="M999.449 54.671 L999.449 27.2059 L1006.9 27.2059 L1006.9 54.3874 Q1006.9 60.8284 1009.41 64.0691 Q1011.93 67.2693 1016.95 67.2693 Q1022.98 67.2693 1026.47 63.421 Q1029.99 59.5726 1029.99 52.9291 L1029.99 27.2059 L1037.45 27.2059 L1037.45 72.576 L1029.99 72.576 L1029.99 65.6084 Q1027.28 69.7404 1023.67 71.7658 Q1020.11 73.7508 1015.37 73.7508 Q1007.55 73.7508 1003.5 68.8897 Q999.449 64.0286 999.449 54.671 M1018.2 26.1121 L1018.2 26.1121 Z" fill="#000000" fill-rule="nonzero" fill-opacity="1" /><path clip-path="url(#clip940)" d="M1070.38 32.4315 Q1064.39 32.4315 1060.9 37.1306 Q1057.42 41.7891 1057.42 49.9314 Q1057.42 58.0738 1060.86 62.7728 Q1064.34 67.4314 1070.38 67.4314 Q1076.34 67.4314 1079.82 62.7323 Q1083.3 58.0333 1083.3 49.9314 Q1083.3 41.8701 1079.82 37.1711 Q1076.34 32.4315 1070.38 32.4315 M1070.38 26.1121 Q1080.1 26.1121 1085.65 32.4315 Q1091.2 38.7509 1091.2 49.9314 Q1091.2 61.0714 1085.65 67.4314 Q1080.1 73.7508 1070.38 73.7508 Q1060.62 73.7508 1055.07 67.4314 Q1049.56 61.0714 1049.56 49.9314 Q1049.56 38.7509 1055.07 32.4315 Q1060.62 26.1121 1070.38 26.1121 Z" fill="#000000" fill-rule="nonzero" fill-opacity="1" /><path clip-path="url(#clip940)" d="M1132.48 28.5427 L1132.48 35.5912 Q1129.32 33.9709 1125.92 33.1607 Q1122.52 32.3505 1118.87 32.3505 Q1113.32 32.3505 1110.52 34.0519 Q1107.77 35.7533 1107.77 39.156 Q1107.77 41.7486 1109.76 43.2475 Q1111.74 44.7058 1117.74 46.0426 L1120.29 46.6097 Q1128.23 48.3111 1131.55 51.4303 Q1134.91 54.509 1134.91 60.0587 Q1134.91 66.3781 1129.89 70.0644 Q1124.91 73.7508 1116.16 73.7508 Q1112.51 73.7508 1108.54 73.0216 Q1104.61 72.3329 1100.24 70.9151 L1100.24 63.2184 Q1104.37 65.3654 1108.38 66.4591 Q1112.39 67.5124 1116.32 67.5124 Q1121.58 67.5124 1124.42 65.73 Q1127.26 63.9071 1127.26 60.6258 Q1127.26 57.5877 1125.19 55.9673 Q1123.16 54.3469 1116.24 52.8481 L1113.64 52.2405 Q1106.72 50.7821 1103.64 47.7845 Q1100.56 44.7463 1100.56 39.4801 Q1100.56 33.0797 1105.1 29.5959 Q1109.63 26.1121 1117.98 26.1121 Q1122.11 26.1121 1125.76 26.7198 Q1129.4 27.3274 1132.48 28.5427 Z" fill="#000000" fill-rule="nonzero" fill-opacity="1" /><path clip-path="url(#clip940)" d="M1146.78 27.2059 L1154.23 27.2059 L1154.23 72.576 L1146.78 72.576 L1146.78 27.2059 M1146.78 9.54393 L1154.23 9.54393 L1154.23 18.9825 L1146.78 18.9825 L1146.78 9.54393 Z" fill="#000000" fill-rule="nonzero" fill-opacity="1" /><path clip-path="url(#clip940)" d="M1177.2 14.324 L1177.2 27.2059 L1192.56 27.2059 L1192.56 32.9987 L1177.2 32.9987 L1177.2 57.6282 Q1177.2 63.1779 1178.7 64.7578 Q1180.24 66.3376 1184.9 66.3376 L1192.56 66.3376 L1192.56 72.576 L1184.9 72.576 Q1176.27 72.576 1172.99 69.3758 Q1169.71 66.1351 1169.71 57.6282 L1169.71 32.9987 L1164.24 32.9987 L1164.24 27.2059 L1169.71 27.2059 L1169.71 14.324 L1177.2 14.324 Z" fill="#000000" fill-rule="nonzero" fill-opacity="1" /><path clip-path="url(#clip940)" d="M1221.24 76.7889 Q1218.08 84.8907 1215.08 87.3618 Q1212.08 89.8329 1207.06 89.8329 L1201.1 89.8329 L1201.1 83.5945 L1205.48 83.5945 Q1208.56 83.5945 1210.26 82.1361 Q1211.96 80.6778 1214.03 75.2496 L1215.36 71.8468 L1197.01 27.2059 L1204.91 27.2059 L1219.09 62.6918 L1233.27 27.2059 L1241.17 27.2059 L1221.24 76.7889 Z" fill="#000000" fill-rule="nonzero" fill-opacity="1" /><path clip-path="url(#clip940)" d="M1286.33 18.8205 L1286.33 65.8515 L1296.22 65.8515 Q1308.74 65.8515 1314.53 60.1802 Q1320.36 54.509 1320.36 42.2752 Q1320.36 30.1225 1314.53 24.4918 Q1308.74 18.8205 1296.22 18.8205 L1286.33 18.8205 M1278.15 12.096 L1294.96 12.096 Q1312.54 12.096 1320.77 19.4281 Q1328.99 26.7198 1328.99 42.2752 Q1328.99 57.9117 1320.73 65.2439 Q1312.46 72.576 1294.96 72.576 L1278.15 72.576 L1278.15 12.096 Z" fill="#000000" fill-rule="nonzero" fill-opacity="1" /><path clip-path="url(#clip940)" d="M1341.71 27.2059 L1349.16 27.2059 L1349.16 72.576 L1341.71 72.576 L1341.71 27.2059 M1341.71 9.54393 L1349.16 9.54393 L1349.16 18.9825 L1341.71 18.9825 L1341.71 9.54393 Z" fill="#000000" fill-rule="nonzero" fill-opacity="1" /><path clip-path="url(#clip940)" d="M1393.68 28.5427 L1393.68 35.5912 Q1390.52 33.9709 1387.12 33.1607 Q1383.72 32.3505 1380.07 32.3505 Q1374.52 32.3505 1371.73 34.0519 Q1368.97 35.7533 1368.97 39.156 Q1368.97 41.7486 1370.96 43.2475 Q1372.94 44.7058 1378.94 46.0426 L1381.49 46.6097 Q1389.43 48.3111 1392.75 51.4303 Q1396.11 54.509 1396.11 60.0587 Q1396.11 66.3781 1391.09 70.0644 Q1386.11 73.7508 1377.36 73.7508 Q1373.71 73.7508 1369.74 73.0216 Q1365.81 72.3329 1361.44 70.9151 L1361.44 63.2184 Q1365.57 65.3654 1369.58 66.4591 Q1373.59 67.5124 1377.52 67.5124 Q1382.79 67.5124 1385.62 65.73 Q1388.46 63.9071 1388.46 60.6258 Q1388.46 57.5877 1386.39 55.9673 Q1384.37 54.3469 1377.44 52.8481 L1374.85 52.2405 Q1367.92 50.7821 1364.84 47.7845 Q1361.76 44.7463 1361.76 39.4801 Q1361.76 33.0797 1366.3 29.5959 Q1370.84 26.1121 1379.18 26.1121 Q1383.31 26.1121 1386.96 26.7198 Q1390.6 27.3274 1393.68 28.5427 Z" fill="#000000" fill-rule="nonzero" fill-opacity="1" /><path clip-path="url(#clip940)" d="M1415.36 14.324 L1415.36 27.2059 L1430.71 27.2059 L1430.71 32.9987 L1415.36 32.9987 L1415.36 57.6282 Q1415.36 63.1779 1416.85 64.7578 Q1418.39 66.3376 1423.05 66.3376 L1430.71 66.3376 L1430.71 72.576 L1423.05 72.576 Q1414.42 72.576 1411.14 69.3758 Q1407.86 66.1351 1407.86 57.6282 L1407.86 32.9987 L1402.39 32.9987 L1402.39 27.2059 L1407.86 27.2059 L1407.86 14.324 L1415.36 14.324 Z" fill="#000000" fill-rule="nonzero" fill-opacity="1" /><path clip-path="url(#clip940)" d="M1466.8 34.1734 Q1465.55 33.4443 1464.05 33.1202 Q1462.59 32.7556 1460.81 32.7556 Q1454.49 32.7556 1451.08 36.8875 Q1447.72 40.9789 1447.72 48.6757 L1447.72 72.576 L1440.23 72.576 L1440.23 27.2059 L1447.72 27.2059 L1447.72 34.2544 Q1450.07 30.1225 1453.84 28.1376 Q1457.61 26.1121 1462.99 26.1121 Q1463.76 26.1121 1464.7 26.2337 Q1465.63 26.3147 1466.76 26.5172 L1466.8 34.1734 Z" fill="#000000" fill-rule="nonzero" fill-opacity="1" /><path clip-path="url(#clip940)" d="M1474.62 27.2059 L1482.07 27.2059 L1482.07 72.576 L1474.62 72.576 L1474.62 27.2059 M1474.62 9.54393 L1482.07 9.54393 L1482.07 18.9825 L1474.62 18.9825 L1474.62 9.54393 Z" fill="#000000" fill-rule="nonzero" fill-opacity="1" /><path clip-path="url(#clip940)" d="M1530.24 49.9314 Q1530.24 41.7081 1526.84 37.0496 Q1523.47 32.3505 1517.56 32.3505 Q1511.65 32.3505 1508.24 37.0496 Q1504.88 41.7081 1504.88 49.9314 Q1504.88 58.1548 1508.24 62.8538 Q1511.65 67.5124 1517.56 67.5124 Q1523.47 67.5124 1526.84 62.8538 Q1530.24 58.1548 1530.24 49.9314 M1504.88 34.0924 Q1507.23 30.0415 1510.79 28.0971 Q1514.4 26.1121 1519.38 26.1121 Q1527.65 26.1121 1532.79 32.6746 Q1537.98 39.2371 1537.98 49.9314 Q1537.98 60.6258 1532.79 67.1883 Q1527.65 73.7508 1519.38 73.7508 Q1514.4 73.7508 1510.79 71.8063 Q1507.23 69.8214 1504.88 65.7705 L1504.88 72.576 L1497.39 72.576 L1497.39 9.54393 L1504.88 9.54393 L1504.88 34.0924 Z" fill="#000000" fill-rule="nonzero" fill-opacity="1" /><path clip-path="url(#clip940)" d="M1549.56 54.671 L1549.56 27.2059 L1557.02 27.2059 L1557.02 54.3874 Q1557.02 60.8284 1559.53 64.0691 Q1562.04 67.2693 1567.06 67.2693 Q1573.1 67.2693 1576.58 63.421 Q1580.11 59.5726 1580.11 52.9291 L1580.11 27.2059 L1587.56 27.2059 L1587.56 72.576 L1580.11 72.576 L1580.11 65.6084 Q1577.39 69.7404 1573.79 71.7658 Q1570.22 73.7508 1565.48 73.7508 Q1557.66 73.7508 1553.61 68.8897 Q1549.56 64.0286 1549.56 54.671 M1568.32 26.1121 L1568.32 26.1121 Z" fill="#000000" fill-rule="nonzero" fill-opacity="1" /><path clip-path="url(#clip940)" d="M1610.29 14.324 L1610.29 27.2059 L1625.64 27.2059 L1625.64 32.9987 L1610.29 32.9987 L1610.29 57.6282 Q1610.29 63.1779 1611.78 64.7578 Q1613.32 66.3376 1617.98 66.3376 L1625.64 66.3376 L1625.64 72.576 L1617.98 72.576 Q1609.35 72.576 1606.07 69.3758 Q1602.79 66.1351 1602.79 57.6282 L1602.79 32.9987 L1597.32 32.9987 L1597.32 27.2059 L1602.79 27.2059 L1602.79 14.324 L1610.29 14.324 Z" fill="#000000" fill-rule="nonzero" fill-opacity="1" /><path clip-path="url(#clip940)" d="M1635.44 27.2059 L1642.89 27.2059 L1642.89 72.576 L1635.44 72.576 L1635.44 27.2059 M1635.44 9.54393 L1642.89 9.54393 L1642.89 18.9825 L1635.44 18.9825 L1635.44 9.54393 Z" fill="#000000" fill-rule="nonzero" fill-opacity="1" /><path clip-path="url(#clip940)" d="M1676.07 32.4315 Q1670.08 32.4315 1666.59 37.1306 Q1663.11 41.7891 1663.11 49.9314 Q1663.11 58.0738 1666.55 62.7728 Q1670.04 67.4314 1676.07 67.4314 Q1682.03 67.4314 1685.51 62.7323 Q1688.99 58.0333 1688.99 49.9314 Q1688.99 41.8701 1685.51 37.1711 Q1682.03 32.4315 1676.07 32.4315 M1676.07 26.1121 Q1685.79 26.1121 1691.34 32.4315 Q1696.89 38.7509 1696.89 49.9314 Q1696.89 61.0714 1691.34 67.4314 Q1685.79 73.7508 1676.07 73.7508 Q1666.31 73.7508 1660.76 67.4314 Q1655.25 61.0714 1655.25 49.9314 Q1655.25 38.7509 1660.76 32.4315 Q1666.31 26.1121 1676.07 26.1121 Z" fill="#000000" fill-rule="nonzero" fill-opacity="1" /><path clip-path="url(#clip940)" d="M1746.96 45.1919 L1746.96 72.576 L1739.51 72.576 L1739.51 45.4349 Q1739.51 38.994 1737 35.7938 Q1734.49 32.5936 1729.46 32.5936 Q1723.43 32.5936 1719.94 36.4419 Q1716.46 40.2903 1716.46 46.9338 L1716.46 72.576 L1708.97 72.576 L1708.97 27.2059 L1716.46 27.2059 L1716.46 34.2544 Q1719.13 30.163 1722.74 28.1376 Q1726.38 26.1121 1731.12 26.1121 Q1738.94 26.1121 1742.95 30.9732 Q1746.96 35.7938 1746.96 45.1919 Z" fill="#000000" fill-rule="nonzero" fill-opacity="1" /><path clip-path="url(#clip942)" d="M349.013 937.202 L349.013 1423.18 L558.693 1423.18 L558.693 937.202 L349.013 937.202 L349.013 937.202  Z" fill="#009af9" fill-rule="evenodd" fill-opacity="1"/>
<polyline clip-path="url(#clip942)" style="stroke:#000000; stroke-linecap:round; stroke-linejoin:round; stroke-width:4; stroke-opacity:1; fill:none" points="349.013,937.202 349.013,1423.18 558.693,1423.18 558.693,937.202 349.013,937.202 "/>
<path clip-path="url(#clip942)" d="M558.693 1366.67 L558.693 1423.18 L768.373 1423.18 L768.373 1366.67 L558.693 1366.67 L558.693 1366.67  Z" fill="#009af9" fill-rule="evenodd" fill-opacity="1"/>
<polyline clip-path="url(#clip942)" style="stroke:#000000; stroke-linecap:round; stroke-linejoin:round; stroke-width:4; stroke-opacity:1; fill:none" points="558.693,1366.67 558.693,1423.18 768.373,1423.18 768.373,1366.67 558.693,1366.67 "/>
<path clip-path="url(#clip942)" d="M768.373 1344.07 L768.373 1423.18 L978.053 1423.18 L978.053 1344.07 L768.373 1344.07 L768.373 1344.07  Z" fill="#009af9" fill-rule="evenodd" fill-opacity="1"/>
<polyline clip-path="url(#clip942)" style="stroke:#000000; stroke-linecap:round; stroke-linejoin:round; stroke-width:4; stroke-opacity:1; fill:none" points="768.373,1344.07 768.373,1423.18 978.053,1423.18 978.053,1344.07 768.373,1344.07 "/>
<path clip-path="url(#clip942)" d="M978.053 507.734 L978.053 1423.18 L1187.73 1423.18 L1187.73 507.734 L978.053 507.734 L978.053 507.734  Z" fill="#009af9" fill-rule="evenodd" fill-opacity="1"/>
<polyline clip-path="url(#clip942)" style="stroke:#000000; stroke-linecap:round; stroke-linejoin:round; stroke-width:4; stroke-opacity:1; fill:none" points="978.053,507.734 978.053,1423.18 1187.73,1423.18 1187.73,507.734 978.053,507.734 "/>
<path clip-path="url(#clip942)" d="M1187.73 869.391 L1187.73 1423.18 L1397.41 1423.18 L1397.41 869.391 L1187.73 869.391 L1187.73 869.391  Z" fill="#009af9" fill-rule="evenodd" fill-opacity="1"/>
<polyline clip-path="url(#clip942)" style="stroke:#000000; stroke-linecap:round; stroke-linejoin:round; stroke-width:4; stroke-opacity:1; fill:none" points="1187.73,869.391 1187.73,1423.18 1397.41,1423.18 1397.41,869.391 1187.73,869.391 "/>
<path clip-path="url(#clip942)" d="M1397.41 123.472 L1397.41 1423.18 L1607.09 1423.18 L1607.09 123.472 L1397.41 123.472 L1397.41 123.472  Z" fill="#009af9" fill-rule="evenodd" fill-opacity="1"/>
<polyline clip-path="url(#clip942)" style="stroke:#000000; stroke-linecap:round; stroke-linejoin:round; stroke-width:4; stroke-opacity:1; fill:none" points="1397.41,123.472 1397.41,1423.18 1607.09,1423.18 1607.09,123.472 1397.41,123.472 "/>
<path clip-path="url(#clip942)" d="M1607.09 801.58 L1607.09 1423.18 L1816.77 1423.18 L1816.77 801.58 L1607.09 801.58 L1607.09 801.58  Z" fill="#009af9" fill-rule="evenodd" fill-opacity="1"/>
<polyline clip-path="url(#clip942)" style="stroke:#000000; stroke-linecap:round; stroke-linejoin:round; stroke-width:4; stroke-opacity:1; fill:none" points="1607.09,801.58 1607.09,1423.18 1816.77,1423.18 1816.77,801.58 1607.09,801.58 "/>
<path clip-path="url(#clip942)" d="M1816.77 1310.16 L1816.77 1423.18 L2026.45 1423.18 L2026.45 1310.16 L1816.77 1310.16 L1816.77 1310.16  Z" fill="#009af9" fill-rule="evenodd" fill-opacity="1"/>
<polyline clip-path="url(#clip942)" style="stroke:#000000; stroke-linecap:round; stroke-linejoin:round; stroke-width:4; stroke-opacity:1; fill:none" points="1816.77,1310.16 1816.77,1423.18 2026.45,1423.18 2026.45,1310.16 1816.77,1310.16 "/>
<path clip-path="url(#clip942)" d="M2026.45 1027.62 L2026.45 1423.18 L2236.13 1423.18 L2236.13 1027.62 L2026.45 1027.62 L2026.45 1027.62  Z" fill="#009af9" fill-rule="evenodd" fill-opacity="1"/>
<polyline clip-path="url(#clip942)" style="stroke:#000000; stroke-linecap:round; stroke-linejoin:round; stroke-width:4; stroke-opacity:1; fill:none" points="2026.45,1027.62 2026.45,1423.18 2236.13,1423.18 2236.13,1027.62 2026.45,1027.62 "/>
<circle clip-path="url(#clip942)" style="fill:#009af9; stroke:none; fill-opacity:0" cx="453.853" cy="937.202" r="2"/>
<circle clip-path="url(#clip942)" style="fill:#009af9; stroke:none; fill-opacity:0" cx="663.533" cy="1366.67" r="2"/>
<circle clip-path="url(#clip942)" style="fill:#009af9; stroke:none; fill-opacity:0" cx="873.213" cy="1344.07" r="2"/>
<circle clip-path="url(#clip942)" style="fill:#009af9; stroke:none; fill-opacity:0" cx="1082.89" cy="507.734" r="2"/>
<circle clip-path="url(#clip942)" style="fill:#009af9; stroke:none; fill-opacity:0" cx="1292.57" cy="869.391" r="2"/>
<circle clip-path="url(#clip942)" style="fill:#009af9; stroke:none; fill-opacity:0" cx="1502.25" cy="123.472" r="2"/>
<circle clip-path="url(#clip942)" style="fill:#009af9; stroke:none; fill-opacity:0" cx="1711.93" cy="801.58" r="2"/>
<circle clip-path="url(#clip942)" style="fill:#009af9; stroke:none; fill-opacity:0" cx="1921.61" cy="1310.16" r="2"/>
<circle clip-path="url(#clip942)" style="fill:#009af9; stroke:none; fill-opacity:0" cx="2131.29" cy="1027.62" r="2"/>
</svg>
